G75*
%MOIN*%
%OFA0B0*%
%FSLAX24Y24*%
%IPPOS*%
%LPD*%
%AMOC8*
5,1,8,0,0,1.08239X$1,22.5*
%
%ADD10C,0.0050*%
%ADD11C,0.0120*%
%ADD12C,0.0060*%
%ADD13C,0.0059*%
D10*
X005720Y003418D02*
X005720Y003618D01*
X005820Y003718D01*
X005921Y003618D01*
X005921Y003418D01*
X006043Y003468D02*
X006093Y003418D01*
X006193Y003418D01*
X006243Y003468D01*
X006193Y003568D02*
X006093Y003568D01*
X006043Y003518D01*
X006043Y003468D01*
X005921Y003568D02*
X005720Y003568D01*
X006043Y003668D02*
X006093Y003718D01*
X006193Y003718D01*
X006243Y003668D01*
X006243Y003618D01*
X006193Y003568D01*
X006365Y003568D02*
X006565Y003568D01*
X006687Y003668D02*
X006687Y003718D01*
X006687Y003668D02*
X006787Y003568D01*
X006787Y003418D01*
X006787Y003568D02*
X006887Y003668D01*
X006887Y003718D01*
X007009Y003668D02*
X007009Y003618D01*
X007060Y003568D01*
X007210Y003568D01*
X007332Y003568D02*
X007532Y003568D01*
X007654Y003468D02*
X007704Y003418D01*
X007804Y003418D01*
X007854Y003468D01*
X007854Y003668D01*
X007804Y003718D01*
X007704Y003718D01*
X007654Y003668D01*
X007976Y003668D02*
X008026Y003718D01*
X008126Y003718D01*
X008176Y003668D01*
X008176Y003468D01*
X008126Y003418D01*
X008026Y003418D01*
X007976Y003468D01*
X007290Y003043D02*
X007090Y003043D01*
X006968Y002943D02*
X006918Y002943D01*
X006918Y002893D01*
X006968Y002893D01*
X006968Y002943D01*
X006807Y002943D02*
X006607Y003143D01*
X006607Y002943D01*
X006657Y002893D01*
X006757Y002893D01*
X006807Y002943D01*
X006807Y003143D01*
X006757Y003193D01*
X006657Y003193D01*
X006607Y003143D01*
X007009Y003468D02*
X007060Y003418D01*
X007210Y003418D01*
X007210Y003718D01*
X007060Y003718D01*
X007009Y003668D01*
X007060Y003568D02*
X007009Y003518D01*
X007009Y003468D01*
X007140Y003193D02*
X007290Y003043D01*
X007140Y002893D02*
X007140Y003193D01*
X010857Y007093D02*
X010857Y007143D01*
X010907Y007193D01*
X011158Y007193D01*
X011158Y007043D01*
X011107Y006993D01*
X011007Y006993D01*
X010957Y007043D01*
X010957Y007193D01*
X011007Y007315D02*
X011057Y007365D01*
X011057Y007515D01*
X011107Y007515D02*
X010957Y007515D01*
X010957Y007365D01*
X011007Y007315D01*
X011158Y007365D02*
X011158Y007465D01*
X011107Y007515D01*
X011158Y007637D02*
X011158Y007737D01*
X011208Y007687D02*
X011007Y007687D01*
X010957Y007737D01*
X011007Y007902D02*
X010957Y007952D01*
X011007Y007902D02*
X011208Y007902D01*
X011158Y007852D02*
X011158Y007952D01*
X011158Y008067D02*
X011158Y008117D01*
X010957Y008117D01*
X010957Y008067D02*
X010957Y008167D01*
X010957Y008282D02*
X011158Y008282D01*
X011158Y008432D01*
X011107Y008482D01*
X010957Y008482D01*
X011007Y008604D02*
X010957Y008654D01*
X010957Y008804D01*
X010907Y008804D02*
X010857Y008754D01*
X010857Y008704D01*
X010907Y008804D02*
X011158Y008804D01*
X011158Y008926D02*
X011208Y008926D01*
X011258Y008976D01*
X011258Y009076D01*
X011208Y009127D01*
X011158Y009127D01*
X011107Y009076D01*
X011107Y008976D01*
X011158Y008926D01*
X011107Y008976D02*
X011057Y008926D01*
X011007Y008926D01*
X010957Y008976D01*
X010957Y009076D01*
X011007Y009127D01*
X011057Y009127D01*
X011107Y009076D01*
X011107Y009249D02*
X011158Y009349D01*
X011158Y009399D01*
X011107Y009449D01*
X011007Y009449D01*
X010957Y009399D01*
X010957Y009299D01*
X011007Y009249D01*
X011107Y009249D02*
X011258Y009249D01*
X011258Y009449D01*
X010907Y009571D02*
X010907Y009771D01*
X010957Y009893D02*
X010957Y010043D01*
X011007Y010093D01*
X011057Y010043D01*
X011057Y009943D01*
X011107Y009893D01*
X011158Y009943D01*
X011158Y010093D01*
X011158Y010215D02*
X011158Y010265D01*
X010957Y010265D01*
X010957Y010215D02*
X010957Y010316D01*
X010957Y010430D02*
X011158Y010430D01*
X011158Y010580D01*
X011107Y010630D01*
X010957Y010630D01*
X011007Y010753D02*
X010957Y010803D01*
X010957Y010953D01*
X010907Y010953D02*
X011158Y010953D01*
X011158Y010803D01*
X011107Y010753D01*
X011007Y010753D01*
X010857Y010853D02*
X010857Y010903D01*
X010907Y010953D01*
X010957Y011075D02*
X010957Y011175D01*
X010957Y011125D02*
X011258Y011125D01*
X011258Y011075D01*
X011107Y011290D02*
X011007Y011290D01*
X010957Y011340D01*
X010957Y011440D01*
X011057Y011490D02*
X011057Y011290D01*
X011107Y011290D02*
X011158Y011340D01*
X011158Y011440D01*
X011107Y011490D01*
X011057Y011490D01*
X010907Y011612D02*
X010907Y011812D01*
X010957Y012034D02*
X011158Y012134D01*
X011158Y012257D02*
X011258Y012357D01*
X010957Y012357D01*
X010957Y012257D02*
X010957Y012457D01*
X010957Y012034D02*
X011158Y011934D01*
X011258Y010265D02*
X011308Y010265D01*
X011158Y008604D02*
X011007Y008604D01*
X011258Y008117D02*
X011308Y008117D01*
X011158Y006871D02*
X010957Y006771D01*
X011158Y006670D01*
X008209Y009301D02*
X008009Y009301D01*
X008109Y009301D02*
X008109Y009000D01*
X007887Y009050D02*
X007887Y009201D01*
X007887Y009050D02*
X007837Y009000D01*
X007687Y009000D01*
X007687Y009201D01*
X007564Y009301D02*
X007514Y009301D01*
X007514Y009000D01*
X007564Y009000D02*
X007464Y009000D01*
X007350Y009000D02*
X007250Y009000D01*
X007300Y009000D02*
X007300Y009201D01*
X007350Y009201D01*
X007300Y009301D02*
X007300Y009351D01*
X007219Y009525D02*
X007269Y009575D01*
X007219Y009626D01*
X007069Y009626D01*
X007069Y009676D02*
X007069Y009525D01*
X007219Y009525D01*
X007069Y009676D02*
X007119Y009726D01*
X007219Y009726D01*
X007391Y009826D02*
X007491Y009826D01*
X007441Y009826D02*
X007441Y009575D01*
X007491Y009525D01*
X007541Y009525D01*
X007591Y009575D01*
X007672Y010050D02*
X007572Y010151D01*
X007572Y010251D01*
X007672Y010351D01*
X007794Y010301D02*
X007844Y010351D01*
X007944Y010351D01*
X007994Y010301D01*
X007994Y010100D01*
X007944Y010050D01*
X007844Y010050D01*
X007794Y010100D01*
X008109Y010050D02*
X008209Y010151D01*
X008209Y010251D01*
X008109Y010351D01*
X007135Y010301D02*
X007085Y010351D01*
X006985Y010351D01*
X006935Y010301D01*
X006935Y010251D01*
X007135Y010050D01*
X006935Y010050D01*
X006813Y010100D02*
X006612Y010301D01*
X006612Y010100D01*
X006662Y010050D01*
X006762Y010050D01*
X006813Y010100D01*
X006813Y010301D01*
X006762Y010351D01*
X006662Y010351D01*
X006612Y010301D01*
X006490Y010251D02*
X006390Y010351D01*
X006390Y010050D01*
X006490Y010050D02*
X006290Y010050D01*
X006168Y010100D02*
X006118Y010050D01*
X006018Y010050D01*
X005968Y010100D01*
X005968Y010201D01*
X006018Y010251D01*
X006068Y010251D01*
X006168Y010201D01*
X006168Y010351D01*
X005968Y010351D01*
X006628Y009876D02*
X006628Y009826D01*
X006628Y009726D02*
X006628Y009525D01*
X006678Y009525D02*
X006578Y009525D01*
X006598Y009301D02*
X006598Y009000D01*
X006720Y009000D02*
X006720Y009151D01*
X006770Y009201D01*
X006870Y009201D01*
X006870Y009101D02*
X006720Y009101D01*
X006720Y009000D02*
X006870Y009000D01*
X006920Y009050D01*
X006870Y009101D01*
X007035Y009000D02*
X007135Y009000D01*
X007085Y009000D02*
X007085Y009301D01*
X007135Y009301D01*
X006947Y009525D02*
X006947Y009726D01*
X006947Y009626D02*
X006847Y009726D01*
X006797Y009726D01*
X006678Y009726D02*
X006628Y009726D01*
X006548Y009201D02*
X006448Y009201D01*
X006397Y009151D01*
X006397Y009000D01*
X006225Y009050D02*
X006175Y009000D01*
X006225Y009050D02*
X006225Y009251D01*
X006275Y009201D02*
X006175Y009201D01*
X006061Y009201D02*
X006010Y009201D01*
X006010Y009000D01*
X005960Y009000D02*
X006061Y009000D01*
X006010Y009301D02*
X006010Y009351D01*
X006548Y009201D02*
X006598Y009151D01*
D11*
X010044Y002817D02*
X010046Y002831D01*
X010052Y002845D01*
X010060Y002857D01*
X010072Y002865D01*
X010086Y002871D01*
X010100Y002873D01*
X010114Y002871D01*
X010128Y002865D01*
X010140Y002857D01*
X010148Y002845D01*
X010154Y002831D01*
X010156Y002817D01*
X010154Y002803D01*
X010148Y002789D01*
X010140Y002777D01*
X010128Y002769D01*
X010114Y002763D01*
X010100Y002761D01*
X010086Y002763D01*
X010072Y002769D01*
X010060Y002777D01*
X010052Y002789D01*
X010046Y002803D01*
X010044Y002817D01*
D12*
X010727Y004105D02*
X010671Y004161D01*
X010671Y004272D01*
X010782Y004272D01*
X010671Y004384D02*
X010727Y004439D01*
X010838Y004439D01*
X010894Y004384D01*
X010894Y004161D01*
X010838Y004105D01*
X010727Y004105D01*
X011033Y004105D02*
X011145Y004217D01*
X011089Y004217D02*
X011256Y004217D01*
X011256Y004105D02*
X011256Y004439D01*
X011089Y004439D01*
X011033Y004384D01*
X011033Y004272D01*
X011089Y004217D01*
X011396Y004272D02*
X011452Y004217D01*
X011619Y004217D01*
X011619Y004105D02*
X011619Y004439D01*
X011452Y004439D01*
X011396Y004384D01*
X011396Y004272D01*
D13*
X009516Y002051D02*
X009618Y001949D01*
X009497Y001801D01*
X009527Y001741D01*
X009548Y001677D01*
X009739Y001657D01*
X009739Y001513D01*
X009548Y001494D01*
X009527Y001430D01*
X009497Y001370D01*
X009618Y001222D01*
X009516Y001120D01*
X009368Y001241D01*
X009308Y001210D01*
X009223Y001415D01*
X009261Y001436D01*
X009293Y001466D01*
X009317Y001502D01*
X009332Y001542D01*
X009337Y001585D01*
X009332Y001629D01*
X009316Y001671D01*
X009291Y001707D01*
X009258Y001737D01*
X009219Y001757D01*
X009176Y001768D01*
X009132Y001769D01*
X009089Y001759D01*
X009050Y001739D01*
X009016Y001710D01*
X008991Y001674D01*
X008974Y001633D01*
X008968Y001589D01*
X008972Y001545D01*
X008987Y001504D01*
X009011Y001467D01*
X009043Y001437D01*
X009082Y001415D01*
X008997Y001210D01*
X008937Y001241D01*
X008789Y001120D01*
X008687Y001222D01*
X008808Y001370D01*
X008777Y001430D01*
X008757Y001494D01*
X008566Y001513D01*
X008566Y001657D01*
X008757Y001677D01*
X008777Y001741D01*
X008808Y001801D01*
X008687Y001949D01*
X008789Y002051D01*
X008937Y001930D01*
X008997Y001961D01*
X009061Y001981D01*
X009080Y002172D01*
X009224Y002172D01*
X009244Y001981D01*
X009308Y001961D01*
X009368Y001930D01*
X009516Y002051D01*
X009572Y001995D02*
X009447Y001995D01*
X009376Y001937D02*
X009608Y001937D01*
X009561Y001879D02*
X008744Y001879D01*
X008791Y001822D02*
X009514Y001822D01*
X009515Y001764D02*
X009192Y001764D01*
X009113Y001764D02*
X008789Y001764D01*
X008766Y001707D02*
X009014Y001707D01*
X008981Y001649D02*
X008566Y001649D01*
X008566Y001592D02*
X008968Y001592D01*
X008976Y001534D02*
X008566Y001534D01*
X008762Y001477D02*
X009005Y001477D01*
X009075Y001419D02*
X008783Y001419D01*
X008801Y001361D02*
X009060Y001361D01*
X009036Y001304D02*
X008754Y001304D01*
X008707Y001246D02*
X009012Y001246D01*
X008873Y001189D02*
X008720Y001189D01*
X008778Y001131D02*
X008802Y001131D01*
X009269Y001304D02*
X009551Y001304D01*
X009598Y001246D02*
X009293Y001246D01*
X009245Y001361D02*
X009504Y001361D01*
X009522Y001419D02*
X009230Y001419D01*
X009300Y001477D02*
X009542Y001477D01*
X009739Y001534D02*
X009329Y001534D01*
X009336Y001592D02*
X009739Y001592D01*
X009739Y001649D02*
X009324Y001649D01*
X009291Y001707D02*
X009538Y001707D01*
X009354Y001937D02*
X008951Y001937D01*
X008928Y001937D02*
X008697Y001937D01*
X008733Y001995D02*
X008858Y001995D01*
X009062Y001995D02*
X009242Y001995D01*
X009236Y002052D02*
X009068Y002052D01*
X009074Y002110D02*
X009231Y002110D01*
X009225Y002167D02*
X009080Y002167D01*
X009432Y001189D02*
X009585Y001189D01*
X009527Y001131D02*
X009502Y001131D01*
M02*
