G75*
%MOIN*%
%OFA0B0*%
%FSLAX24Y24*%
%IPPOS*%
%LPD*%
%AMOC8*
5,1,8,0,0,1.08239X$1,22.5*
%
%ADD10R,0.0240X0.0870*%
%ADD11R,0.0433X0.0394*%
%ADD12R,0.0394X0.0433*%
%ADD13R,0.0787X0.0709*%
%ADD14C,0.0703*%
%ADD15C,0.2000*%
%ADD16R,0.0600X0.0600*%
%ADD17OC8,0.0600*%
%ADD18C,0.0060*%
%ADD19C,0.0238*%
%ADD20C,0.0120*%
%ADD21C,0.0160*%
%ADD22C,0.0080*%
D10*
X009936Y004901D03*
X010436Y004901D03*
X010936Y004901D03*
X011436Y004901D03*
X011436Y007551D03*
X010936Y007551D03*
X010436Y007551D03*
X009936Y007551D03*
D11*
X009347Y005818D03*
X009347Y005148D03*
X009564Y000869D03*
X010233Y000869D03*
X011372Y010761D03*
X011372Y011430D03*
D12*
X011237Y009696D03*
X011237Y009089D03*
X011237Y008483D03*
X010568Y008483D03*
X010568Y009089D03*
X010568Y009696D03*
X009347Y007533D03*
X009347Y006864D03*
D13*
X009584Y003727D03*
X011237Y003727D03*
X011237Y001727D03*
X009584Y001727D03*
D14*
X007096Y004475D03*
X007096Y005377D03*
X007096Y006278D03*
X007096Y007180D03*
X007096Y008081D03*
X008096Y008530D03*
X008096Y007629D03*
X008096Y006727D03*
X008096Y005825D03*
X008096Y004924D03*
X006096Y004924D03*
X006096Y005825D03*
X006096Y006727D03*
X006096Y007629D03*
X006096Y008530D03*
D15*
X007096Y011546D03*
X007096Y001703D03*
D16*
X009584Y012231D03*
D17*
X009584Y011231D03*
X009584Y010231D03*
D18*
X008732Y009696D02*
X008632Y009596D01*
X008632Y006827D01*
X008532Y006727D01*
X008096Y006727D01*
X008832Y005925D02*
X008732Y005825D01*
X008096Y005825D01*
X008832Y005925D02*
X008832Y008989D01*
X008932Y009089D01*
X010568Y009089D01*
X010568Y008483D02*
X009112Y008483D01*
X009012Y008383D01*
X009012Y005024D01*
X008912Y004924D01*
X008096Y004924D01*
X008632Y004285D02*
X008532Y004185D01*
X008312Y003965D01*
X005652Y003965D01*
X005552Y004065D01*
X005552Y006627D01*
X005652Y006727D01*
X006096Y006727D01*
X006096Y007629D02*
X005652Y007629D01*
X005552Y007729D01*
X005552Y008985D01*
X005652Y009085D01*
X006984Y009085D01*
X008634Y010735D01*
X010802Y010735D01*
X010902Y010635D01*
X010902Y008255D01*
X010802Y008155D01*
X010536Y008155D01*
X010436Y008055D01*
X010436Y007551D01*
X010432Y007547D01*
X010432Y006955D01*
X010932Y006955D02*
X010932Y007555D01*
X010936Y007551D01*
X010932Y007555D02*
X010932Y007855D01*
X011237Y008160D01*
X011237Y008483D01*
X011237Y009089D01*
X011237Y009696D01*
X011362Y010275D02*
X011362Y010751D01*
X011372Y010761D01*
X011372Y011430D02*
X011037Y011765D01*
X010522Y011765D01*
X010568Y009696D02*
X008732Y009696D01*
X010436Y007551D02*
X010434Y007550D01*
X010433Y007549D01*
X010432Y007547D01*
X010932Y006955D02*
X011782Y006105D01*
X011782Y003285D01*
X011682Y003185D01*
X010682Y003185D01*
X010336Y003727D02*
X010436Y003827D01*
X010436Y004901D01*
X010017Y004820D02*
X010017Y004656D01*
X009447Y004656D01*
X009347Y004756D01*
X009347Y005148D01*
X009936Y004901D02*
X010017Y004820D01*
X009936Y004901D02*
X009936Y005929D01*
X010072Y006065D01*
X010292Y005505D02*
X010836Y005505D01*
X010936Y005405D01*
X010936Y004901D01*
X011436Y004901D02*
X011436Y005625D01*
X011336Y005725D01*
X011082Y005725D01*
X010292Y005505D02*
X010192Y005405D01*
X010192Y004385D01*
X010092Y004285D01*
X008632Y004285D01*
X009584Y003727D02*
X010336Y003727D01*
X011237Y003727D02*
X011263Y003729D01*
X011289Y003734D01*
X011313Y003742D01*
X011337Y003754D01*
X011358Y003768D01*
X011378Y003785D01*
X011395Y003805D01*
X011409Y003826D01*
X011421Y003850D01*
X011429Y003874D01*
X011434Y003900D01*
X011436Y003926D01*
X009584Y001727D02*
X009576Y001725D01*
X009570Y001721D01*
X009566Y001715D01*
X009564Y001707D01*
X009564Y000869D01*
X011432Y006915D02*
X011434Y006916D01*
X011435Y006917D01*
X011436Y006919D01*
X011436Y007551D01*
D19*
X011432Y006915D03*
X011162Y006285D03*
X011082Y005725D03*
X010072Y006065D03*
X009342Y006295D03*
X010432Y006955D03*
X009382Y008215D03*
X009382Y008795D03*
X009382Y009385D03*
X008082Y009455D03*
X010522Y011765D03*
X011362Y010275D03*
X007822Y004305D03*
X006412Y004315D03*
X008182Y002565D03*
X009392Y003055D03*
X010682Y003185D03*
X011392Y002695D03*
X010232Y001725D03*
D20*
X005510Y000825D02*
X005515Y000770D01*
X005557Y000668D01*
X005635Y000591D01*
X005737Y000548D01*
X005792Y000543D01*
X009840Y000543D01*
X009833Y000555D01*
X009830Y000552D01*
X009298Y000552D01*
X009227Y000622D01*
X009227Y001115D01*
X009298Y001186D01*
X009414Y001186D01*
X009414Y001253D01*
X009140Y001253D01*
X009070Y001323D01*
X009070Y002131D01*
X009140Y002201D01*
X010027Y002201D01*
X010066Y002162D01*
X010052Y002198D01*
X010052Y002362D01*
X010115Y002515D01*
X010231Y002631D01*
X010384Y002694D01*
X010548Y002694D01*
X010701Y002631D01*
X010817Y002515D01*
X010880Y002362D01*
X010880Y002201D01*
X011681Y002201D01*
X011751Y002131D01*
X011751Y001323D01*
X011681Y001253D01*
X010794Y001253D01*
X010724Y001323D01*
X010724Y001951D01*
X010701Y001929D01*
X010548Y001866D01*
X010430Y001866D01*
X010435Y001861D01*
X010471Y001773D01*
X010471Y001678D01*
X010435Y001590D01*
X010368Y001523D01*
X010280Y001486D01*
X010185Y001486D01*
X010097Y001523D01*
X010097Y001323D01*
X010057Y001283D01*
X010195Y001283D01*
X010195Y000907D01*
X010272Y000907D01*
X010667Y000907D01*
X010667Y001094D01*
X010653Y001150D01*
X010624Y001199D01*
X010583Y001240D01*
X010534Y001268D01*
X010478Y001283D01*
X010272Y001283D01*
X010272Y000907D01*
X010272Y000830D01*
X010667Y000830D01*
X010667Y000643D01*
X010653Y000588D01*
X010626Y000543D01*
X011485Y000543D01*
X011539Y000548D01*
X011641Y000591D01*
X011718Y000669D01*
X011760Y000770D01*
X011765Y000825D01*
X011765Y000825D01*
X011765Y000915D01*
X011765Y000915D01*
X011765Y003056D01*
X011744Y003035D01*
X010870Y003035D01*
X010818Y002983D01*
X010730Y002946D01*
X010635Y002946D01*
X010547Y002983D01*
X010480Y003050D01*
X010443Y003138D01*
X010443Y003233D01*
X010480Y003321D01*
X010547Y003388D01*
X010626Y003421D01*
X010626Y003667D01*
X011177Y003667D01*
X011177Y003787D01*
X010626Y003787D01*
X010626Y004110D01*
X010641Y004165D01*
X010670Y004215D01*
X010710Y004255D01*
X010760Y004284D01*
X010815Y004299D01*
X011176Y004299D01*
X011142Y004332D01*
X011124Y004364D01*
X011106Y004346D01*
X010766Y004346D01*
X010696Y004416D01*
X010696Y005355D01*
X010676Y005355D01*
X010676Y004416D01*
X010606Y004346D01*
X010586Y004346D01*
X010586Y003765D01*
X010498Y003677D01*
X010398Y003577D01*
X010097Y003577D01*
X010097Y003323D01*
X010027Y003253D01*
X009140Y003253D01*
X009070Y003323D01*
X009070Y004131D01*
X009074Y004135D01*
X008694Y004135D01*
X008594Y004035D01*
X008594Y004035D01*
X008462Y003903D01*
X008374Y003815D01*
X005590Y003815D01*
X005510Y003896D01*
X005510Y000825D01*
X005512Y000799D02*
X006421Y000799D01*
X006408Y000807D02*
X006663Y000660D01*
X006948Y000583D01*
X007243Y000583D01*
X007528Y000660D01*
X007783Y000807D01*
X007992Y001016D01*
X008139Y001271D01*
X008216Y001556D01*
X008216Y001851D01*
X008139Y002136D01*
X007992Y002391D01*
X007783Y002600D01*
X007528Y002747D01*
X007243Y002823D01*
X006948Y002823D01*
X006663Y002747D01*
X006408Y002600D01*
X006199Y002391D01*
X006052Y002136D01*
X005976Y001851D01*
X005976Y001556D01*
X006052Y001271D01*
X006199Y001016D01*
X006408Y000807D01*
X006297Y000918D02*
X005510Y000918D01*
X005510Y001036D02*
X006187Y001036D01*
X006119Y001155D02*
X005510Y001155D01*
X005510Y001273D02*
X006051Y001273D01*
X006019Y001392D02*
X005510Y001392D01*
X005510Y001510D02*
X005988Y001510D01*
X005976Y001629D02*
X005510Y001629D01*
X005510Y001747D02*
X005976Y001747D01*
X005980Y001866D02*
X005510Y001866D01*
X005510Y001984D02*
X006011Y001984D01*
X006043Y002103D02*
X005510Y002103D01*
X005510Y002221D02*
X006101Y002221D01*
X006170Y002340D02*
X005510Y002340D01*
X005510Y002458D02*
X006267Y002458D01*
X006385Y002577D02*
X005510Y002577D01*
X005510Y002695D02*
X006574Y002695D01*
X006913Y002814D02*
X005510Y002814D01*
X005510Y002932D02*
X011765Y002932D01*
X011765Y002814D02*
X007278Y002814D01*
X007617Y002695D02*
X011765Y002695D01*
X011765Y002577D02*
X010755Y002577D01*
X010841Y002458D02*
X011765Y002458D01*
X011765Y002340D02*
X010880Y002340D01*
X010880Y002221D02*
X011765Y002221D01*
X011751Y002103D02*
X011765Y002103D01*
X011751Y001984D02*
X011765Y001984D01*
X011751Y001866D02*
X011765Y001866D01*
X011751Y001747D02*
X011765Y001747D01*
X011751Y001629D02*
X011765Y001629D01*
X011751Y001510D02*
X011765Y001510D01*
X011751Y001392D02*
X011765Y001392D01*
X011765Y001273D02*
X011701Y001273D01*
X011765Y001155D02*
X010649Y001155D01*
X010667Y001036D02*
X011765Y001036D01*
X011765Y000918D02*
X010667Y000918D01*
X010667Y000799D02*
X011762Y000799D01*
X011723Y000681D02*
X010667Y000681D01*
X010638Y000562D02*
X011573Y000562D01*
X010773Y001273D02*
X010514Y001273D01*
X010724Y001392D02*
X010097Y001392D01*
X010097Y001510D02*
X010127Y001510D01*
X010338Y001510D02*
X010724Y001510D01*
X010724Y001629D02*
X010451Y001629D01*
X010471Y001747D02*
X010724Y001747D01*
X010724Y001866D02*
X010549Y001866D01*
X010231Y001727D02*
X009584Y001727D01*
X010052Y002221D02*
X008090Y002221D01*
X008148Y002103D02*
X009070Y002103D01*
X009070Y001984D02*
X008180Y001984D01*
X008211Y001866D02*
X009070Y001866D01*
X009070Y001747D02*
X008216Y001747D01*
X008216Y001629D02*
X009070Y001629D01*
X009070Y001510D02*
X008203Y001510D01*
X008172Y001392D02*
X009070Y001392D01*
X009120Y001273D02*
X008140Y001273D01*
X008072Y001155D02*
X009267Y001155D01*
X009227Y001036D02*
X008004Y001036D01*
X007894Y000918D02*
X009227Y000918D01*
X009227Y000799D02*
X007770Y000799D01*
X007565Y000681D02*
X009227Y000681D01*
X009287Y000562D02*
X005703Y000562D01*
X005552Y000681D02*
X006626Y000681D01*
X008021Y002340D02*
X010052Y002340D01*
X010092Y002458D02*
X007924Y002458D01*
X007806Y002577D02*
X010177Y002577D01*
X010479Y003051D02*
X005510Y003051D01*
X005510Y003169D02*
X010443Y003169D01*
X010466Y003288D02*
X010062Y003288D01*
X010097Y003406D02*
X010591Y003406D01*
X010626Y003525D02*
X010097Y003525D01*
X010465Y003643D02*
X010626Y003643D01*
X010583Y003762D02*
X011177Y003762D01*
X011297Y003762D02*
X011632Y003762D01*
X011632Y003787D02*
X011632Y003667D01*
X011297Y003667D01*
X011297Y003787D01*
X011632Y003787D01*
X011760Y003051D02*
X011765Y003051D01*
X010626Y003880D02*
X010586Y003880D01*
X010586Y003999D02*
X010626Y003999D01*
X010628Y004117D02*
X010586Y004117D01*
X010586Y004236D02*
X010691Y004236D01*
X010758Y004354D02*
X010614Y004354D01*
X010676Y004473D02*
X010696Y004473D01*
X010696Y004591D02*
X010676Y004591D01*
X010676Y004710D02*
X010696Y004710D01*
X010696Y004828D02*
X010676Y004828D01*
X010676Y004947D02*
X010696Y004947D01*
X010696Y005065D02*
X010676Y005065D01*
X010676Y005184D02*
X010696Y005184D01*
X010696Y005302D02*
X010676Y005302D01*
X010998Y005555D02*
X010898Y005655D01*
X010230Y005655D01*
X010142Y005568D01*
X010086Y005511D01*
X010086Y005826D01*
X010120Y005826D01*
X010208Y005863D01*
X010275Y005930D01*
X010311Y006018D01*
X010311Y006096D01*
X010384Y006066D01*
X010548Y006066D01*
X010701Y006129D01*
X010817Y006245D01*
X010880Y006398D01*
X010880Y006562D01*
X010817Y006715D01*
X010701Y006831D01*
X010649Y006853D01*
X010671Y006908D01*
X010671Y007003D01*
X010654Y007044D01*
X010676Y007066D01*
X010676Y008005D01*
X010696Y008005D01*
X010696Y007066D01*
X010766Y006996D01*
X010782Y006996D01*
X010782Y006893D01*
X011632Y006043D01*
X011632Y005541D01*
X011585Y005553D01*
X011436Y005553D01*
X011287Y005553D01*
X011232Y005539D01*
X011183Y005510D01*
X011142Y005469D01*
X011124Y005438D01*
X011106Y005456D01*
X011086Y005456D01*
X011086Y005468D01*
X010998Y005555D01*
X011014Y005539D02*
X011235Y005539D01*
X011436Y005539D02*
X011436Y005539D01*
X011436Y005553D02*
X011436Y004901D01*
X011436Y005553D01*
X011436Y005421D02*
X011436Y005421D01*
X011436Y005302D02*
X011436Y005302D01*
X011436Y005184D02*
X011436Y005184D01*
X011436Y005065D02*
X011436Y005065D01*
X011436Y004947D02*
X011436Y004947D01*
X011436Y004901D02*
X011436Y004901D01*
X011129Y004354D02*
X011114Y004354D01*
X010114Y005539D02*
X010086Y005539D01*
X010086Y005658D02*
X011632Y005658D01*
X011632Y005776D02*
X010086Y005776D01*
X010240Y005895D02*
X011632Y005895D01*
X011632Y006013D02*
X010310Y006013D01*
X010704Y006132D02*
X011544Y006132D01*
X011425Y006250D02*
X010819Y006250D01*
X010869Y006369D02*
X011307Y006369D01*
X011188Y006487D02*
X010880Y006487D01*
X010862Y006606D02*
X011070Y006606D01*
X010951Y006724D02*
X010807Y006724D01*
X010833Y006843D02*
X010672Y006843D01*
X010671Y006961D02*
X010782Y006961D01*
X010696Y007080D02*
X010676Y007080D01*
X010676Y007198D02*
X010696Y007198D01*
X010696Y007317D02*
X010676Y007317D01*
X010676Y007435D02*
X010696Y007435D01*
X010696Y007554D02*
X010676Y007554D01*
X010676Y007672D02*
X010696Y007672D01*
X010696Y007791D02*
X010676Y007791D01*
X010676Y007909D02*
X010696Y007909D01*
X010318Y008150D02*
X010286Y008118D01*
X010286Y008106D01*
X010266Y008106D01*
X010196Y008036D01*
X010196Y007066D01*
X010213Y007050D01*
X010193Y007003D01*
X010193Y006908D01*
X010227Y006827D01*
X010116Y006716D01*
X010116Y007006D01*
X010176Y007066D01*
X010176Y008036D01*
X010106Y008106D01*
X009766Y008106D01*
X009696Y008036D01*
X009696Y007905D01*
X009678Y007924D01*
X009628Y007952D01*
X009573Y007967D01*
X009386Y007967D01*
X009386Y007571D01*
X009309Y007571D01*
X009309Y007967D01*
X009162Y007967D01*
X009162Y008321D01*
X009174Y008333D01*
X010251Y008333D01*
X010251Y008217D01*
X010318Y008150D01*
X010315Y008146D02*
X009162Y008146D01*
X009162Y008028D02*
X009696Y008028D01*
X009692Y007909D02*
X009696Y007909D01*
X009386Y007909D02*
X009309Y007909D01*
X009309Y007791D02*
X009386Y007791D01*
X009386Y007672D02*
X009309Y007672D01*
X009162Y008265D02*
X010251Y008265D01*
X010196Y008028D02*
X010176Y008028D01*
X010176Y007909D02*
X010196Y007909D01*
X010196Y007791D02*
X010176Y007791D01*
X010176Y007672D02*
X010196Y007672D01*
X010196Y007554D02*
X010176Y007554D01*
X010176Y007435D02*
X010196Y007435D01*
X010196Y007317D02*
X010176Y007317D01*
X010176Y007198D02*
X010196Y007198D01*
X010196Y007080D02*
X010176Y007080D01*
X010193Y006961D02*
X010116Y006961D01*
X010116Y006843D02*
X010220Y006843D01*
X010125Y006724D02*
X010116Y006724D01*
X009936Y006395D02*
X009836Y006295D01*
X009347Y006295D01*
X009347Y005818D01*
X009347Y006295D02*
X009342Y006295D01*
X009347Y006295D02*
X009347Y006864D01*
X009936Y006395D02*
X009936Y007551D01*
X010251Y008633D02*
X009050Y008633D01*
X008982Y008565D01*
X008982Y008927D01*
X008994Y008939D01*
X010251Y008939D01*
X010251Y008823D01*
X010288Y008786D01*
X010251Y008749D01*
X010251Y008633D01*
X010251Y008739D02*
X008982Y008739D01*
X008982Y008857D02*
X010251Y008857D01*
X010251Y009239D02*
X008870Y009239D01*
X008782Y009151D01*
X008782Y009533D01*
X008794Y009546D01*
X010251Y009546D01*
X010251Y009429D01*
X010288Y009392D01*
X010251Y009355D01*
X010251Y009239D01*
X010251Y009331D02*
X008782Y009331D01*
X008782Y009213D02*
X008844Y009213D01*
X008782Y009450D02*
X010251Y009450D01*
X011052Y010032D02*
X011052Y010498D01*
X011106Y010444D01*
X011193Y010444D01*
X011160Y010411D01*
X011123Y010323D01*
X011123Y010228D01*
X011160Y010140D01*
X011227Y010073D01*
X011315Y010036D01*
X011410Y010036D01*
X011498Y010073D01*
X011565Y010140D01*
X011601Y010228D01*
X011601Y010323D01*
X011565Y010411D01*
X011532Y010444D01*
X011639Y010444D01*
X011709Y010514D01*
X011709Y011007D01*
X011639Y011078D01*
X011106Y011078D01*
X011036Y011007D01*
X011036Y010714D01*
X010952Y010798D01*
X010864Y010885D01*
X009832Y010885D01*
X010004Y011057D01*
X010004Y011405D01*
X009758Y011651D01*
X009410Y011651D01*
X009164Y011405D01*
X009164Y011057D01*
X009335Y010885D01*
X008572Y010885D01*
X006922Y009235D01*
X005590Y009235D01*
X005510Y009155D01*
X005510Y012422D01*
X005516Y012476D01*
X005558Y012576D01*
X005635Y012652D01*
X005736Y012693D01*
X005790Y012698D01*
X005791Y012698D01*
X005881Y012697D01*
X005881Y012698D01*
X009143Y012698D01*
X009110Y012664D01*
X009081Y012615D01*
X009066Y012560D01*
X009066Y012271D01*
X009544Y012271D01*
X009544Y012191D01*
X009624Y012191D01*
X009624Y012271D01*
X010101Y012271D01*
X010101Y012560D01*
X010086Y012615D01*
X010058Y012664D01*
X010024Y012698D01*
X011396Y012698D01*
X011396Y012697D01*
X011486Y012698D01*
X011487Y012698D01*
X011541Y012693D01*
X011641Y012652D01*
X011717Y012576D01*
X011759Y012477D01*
X011765Y012423D01*
X011765Y006335D01*
X011424Y006676D01*
X011480Y006676D01*
X011568Y006713D01*
X011635Y006780D01*
X011671Y006868D01*
X011671Y006963D01*
X011643Y007033D01*
X011676Y007066D01*
X011676Y008036D01*
X011606Y008106D01*
X011387Y008106D01*
X011387Y008146D01*
X011484Y008146D01*
X011554Y008217D01*
X011554Y008749D01*
X011517Y008786D01*
X011554Y008823D01*
X011554Y009355D01*
X011517Y009392D01*
X011554Y009429D01*
X011554Y009962D01*
X011484Y010032D01*
X011052Y010032D01*
X011052Y010042D02*
X011300Y010042D01*
X011425Y010042D02*
X011765Y010042D01*
X011765Y009924D02*
X011554Y009924D01*
X011554Y009805D02*
X011765Y009805D01*
X011765Y009687D02*
X011554Y009687D01*
X011554Y009568D02*
X011765Y009568D01*
X011765Y009450D02*
X011554Y009450D01*
X011554Y009331D02*
X011765Y009331D01*
X011765Y009213D02*
X011554Y009213D01*
X011554Y009094D02*
X011765Y009094D01*
X011765Y008976D02*
X011554Y008976D01*
X011554Y008857D02*
X011765Y008857D01*
X011765Y008739D02*
X011554Y008739D01*
X011554Y008620D02*
X011765Y008620D01*
X011765Y008502D02*
X011554Y008502D01*
X011554Y008383D02*
X011765Y008383D01*
X011765Y008265D02*
X011554Y008265D01*
X011484Y008146D02*
X011765Y008146D01*
X011765Y008028D02*
X011676Y008028D01*
X011676Y007909D02*
X011765Y007909D01*
X011765Y007791D02*
X011676Y007791D01*
X011676Y007672D02*
X011765Y007672D01*
X011765Y007554D02*
X011676Y007554D01*
X011676Y007435D02*
X011765Y007435D01*
X011765Y007317D02*
X011676Y007317D01*
X011676Y007198D02*
X011765Y007198D01*
X011765Y007080D02*
X011676Y007080D01*
X011671Y006961D02*
X011765Y006961D01*
X011765Y006843D02*
X011661Y006843D01*
X011579Y006724D02*
X011765Y006724D01*
X011765Y006606D02*
X011494Y006606D01*
X011612Y006487D02*
X011765Y006487D01*
X011765Y006369D02*
X011731Y006369D01*
X009696Y004506D02*
X009696Y004435D01*
X008570Y004435D01*
X008382Y004248D01*
X008382Y004248D01*
X008250Y004115D01*
X007537Y004115D01*
X007582Y004177D01*
X007623Y004257D01*
X007650Y004342D01*
X007662Y004418D01*
X007153Y004418D01*
X007153Y004532D01*
X007662Y004532D01*
X007650Y004608D01*
X007623Y004693D01*
X007582Y004773D01*
X007529Y004846D01*
X007466Y004909D01*
X007443Y004926D01*
X007466Y004943D01*
X007529Y005006D01*
X007582Y005078D01*
X007623Y005158D01*
X007650Y005243D01*
X007662Y005319D01*
X007153Y005319D01*
X007153Y005434D01*
X007662Y005434D01*
X007650Y005510D01*
X007623Y005595D01*
X007582Y005675D01*
X007529Y005747D01*
X007466Y005811D01*
X007443Y005827D01*
X007466Y005844D01*
X007529Y005908D01*
X007582Y005980D01*
X007623Y006060D01*
X007650Y006145D01*
X007662Y006221D01*
X007153Y006221D01*
X007153Y006335D01*
X007662Y006335D01*
X007650Y006411D01*
X007623Y006497D01*
X007582Y006576D01*
X007529Y006649D01*
X007466Y006712D01*
X007394Y006765D01*
X007363Y006780D01*
X007495Y006913D01*
X007567Y007086D01*
X007567Y007274D01*
X007495Y007447D01*
X007363Y007579D01*
X007394Y007595D01*
X007466Y007647D01*
X007529Y007711D01*
X007582Y007783D01*
X007623Y007863D01*
X007650Y007948D01*
X007662Y008024D01*
X007153Y008024D01*
X007153Y008138D01*
X007662Y008138D01*
X007658Y008164D01*
X007662Y008160D01*
X007725Y008096D01*
X007797Y008044D01*
X007828Y008028D01*
X007153Y008028D01*
X007153Y008138D02*
X007038Y008138D01*
X007038Y008024D01*
X006529Y008024D01*
X006541Y007948D01*
X006568Y007863D01*
X006609Y007783D01*
X006662Y007711D01*
X006725Y007647D01*
X006797Y007595D01*
X006828Y007579D01*
X006696Y007447D01*
X006624Y007274D01*
X006624Y007086D01*
X006696Y006913D01*
X006828Y006780D01*
X006797Y006765D01*
X006725Y006712D01*
X006662Y006649D01*
X006609Y006576D01*
X006568Y006497D01*
X006541Y006411D01*
X006529Y006335D01*
X007038Y006335D01*
X007038Y006221D01*
X006529Y006221D01*
X006541Y006145D01*
X006568Y006060D01*
X006609Y005980D01*
X006662Y005908D01*
X006725Y005844D01*
X006748Y005827D01*
X006725Y005811D01*
X006662Y005747D01*
X006609Y005675D01*
X006568Y005595D01*
X006541Y005510D01*
X006529Y005434D01*
X007038Y005434D01*
X007038Y005319D01*
X007153Y005319D01*
X007153Y004532D01*
X007038Y004532D01*
X007038Y004418D01*
X006529Y004418D01*
X006541Y004342D01*
X006568Y004257D01*
X006609Y004177D01*
X006654Y004115D01*
X005714Y004115D01*
X005702Y004128D01*
X005702Y004650D01*
X005828Y004524D01*
X006002Y004452D01*
X006189Y004452D01*
X006363Y004524D01*
X006495Y004657D01*
X006567Y004830D01*
X006567Y005018D01*
X006495Y005191D01*
X006363Y005323D01*
X006239Y005375D01*
X006363Y005426D01*
X006495Y005558D01*
X006567Y005732D01*
X006567Y005919D01*
X006495Y006092D01*
X006363Y006225D01*
X006239Y006276D01*
X006363Y006327D01*
X006495Y006460D01*
X006567Y006633D01*
X006567Y006821D01*
X006495Y006994D01*
X006363Y007127D01*
X006239Y007178D01*
X006363Y007229D01*
X006495Y007362D01*
X006567Y007535D01*
X006567Y007722D01*
X006495Y007896D01*
X006363Y008028D01*
X007038Y008028D01*
X007038Y008138D02*
X006529Y008138D01*
X006541Y008215D01*
X006568Y008300D01*
X006609Y008379D01*
X006662Y008452D01*
X006725Y008515D01*
X006797Y008568D01*
X006877Y008609D01*
X006962Y008636D01*
X007038Y008648D01*
X007038Y008138D01*
X007038Y008146D02*
X007153Y008146D01*
X007153Y008138D02*
X007153Y008648D01*
X007229Y008636D01*
X007314Y008609D01*
X007394Y008568D01*
X007466Y008515D01*
X007529Y008452D01*
X007533Y008447D01*
X007529Y008473D01*
X008038Y008473D01*
X008038Y008587D01*
X007529Y008587D01*
X007541Y008663D01*
X007568Y008749D01*
X007609Y008828D01*
X007662Y008901D01*
X007725Y008964D01*
X007797Y009017D01*
X007877Y009057D01*
X007962Y009085D01*
X008038Y009097D01*
X008038Y008587D01*
X008153Y008587D01*
X008153Y009097D01*
X008229Y009085D01*
X008314Y009057D01*
X008394Y009017D01*
X008466Y008964D01*
X008482Y008948D01*
X008482Y009658D01*
X008570Y009746D01*
X008670Y009846D01*
X009375Y009846D01*
X009164Y010057D01*
X009164Y010405D01*
X009344Y010585D01*
X008696Y010585D01*
X007134Y009023D01*
X007046Y008935D01*
X006349Y008935D01*
X006363Y008930D01*
X006495Y008797D01*
X006567Y008624D01*
X006567Y008436D01*
X006495Y008263D01*
X006363Y008131D01*
X006239Y008079D01*
X006363Y008028D01*
X006378Y008146D02*
X006530Y008146D01*
X006557Y008265D02*
X006496Y008265D01*
X006545Y008383D02*
X006612Y008383D01*
X006567Y008502D02*
X006712Y008502D01*
X006567Y008620D02*
X006914Y008620D01*
X007038Y008620D02*
X007153Y008620D01*
X007153Y008502D02*
X007038Y008502D01*
X007038Y008383D02*
X007153Y008383D01*
X007153Y008265D02*
X007038Y008265D01*
X007277Y008620D02*
X007534Y008620D01*
X007565Y008739D02*
X006519Y008739D01*
X006435Y008857D02*
X007630Y008857D01*
X007741Y008976D02*
X007087Y008976D01*
X007205Y009094D02*
X008022Y009094D01*
X008038Y009094D02*
X008153Y009094D01*
X008169Y009094D02*
X008482Y009094D01*
X008482Y008976D02*
X008450Y008976D01*
X008482Y009213D02*
X007324Y009213D01*
X007442Y009331D02*
X008482Y009331D01*
X008482Y009450D02*
X007561Y009450D01*
X007679Y009568D02*
X008482Y009568D01*
X008512Y009687D02*
X007798Y009687D01*
X007916Y009805D02*
X008630Y009805D01*
X008272Y010161D02*
X009164Y010161D01*
X009164Y010279D02*
X008390Y010279D01*
X008509Y010398D02*
X009164Y010398D01*
X009275Y010516D02*
X008627Y010516D01*
X008440Y010753D02*
X007887Y010753D01*
X007783Y010650D02*
X007992Y010858D01*
X008139Y011114D01*
X008216Y011398D01*
X008216Y011693D01*
X008139Y011978D01*
X007992Y012234D01*
X007783Y012442D01*
X007528Y012590D01*
X007243Y012666D01*
X006948Y012666D01*
X006663Y012590D01*
X006408Y012442D01*
X006199Y012234D01*
X006052Y011978D01*
X005976Y011693D01*
X005976Y011398D01*
X006052Y011114D01*
X006199Y010858D01*
X006408Y010650D01*
X006663Y010502D01*
X006948Y010426D01*
X007243Y010426D01*
X007528Y010502D01*
X007783Y010650D01*
X007758Y010635D02*
X008321Y010635D01*
X008203Y010516D02*
X007552Y010516D01*
X007847Y010161D02*
X005510Y010161D01*
X005510Y010279D02*
X007966Y010279D01*
X008084Y010398D02*
X005510Y010398D01*
X005510Y010516D02*
X006639Y010516D01*
X006433Y010635D02*
X005510Y010635D01*
X005510Y010753D02*
X006304Y010753D01*
X006191Y010872D02*
X005510Y010872D01*
X005510Y010990D02*
X006123Y010990D01*
X006055Y011109D02*
X005510Y011109D01*
X005510Y011227D02*
X006021Y011227D01*
X005990Y011346D02*
X005510Y011346D01*
X005510Y011464D02*
X005976Y011464D01*
X005976Y011583D02*
X005510Y011583D01*
X005510Y011701D02*
X005978Y011701D01*
X006009Y011820D02*
X005510Y011820D01*
X005510Y011938D02*
X006041Y011938D01*
X006097Y012057D02*
X005510Y012057D01*
X005510Y012175D02*
X006166Y012175D01*
X006260Y012294D02*
X005510Y012294D01*
X005510Y012412D02*
X006378Y012412D01*
X006562Y012531D02*
X005539Y012531D01*
X005633Y012649D02*
X006887Y012649D01*
X007304Y012649D02*
X009101Y012649D01*
X009066Y012531D02*
X007629Y012531D01*
X007813Y012412D02*
X009066Y012412D01*
X009066Y012294D02*
X007931Y012294D01*
X008025Y012175D02*
X009066Y012175D01*
X009066Y012191D02*
X009066Y011902D01*
X009081Y011847D01*
X009110Y011797D01*
X009150Y011757D01*
X009200Y011728D01*
X009255Y011713D01*
X009544Y011713D01*
X009544Y012191D01*
X009066Y012191D01*
X009066Y012057D02*
X008094Y012057D01*
X008150Y011938D02*
X009066Y011938D01*
X009097Y011820D02*
X008182Y011820D01*
X008213Y011701D02*
X010290Y011701D01*
X010283Y011718D02*
X010320Y011630D01*
X010387Y011563D01*
X010475Y011526D01*
X010570Y011526D01*
X010658Y011563D01*
X010710Y011615D01*
X010975Y011615D01*
X011036Y011554D01*
X011036Y011184D01*
X011106Y011113D01*
X011639Y011113D01*
X011709Y011184D01*
X011709Y011677D01*
X011639Y011747D01*
X011268Y011747D01*
X011099Y011915D01*
X010710Y011915D01*
X010658Y011968D01*
X010570Y012004D01*
X010475Y012004D01*
X010387Y011968D01*
X010320Y011901D01*
X010283Y011813D01*
X010283Y011718D01*
X010286Y011820D02*
X010071Y011820D01*
X010058Y011797D02*
X010086Y011847D01*
X010101Y011902D01*
X010101Y012191D01*
X009624Y012191D01*
X009624Y011713D01*
X009912Y011713D01*
X009968Y011728D01*
X010017Y011757D01*
X010058Y011797D01*
X010101Y011938D02*
X010357Y011938D01*
X010101Y012057D02*
X011765Y012057D01*
X011765Y012175D02*
X010101Y012175D01*
X010101Y012294D02*
X011765Y012294D01*
X011765Y012412D02*
X010101Y012412D01*
X010101Y012531D02*
X011736Y012531D01*
X011643Y012649D02*
X010066Y012649D01*
X009624Y012175D02*
X009544Y012175D01*
X009544Y012057D02*
X009624Y012057D01*
X009624Y011938D02*
X009544Y011938D01*
X009544Y011820D02*
X009624Y011820D01*
X009826Y011583D02*
X010367Y011583D01*
X010678Y011583D02*
X011007Y011583D01*
X011036Y011464D02*
X009944Y011464D01*
X010004Y011346D02*
X011036Y011346D01*
X011036Y011227D02*
X010004Y011227D01*
X010004Y011109D02*
X011765Y011109D01*
X011765Y011227D02*
X011709Y011227D01*
X011709Y011346D02*
X011765Y011346D01*
X011765Y011464D02*
X011709Y011464D01*
X011709Y011583D02*
X011765Y011583D01*
X011765Y011701D02*
X011684Y011701D01*
X011765Y011820D02*
X011195Y011820D01*
X010687Y011938D02*
X011765Y011938D01*
X011765Y010990D02*
X011709Y010990D01*
X011709Y010872D02*
X011765Y010872D01*
X011765Y010753D02*
X011709Y010753D01*
X011709Y010635D02*
X011765Y010635D01*
X011765Y010516D02*
X011709Y010516D01*
X011765Y010398D02*
X011570Y010398D01*
X011601Y010279D02*
X011765Y010279D01*
X011765Y010161D02*
X011574Y010161D01*
X011151Y010161D02*
X011052Y010161D01*
X011052Y010279D02*
X011123Y010279D01*
X011154Y010398D02*
X011052Y010398D01*
X011036Y010753D02*
X010996Y010753D01*
X011036Y010872D02*
X010878Y010872D01*
X011036Y010990D02*
X009937Y010990D01*
X009342Y011583D02*
X008216Y011583D01*
X008216Y011464D02*
X009223Y011464D01*
X009164Y011346D02*
X008201Y011346D01*
X008170Y011227D02*
X009164Y011227D01*
X009164Y011109D02*
X008137Y011109D01*
X008068Y010990D02*
X009230Y010990D01*
X008558Y010872D02*
X008000Y010872D01*
X008153Y010042D02*
X009178Y010042D01*
X009297Y009924D02*
X008035Y009924D01*
X007729Y010042D02*
X005510Y010042D01*
X005510Y009924D02*
X007610Y009924D01*
X007492Y009805D02*
X005510Y009805D01*
X005510Y009687D02*
X007373Y009687D01*
X007255Y009568D02*
X005510Y009568D01*
X005510Y009450D02*
X007136Y009450D01*
X007018Y009331D02*
X005510Y009331D01*
X005510Y009213D02*
X005568Y009213D01*
X006481Y007909D02*
X006553Y007909D01*
X006538Y007791D02*
X006605Y007791D01*
X006567Y007672D02*
X006700Y007672D01*
X006803Y007554D02*
X006567Y007554D01*
X006526Y007435D02*
X006691Y007435D01*
X006642Y007317D02*
X006451Y007317D01*
X006289Y007198D02*
X006624Y007198D01*
X006627Y007080D02*
X006409Y007080D01*
X006509Y006961D02*
X006676Y006961D01*
X006766Y006843D02*
X006558Y006843D01*
X006567Y006724D02*
X006742Y006724D01*
X006630Y006606D02*
X006556Y006606D01*
X006565Y006487D02*
X006506Y006487D01*
X006534Y006369D02*
X006404Y006369D01*
X006301Y006250D02*
X007038Y006250D01*
X007038Y006221D02*
X007153Y006221D01*
X007153Y005711D01*
X007153Y005434D01*
X007038Y005434D01*
X007038Y006221D01*
X007038Y006132D02*
X007153Y006132D01*
X007153Y006250D02*
X007890Y006250D01*
X007828Y006225D02*
X007696Y006092D01*
X007624Y005919D01*
X007624Y005732D01*
X007696Y005558D01*
X007828Y005426D01*
X007952Y005375D01*
X007828Y005323D01*
X007696Y005191D01*
X007624Y005018D01*
X007624Y004830D01*
X007696Y004657D01*
X007828Y004524D01*
X008002Y004452D01*
X008189Y004452D01*
X008363Y004524D01*
X008495Y004657D01*
X008544Y004774D01*
X008974Y004774D01*
X009057Y004856D01*
X009081Y004831D01*
X009197Y004831D01*
X009197Y004694D01*
X009297Y004594D01*
X009385Y004506D01*
X009696Y004506D01*
X009696Y004473D02*
X008239Y004473D01*
X008430Y004591D02*
X009300Y004591D01*
X009197Y004710D02*
X008517Y004710D01*
X008489Y004354D02*
X007652Y004354D01*
X007612Y004236D02*
X008371Y004236D01*
X008252Y004117D02*
X007539Y004117D01*
X007153Y004473D02*
X007952Y004473D01*
X007761Y004591D02*
X007653Y004591D01*
X007674Y004710D02*
X007614Y004710D01*
X007625Y004828D02*
X007542Y004828D01*
X007470Y004947D02*
X007624Y004947D01*
X007644Y005065D02*
X007573Y005065D01*
X007631Y005184D02*
X007693Y005184D01*
X007660Y005302D02*
X007807Y005302D01*
X007840Y005421D02*
X007153Y005421D01*
X007038Y005421D02*
X006351Y005421D01*
X006384Y005302D02*
X006531Y005302D01*
X006529Y005319D02*
X006541Y005243D01*
X006568Y005158D01*
X006609Y005078D01*
X006662Y005006D01*
X006725Y004943D01*
X006748Y004926D01*
X006725Y004909D01*
X006662Y004846D01*
X006609Y004773D01*
X006568Y004693D01*
X006541Y004608D01*
X006529Y004532D01*
X007038Y004532D01*
X007038Y005042D01*
X007038Y005319D01*
X006529Y005319D01*
X006498Y005184D02*
X006560Y005184D01*
X006547Y005065D02*
X006618Y005065D01*
X006567Y004947D02*
X006721Y004947D01*
X006649Y004828D02*
X006566Y004828D01*
X006577Y004710D02*
X006517Y004710D01*
X006538Y004591D02*
X006430Y004591D01*
X006239Y004473D02*
X007038Y004473D01*
X007038Y004591D02*
X007153Y004591D01*
X007153Y004710D02*
X007038Y004710D01*
X007038Y004828D02*
X007153Y004828D01*
X007153Y004947D02*
X007038Y004947D01*
X007038Y005065D02*
X007153Y005065D01*
X007153Y005184D02*
X007038Y005184D01*
X007038Y005302D02*
X007153Y005302D01*
X007153Y005539D02*
X007038Y005539D01*
X007038Y005658D02*
X007153Y005658D01*
X007153Y005776D02*
X007038Y005776D01*
X007038Y005895D02*
X007153Y005895D01*
X007153Y006013D02*
X007038Y006013D01*
X006674Y005895D02*
X006567Y005895D01*
X006567Y005776D02*
X006691Y005776D01*
X006600Y005658D02*
X006536Y005658D01*
X006550Y005539D02*
X006476Y005539D01*
X006528Y006013D02*
X006592Y006013D01*
X006545Y006132D02*
X006456Y006132D01*
X007517Y005895D02*
X007624Y005895D01*
X007624Y005776D02*
X007500Y005776D01*
X007591Y005658D02*
X007655Y005658D01*
X007641Y005539D02*
X007715Y005539D01*
X007663Y006013D02*
X007599Y006013D01*
X007646Y006132D02*
X007735Y006132D01*
X007828Y006225D02*
X007952Y006276D01*
X007828Y006327D01*
X007696Y006460D01*
X007624Y006633D01*
X007624Y006821D01*
X007696Y006994D01*
X007828Y007127D01*
X007952Y007178D01*
X007828Y007229D01*
X007696Y007362D01*
X007624Y007535D01*
X007624Y007722D01*
X007696Y007896D01*
X007828Y008028D01*
X007710Y007909D02*
X007638Y007909D01*
X007653Y007791D02*
X007586Y007791D01*
X007624Y007672D02*
X007491Y007672D01*
X007388Y007554D02*
X007624Y007554D01*
X007665Y007435D02*
X007500Y007435D01*
X007549Y007317D02*
X007741Y007317D01*
X007902Y007198D02*
X007567Y007198D01*
X007564Y007080D02*
X007782Y007080D01*
X007682Y006961D02*
X007515Y006961D01*
X007425Y006843D02*
X007633Y006843D01*
X007624Y006724D02*
X007449Y006724D01*
X007561Y006606D02*
X007635Y006606D01*
X007626Y006487D02*
X007685Y006487D01*
X007657Y006369D02*
X007787Y006369D01*
X009029Y004828D02*
X009197Y004828D01*
X009070Y004117D02*
X008677Y004117D01*
X008558Y003999D02*
X009070Y003999D01*
X009070Y003880D02*
X008440Y003880D01*
X009070Y003762D02*
X005510Y003762D01*
X005510Y003880D02*
X005525Y003880D01*
X005510Y003643D02*
X009070Y003643D01*
X009070Y003525D02*
X005510Y003525D01*
X005510Y003406D02*
X009070Y003406D01*
X009105Y003288D02*
X005510Y003288D01*
X005712Y004117D02*
X006652Y004117D01*
X006579Y004236D02*
X005702Y004236D01*
X005702Y004354D02*
X006539Y004354D01*
X005952Y004473D02*
X005702Y004473D01*
X005702Y004591D02*
X005761Y004591D01*
X007661Y008146D02*
X007675Y008146D01*
X007479Y008502D02*
X008038Y008502D01*
X008038Y008620D02*
X008153Y008620D01*
X008153Y008739D02*
X008038Y008739D01*
X008038Y008857D02*
X008153Y008857D01*
X008153Y008976D02*
X008038Y008976D01*
X008982Y008620D02*
X009038Y008620D01*
X010195Y001273D02*
X010272Y001273D01*
X010272Y001155D02*
X010195Y001155D01*
X010195Y001036D02*
X010272Y001036D01*
X010272Y000918D02*
X010195Y000918D01*
D21*
X011237Y003727D02*
X011436Y003727D01*
X011436Y004901D01*
D22*
X010231Y001727D02*
X010232Y001727D01*
X010233Y001726D01*
X010233Y001725D01*
M02*
