%
M48
M72
T01C0.0118
T02C0.0400
T03C0.0469
T04C0.1201
%
T01
X6412Y4315
X7822Y4305
X9392Y3055
X8182Y2565
X10232Y1725
X11392Y2695
X10682Y3185
X11082Y5725
X11162Y6285
X11432Y6915
X10432Y6955
X10072Y6065
X9342Y6295
X9382Y8215
X9382Y8795
X9382Y9385
X8082Y9455
X10522Y11765
X11362Y10275
T02
X9584Y10231
X9584Y11231
X9584Y12231
T03
X6096Y4924
X6096Y5825
X6096Y6727
X6096Y7629
X6096Y8530
X7096Y8081
X7096Y7180
X7096Y6278
X7096Y5377
X7096Y4475
X8096Y4924
X8096Y5825
X8096Y6727
X8096Y7629
X8096Y8530
T04
X7096Y11546
X7096Y1703
M30
