G75*
%MOIN*%
%OFA0B0*%
%FSLAX24Y24*%
%IPPOS*%
%LPD*%
%AMOC8*
5,1,8,0,0,1.08239X$1,22.5*
%
%ADD10C,0.0000*%
D10*
X005292Y000825D02*
X005292Y012424D01*
X005294Y012467D01*
X005300Y012510D01*
X005310Y012552D01*
X005323Y012594D01*
X005340Y012633D01*
X005361Y012672D01*
X005384Y012708D01*
X005411Y012742D01*
X005440Y012774D01*
X005472Y012803D01*
X005507Y012829D01*
X005544Y012852D01*
X005582Y012871D01*
X005622Y012888D01*
X005664Y012900D01*
X005706Y012909D01*
X005749Y012914D01*
X005792Y012916D01*
X005792Y012915D02*
X011485Y012915D01*
X011528Y012913D01*
X011571Y012908D01*
X011613Y012899D01*
X011654Y012886D01*
X011694Y012870D01*
X011733Y012850D01*
X011769Y012827D01*
X011803Y012801D01*
X011835Y012772D01*
X011865Y012741D01*
X011891Y012707D01*
X011914Y012670D01*
X011935Y012632D01*
X011951Y012593D01*
X011964Y012552D01*
X011974Y012509D01*
X011980Y012467D01*
X011982Y012424D01*
X011982Y000825D01*
X011983Y000825D02*
X011981Y000782D01*
X011976Y000739D01*
X011966Y000696D01*
X011953Y000655D01*
X011937Y000614D01*
X011917Y000576D01*
X011894Y000539D01*
X011867Y000504D01*
X011838Y000472D01*
X011806Y000443D01*
X011771Y000416D01*
X011735Y000393D01*
X011696Y000372D01*
X011656Y000356D01*
X011615Y000342D01*
X011572Y000333D01*
X011529Y000327D01*
X011485Y000325D01*
X005792Y000325D01*
X005748Y000327D01*
X005705Y000333D01*
X005663Y000342D01*
X005621Y000355D01*
X005581Y000372D01*
X005542Y000392D01*
X005505Y000415D01*
X005471Y000442D01*
X005438Y000471D01*
X005409Y000504D01*
X005382Y000538D01*
X005359Y000575D01*
X005339Y000614D01*
X005322Y000654D01*
X005309Y000696D01*
X005300Y000738D01*
X005294Y000781D01*
X005292Y000825D01*
X010269Y002280D02*
X010271Y002307D01*
X010277Y002334D01*
X010286Y002360D01*
X010299Y002384D01*
X010315Y002407D01*
X010334Y002426D01*
X010356Y002443D01*
X010380Y002457D01*
X010405Y002467D01*
X010432Y002474D01*
X010459Y002477D01*
X010487Y002476D01*
X010514Y002471D01*
X010540Y002463D01*
X010564Y002451D01*
X010587Y002435D01*
X010608Y002417D01*
X010625Y002396D01*
X010640Y002372D01*
X010651Y002347D01*
X010659Y002321D01*
X010663Y002294D01*
X010663Y002266D01*
X010659Y002239D01*
X010651Y002213D01*
X010640Y002188D01*
X010625Y002164D01*
X010608Y002143D01*
X010587Y002125D01*
X010565Y002109D01*
X010540Y002097D01*
X010514Y002089D01*
X010487Y002084D01*
X010459Y002083D01*
X010432Y002086D01*
X010405Y002093D01*
X010380Y002103D01*
X010356Y002117D01*
X010334Y002134D01*
X010315Y002153D01*
X010299Y002176D01*
X010286Y002200D01*
X010277Y002226D01*
X010271Y002253D01*
X010269Y002280D01*
X010269Y006480D02*
X010271Y006507D01*
X010277Y006534D01*
X010286Y006560D01*
X010299Y006584D01*
X010315Y006607D01*
X010334Y006626D01*
X010356Y006643D01*
X010380Y006657D01*
X010405Y006667D01*
X010432Y006674D01*
X010459Y006677D01*
X010487Y006676D01*
X010514Y006671D01*
X010540Y006663D01*
X010564Y006651D01*
X010587Y006635D01*
X010608Y006617D01*
X010625Y006596D01*
X010640Y006572D01*
X010651Y006547D01*
X010659Y006521D01*
X010663Y006494D01*
X010663Y006466D01*
X010659Y006439D01*
X010651Y006413D01*
X010640Y006388D01*
X010625Y006364D01*
X010608Y006343D01*
X010587Y006325D01*
X010565Y006309D01*
X010540Y006297D01*
X010514Y006289D01*
X010487Y006284D01*
X010459Y006283D01*
X010432Y006286D01*
X010405Y006293D01*
X010380Y006303D01*
X010356Y006317D01*
X010334Y006334D01*
X010315Y006353D01*
X010299Y006376D01*
X010286Y006400D01*
X010277Y006426D01*
X010271Y006453D01*
X010269Y006480D01*
M02*
