%
M48
M72
T01C0.0118
T02C0.0394
T03C0.0400
%
T01
X3680Y7573
X4240Y7573
X4240Y8253
X3680Y8263
X2980Y9693
X3491Y10856
X3970Y10853
X4480Y11103
X5030Y11763
X5538Y11525
X5830Y11793
X6444Y11486
X6950Y11103
X6580Y10853
X5590Y9693
X5066Y9124
X3700Y11493
X4318Y11998
X3480Y12363
X2660Y13143
X1640Y11762
X4420Y13553
X4870Y13443
X5850Y14613
X6250Y15173
X6759Y15266
X7428Y14833
X6872Y14053
X7080Y12353
X6570Y12363
X8030Y12093
X8430Y12303
X8940Y11953
X9270Y11813
X9440Y11553
X9950Y11573
X10452Y11289
X9680Y10863
X9180Y10863
X8640Y11483
X8170Y10863
X9090Y9633
X9080Y8393
X9080Y7873
X9860Y7533
X10420Y8093
X9860Y8393
X10980Y8653
X11719Y11840
X11129Y12588
X10900Y12303
X10030Y13633
X9430Y14133
X9436Y14439
X8980Y13633
X8580Y13643
X8648Y14793
X8300Y15013
X8136Y15777
X4751Y15187
T02
X4834Y6096
X5736Y6096
X6185Y7096
X7086Y7096
X6638Y8096
X7539Y8096
X7988Y7096
X7539Y6096
X6638Y6096
X5283Y7096
X4834Y8096
X5736Y8096
X8441Y8096
X8890Y7096
X8441Y6096
T03
X11074Y9633
X11074Y10633
X2229Y10431
X2229Y9431
X2229Y11431
M30
