G75*
%MOIN*%
%OFA0B0*%
%FSLAX24Y24*%
%IPPOS*%
%LPD*%
%AMOC8*
5,1,8,0,0,1.08239X$1,22.5*
%
%ADD10R,0.0240X0.0870*%
%ADD11R,0.0433X0.0394*%
%ADD12R,0.0394X0.0433*%
%ADD13R,0.0709X0.0787*%
D10*
X002977Y010284D03*
X003477Y010284D03*
X003977Y010284D03*
X004477Y010284D03*
X005575Y010284D03*
X006075Y010284D03*
X006575Y010284D03*
X007075Y010284D03*
X008174Y010284D03*
X008674Y010284D03*
X009174Y010284D03*
X009674Y010284D03*
X009674Y012934D03*
X009174Y012934D03*
X008674Y012934D03*
X008174Y012934D03*
X007075Y012934D03*
X006575Y012934D03*
X006075Y012934D03*
X005575Y012934D03*
X004477Y012934D03*
X003977Y012934D03*
X003477Y012934D03*
X002977Y012934D03*
D11*
X005026Y013041D03*
X005026Y012372D03*
X007625Y012372D03*
X007625Y013041D03*
X010223Y013041D03*
X010223Y012372D03*
X011920Y010168D03*
X011920Y009499D03*
D12*
X003629Y009259D03*
X004298Y009259D03*
X005026Y010088D03*
X005026Y010758D03*
X005991Y009259D03*
X006660Y009259D03*
X007487Y009259D03*
X008156Y009259D03*
X007625Y010088D03*
X007625Y010758D03*
X009093Y009269D03*
X009762Y009269D03*
X010223Y010088D03*
X010223Y010758D03*
X008186Y013828D03*
X008186Y014497D03*
D13*
X007434Y013927D03*
X007434Y015581D03*
X005434Y015581D03*
X005434Y013927D03*
M02*
