G75*
%MOIN*%
%OFA0B0*%
%FSLAX24Y24*%
%IPPOS*%
%LPD*%
%AMOC8*
5,1,8,0,0,1.08239X$1,22.5*
%
%ADD10C,0.0050*%
%ADD11C,0.0120*%
D10*
X003881Y008622D02*
X003981Y008622D01*
X004031Y008672D01*
X003831Y008872D01*
X003831Y008672D01*
X003881Y008622D01*
X004031Y008672D02*
X004031Y008872D01*
X003981Y008922D01*
X003881Y008922D01*
X003831Y008872D01*
X004142Y008672D02*
X004142Y008622D01*
X004192Y008622D01*
X004192Y008672D01*
X004142Y008672D01*
X004314Y008772D02*
X004514Y008772D01*
X004364Y008922D01*
X004364Y008622D01*
X004817Y009283D02*
X004917Y009283D01*
X004867Y009283D02*
X004867Y009484D01*
X004917Y009484D01*
X004867Y009584D02*
X004867Y009634D01*
X005032Y009484D02*
X005132Y009484D01*
X005082Y009534D02*
X005082Y009334D01*
X005032Y009283D01*
X005254Y009283D02*
X005254Y009434D01*
X005304Y009484D01*
X005404Y009484D01*
X005455Y009434D01*
X005577Y009434D02*
X005577Y009283D01*
X005727Y009283D01*
X005777Y009334D01*
X005727Y009384D01*
X005577Y009384D01*
X005577Y009434D02*
X005627Y009484D01*
X005727Y009484D01*
X005942Y009584D02*
X005942Y009283D01*
X005992Y009283D02*
X005892Y009283D01*
X006106Y009283D02*
X006206Y009283D01*
X006156Y009283D02*
X006156Y009484D01*
X006206Y009484D01*
X006156Y009584D02*
X006156Y009634D01*
X005992Y009584D02*
X005942Y009584D01*
X005972Y009808D02*
X005972Y010109D01*
X006072Y010009D01*
X006194Y010059D02*
X006194Y009859D01*
X006244Y009808D01*
X006344Y009808D01*
X006394Y009859D01*
X006194Y010059D01*
X006244Y010109D01*
X006344Y010109D01*
X006394Y010059D01*
X006394Y009859D01*
X006517Y009808D02*
X006717Y009808D01*
X006517Y010009D01*
X006517Y010059D01*
X006567Y010109D01*
X006667Y010109D01*
X006717Y010059D01*
X006639Y010279D02*
X006639Y010480D01*
X006489Y010480D01*
X006439Y010430D01*
X006439Y010279D01*
X006317Y010480D02*
X006217Y010480D01*
X006267Y010530D02*
X006267Y010329D01*
X006217Y010279D01*
X006102Y010329D02*
X006052Y010379D01*
X005902Y010379D01*
X005902Y010430D02*
X005902Y010279D01*
X006052Y010279D01*
X006102Y010329D01*
X006052Y010480D02*
X005952Y010480D01*
X005902Y010430D01*
X005780Y010379D02*
X005780Y010580D01*
X005780Y010379D02*
X005679Y010279D01*
X005579Y010379D01*
X005579Y010580D01*
X005457Y010430D02*
X005457Y010329D01*
X005407Y010279D01*
X005257Y010279D01*
X005257Y010229D02*
X005257Y010480D01*
X005407Y010480D01*
X005457Y010430D01*
X005257Y010229D02*
X005307Y010179D01*
X005357Y010179D01*
X005550Y010109D02*
X005750Y010109D01*
X005750Y009959D01*
X005650Y010009D01*
X005600Y010009D01*
X005550Y009959D01*
X005550Y009859D01*
X005600Y009808D01*
X005700Y009808D01*
X005750Y009859D01*
X005872Y009808D02*
X006072Y009808D01*
X006371Y009584D02*
X006371Y009283D01*
X006421Y009283D02*
X006321Y009283D01*
X006543Y009283D02*
X006543Y009484D01*
X006421Y009584D02*
X006371Y009584D01*
X006543Y009283D02*
X006694Y009283D01*
X006744Y009334D01*
X006744Y009484D01*
X006866Y009584D02*
X007066Y009584D01*
X006966Y009584D02*
X006966Y009283D01*
X006942Y008922D02*
X007042Y008922D01*
X007093Y008872D01*
X007093Y008672D01*
X007042Y008622D01*
X006942Y008622D01*
X006892Y008672D01*
X006770Y008772D02*
X006570Y008772D01*
X006448Y008772D02*
X006298Y008772D01*
X006248Y008722D01*
X006248Y008672D01*
X006298Y008622D01*
X006448Y008622D01*
X006448Y008922D01*
X006298Y008922D01*
X006248Y008872D01*
X006248Y008822D01*
X006298Y008772D01*
X006126Y008872D02*
X006026Y008772D01*
X006026Y008622D01*
X006026Y008772D02*
X005926Y008872D01*
X005926Y008922D01*
X005803Y008772D02*
X005603Y008772D01*
X005481Y008822D02*
X005481Y008872D01*
X005431Y008922D01*
X005331Y008922D01*
X005281Y008872D01*
X005331Y008772D02*
X005281Y008722D01*
X005281Y008672D01*
X005331Y008622D01*
X005431Y008622D01*
X005481Y008672D01*
X005431Y008772D02*
X005331Y008772D01*
X005431Y008772D02*
X005481Y008822D01*
X005159Y008822D02*
X005159Y008622D01*
X005159Y008772D02*
X004959Y008772D01*
X004959Y008822D02*
X004959Y008622D01*
X004959Y008822D02*
X005059Y008922D01*
X005159Y008822D01*
X005455Y009283D02*
X005455Y009584D01*
X005085Y010279D02*
X004935Y010279D01*
X004935Y010430D01*
X004985Y010480D01*
X005085Y010480D01*
X005085Y010379D02*
X004935Y010379D01*
X005085Y010379D02*
X005135Y010329D01*
X005085Y010279D01*
X006126Y008922D02*
X006126Y008872D01*
X006892Y008872D02*
X006942Y008922D01*
X007215Y008872D02*
X007265Y008922D01*
X007365Y008922D01*
X007415Y008872D01*
X007415Y008672D01*
X007365Y008622D01*
X007265Y008622D01*
X007215Y008672D01*
X007503Y009283D02*
X007603Y009283D01*
X007553Y009283D02*
X007553Y009484D01*
X007603Y009484D01*
X007553Y009584D02*
X007553Y009634D01*
X007526Y009808D02*
X007426Y009808D01*
X007376Y009859D01*
X007254Y009808D02*
X007154Y009909D01*
X007154Y010009D01*
X007254Y010109D01*
X007376Y010059D02*
X007426Y010109D01*
X007526Y010109D01*
X007576Y010059D01*
X007576Y009859D01*
X007526Y009808D01*
X007691Y009808D02*
X007791Y009909D01*
X007791Y010009D01*
X007691Y010109D01*
X007721Y010279D02*
X007771Y010329D01*
X007771Y010530D01*
X007821Y010480D02*
X007721Y010480D01*
X007556Y010480D02*
X007456Y010480D01*
X007406Y010430D01*
X007406Y010279D01*
X007556Y010279D01*
X007606Y010329D01*
X007556Y010379D01*
X007406Y010379D01*
X007284Y010379D02*
X007133Y010379D01*
X007083Y010430D01*
X007083Y010530D01*
X007133Y010580D01*
X007284Y010580D01*
X007284Y010279D01*
X006961Y010329D02*
X006961Y010430D01*
X006911Y010480D01*
X006811Y010480D01*
X006761Y010430D01*
X006761Y010379D01*
X006961Y010379D01*
X006961Y010329D02*
X006911Y010279D01*
X006811Y010279D01*
X007721Y009484D02*
X007771Y009484D01*
X007872Y009384D01*
X007872Y009484D02*
X007872Y009283D01*
X007994Y009283D02*
X007994Y009434D01*
X008044Y009484D01*
X008144Y009484D01*
X008144Y009384D02*
X007994Y009384D01*
X007994Y009283D02*
X008144Y009283D01*
X008194Y009334D01*
X008144Y009384D01*
X008366Y009334D02*
X008366Y009584D01*
X008416Y009584D02*
X008316Y009584D01*
X008366Y009334D02*
X008416Y009283D01*
X008466Y009283D01*
X008516Y009334D01*
X008489Y008922D02*
X008489Y008622D01*
X008389Y008722D01*
X008289Y008622D01*
X008289Y008922D01*
X008611Y008922D02*
X008611Y008622D01*
X008611Y008772D02*
X008811Y008772D01*
X008933Y008722D02*
X008933Y008672D01*
X008983Y008622D01*
X009084Y008622D01*
X009134Y008672D01*
X009084Y008772D02*
X008983Y008772D01*
X008933Y008722D01*
X008933Y008872D02*
X008983Y008922D01*
X009084Y008922D01*
X009134Y008872D01*
X009134Y008822D01*
X009084Y008772D01*
X009256Y008672D02*
X009256Y008872D01*
X009306Y008922D01*
X009406Y008922D01*
X009456Y008872D01*
X009456Y008672D01*
X009406Y008622D01*
X009306Y008622D01*
X009256Y008672D01*
X008811Y008622D02*
X008811Y008922D01*
X007844Y008922D02*
X007844Y008622D01*
X007943Y010279D02*
X008093Y010279D01*
X008143Y010329D01*
X008143Y010430D01*
X008093Y010480D01*
X007943Y010480D01*
X008265Y010530D02*
X008265Y010329D01*
X008315Y010279D01*
X008415Y010279D01*
X008465Y010329D01*
X008465Y010530D01*
X008415Y010580D01*
X008315Y010580D01*
X008265Y010530D01*
X009424Y011795D02*
X009282Y011936D01*
X009231Y012058D02*
X009443Y012270D01*
X009337Y012377D01*
X009267Y012377D01*
X009196Y012306D01*
X009196Y012235D01*
X009302Y012129D01*
X009231Y012200D02*
X009090Y012200D01*
X009003Y012286D02*
X008862Y012428D01*
X008775Y012514D02*
X008988Y012726D01*
X008882Y012832D01*
X008811Y012832D01*
X008669Y012691D01*
X008669Y012620D01*
X008775Y012514D01*
X009039Y012463D02*
X009109Y012392D01*
X009003Y012286D02*
X009216Y012498D01*
X009074Y012640D01*
X009722Y011921D02*
X009793Y011921D01*
X009864Y011850D01*
X009864Y011779D01*
X009722Y011638D01*
X009652Y011638D01*
X009581Y011709D01*
X009581Y011779D01*
X009652Y011850D01*
X009722Y011779D01*
X009879Y011622D02*
X009879Y011551D01*
X009986Y011445D01*
X009915Y011375D02*
X010127Y011587D01*
X010021Y011693D01*
X009950Y011693D01*
X009879Y011622D01*
X009915Y011516D02*
X009773Y011516D01*
X010107Y011394D02*
X010107Y011324D01*
X010213Y011217D01*
X010143Y011147D02*
X010355Y011359D01*
X010249Y011465D01*
X010178Y011465D01*
X010107Y011394D01*
X007844Y012925D02*
X007844Y013225D01*
X007694Y013225D01*
X007644Y013175D01*
X007644Y013075D01*
X007694Y013025D01*
X007844Y013025D01*
X007521Y013025D02*
X007371Y013025D01*
X007321Y013075D01*
X007321Y013175D01*
X007371Y013225D01*
X007521Y013225D01*
X007521Y012925D01*
X007421Y013025D02*
X007321Y012925D01*
X007199Y012975D02*
X007149Y012925D01*
X007049Y012925D01*
X006999Y012975D01*
X006999Y013075D01*
X007099Y013075D01*
X007199Y013175D02*
X007199Y012975D01*
X007199Y013175D02*
X007149Y013225D01*
X007049Y013225D01*
X006999Y013175D01*
X006877Y012875D02*
X006677Y012875D01*
X006555Y012975D02*
X006505Y012925D01*
X006404Y012925D01*
X006354Y012975D01*
X006354Y013075D01*
X006454Y013075D01*
X006354Y013175D02*
X006404Y013225D01*
X006505Y013225D01*
X006555Y013175D01*
X006555Y012975D01*
X006232Y012925D02*
X006232Y013225D01*
X006082Y013225D01*
X006032Y013175D01*
X006032Y013075D01*
X006082Y013025D01*
X006232Y013025D01*
X006132Y013025D02*
X006032Y012925D01*
X005910Y012925D02*
X005910Y013225D01*
X005710Y012925D01*
X005710Y013225D01*
X004726Y012645D02*
X004514Y012857D01*
X004408Y012751D01*
X004408Y012680D01*
X004479Y012609D01*
X004549Y012609D01*
X004656Y012716D01*
X004428Y012488D02*
X004322Y012382D01*
X004251Y012382D01*
X004180Y012452D01*
X004180Y012523D01*
X004286Y012629D01*
X004498Y012417D01*
X004357Y012417D02*
X004357Y012275D01*
X004235Y012224D02*
X004235Y012154D01*
X004164Y012083D01*
X004094Y012083D01*
X004023Y012154D01*
X004094Y012224D01*
X004235Y012224D02*
X004094Y012366D01*
X004023Y012366D01*
X003952Y012295D01*
X003952Y012224D01*
X004078Y011926D02*
X003937Y011784D01*
X003815Y011733D02*
X003709Y011627D01*
X003638Y011627D01*
X003603Y011663D01*
X003603Y011733D01*
X003709Y011839D01*
X003815Y011733D02*
X003603Y011946D01*
X003496Y011839D01*
X003496Y011769D01*
X003532Y011733D01*
X003603Y011733D01*
X003587Y011505D02*
X003445Y011364D01*
X003324Y011313D02*
X003324Y011242D01*
X003253Y011171D01*
X003182Y011171D01*
X003005Y011348D01*
X003147Y011490D02*
X003324Y011313D01*
X003587Y011505D02*
X003375Y011718D01*
D11*
X001638Y011900D02*
X001640Y011914D01*
X001646Y011928D01*
X001654Y011940D01*
X001666Y011948D01*
X001680Y011954D01*
X001694Y011956D01*
X001708Y011954D01*
X001722Y011948D01*
X001734Y011940D01*
X001742Y011928D01*
X001748Y011914D01*
X001750Y011900D01*
X001748Y011886D01*
X001742Y011872D01*
X001734Y011860D01*
X001722Y011852D01*
X001708Y011846D01*
X001694Y011844D01*
X001680Y011846D01*
X001666Y011852D01*
X001654Y011860D01*
X001646Y011872D01*
X001640Y011886D01*
X001638Y011900D01*
X005021Y014608D02*
X005023Y014622D01*
X005029Y014636D01*
X005037Y014648D01*
X005049Y014656D01*
X005063Y014662D01*
X005077Y014664D01*
X005091Y014662D01*
X005105Y014656D01*
X005117Y014648D01*
X005125Y014636D01*
X005131Y014622D01*
X005133Y014608D01*
X005131Y014594D01*
X005125Y014580D01*
X005117Y014568D01*
X005105Y014560D01*
X005091Y014554D01*
X005077Y014552D01*
X005063Y014554D01*
X005049Y014560D01*
X005037Y014568D01*
X005029Y014580D01*
X005023Y014594D01*
X005021Y014608D01*
X009321Y014110D02*
X009323Y014124D01*
X009329Y014138D01*
X009337Y014150D01*
X009349Y014158D01*
X009363Y014164D01*
X009377Y014166D01*
X009391Y014164D01*
X009405Y014158D01*
X009417Y014150D01*
X009425Y014138D01*
X009431Y014124D01*
X009433Y014110D01*
X009431Y014096D01*
X009425Y014082D01*
X009417Y014070D01*
X009405Y014062D01*
X009391Y014056D01*
X009377Y014054D01*
X009363Y014056D01*
X009349Y014062D01*
X009337Y014070D01*
X009329Y014082D01*
X009323Y014096D01*
X009321Y014110D01*
M02*
