G75*
%MOIN*%
%OFA0B0*%
%FSLAX24Y24*%
%IPPOS*%
%LPD*%
%AMOC8*
5,1,8,0,0,1.08239X$1,22.5*
%
%ADD10OC8,0.0634*%
%ADD11R,0.0640X0.0640*%
%ADD12OC8,0.0640*%
%ADD13R,0.0394X0.0709*%
%ADD14C,0.0434*%
D10*
X004834Y006096D03*
X005736Y006096D03*
X006185Y007096D03*
X007086Y007096D03*
X006638Y008096D03*
X007539Y008096D03*
X007988Y007096D03*
X007539Y006096D03*
X006638Y006096D03*
X005283Y007096D03*
X004834Y008096D03*
X005736Y008096D03*
X008441Y008096D03*
X008890Y007096D03*
X008441Y006096D03*
D11*
X011074Y009633D03*
X002229Y009431D03*
D12*
X002229Y010431D03*
X002229Y011431D03*
X011074Y010633D03*
D13*
G36*
X010390Y011522D02*
X010112Y011800D01*
X010612Y012300D01*
X010890Y012022D01*
X010390Y011522D01*
G37*
G36*
X011226Y011800D02*
X010948Y012078D01*
X011448Y012578D01*
X011726Y012300D01*
X011226Y011800D01*
G37*
G36*
X010669Y012357D02*
X010391Y012635D01*
X010891Y013135D01*
X011169Y012857D01*
X010669Y012357D01*
G37*
G36*
X010112Y012914D02*
X009834Y013192D01*
X010334Y013692D01*
X010612Y013414D01*
X010112Y012914D01*
G37*
G36*
X009277Y012635D02*
X008999Y012913D01*
X009499Y013413D01*
X009777Y013135D01*
X009277Y012635D01*
G37*
G36*
X009555Y013470D02*
X009277Y013748D01*
X009777Y014248D01*
X010055Y013970D01*
X009555Y013470D01*
G37*
X007821Y014636D03*
X007428Y013848D03*
X007034Y014636D03*
X006247Y014636D03*
X005853Y013848D03*
X005459Y014636D03*
G36*
X004282Y012913D02*
X004004Y012635D01*
X003504Y013135D01*
X003782Y013413D01*
X004282Y012913D01*
G37*
G36*
X004003Y013748D02*
X003725Y013470D01*
X003225Y013970D01*
X003503Y014248D01*
X004003Y013748D01*
G37*
G36*
X003447Y013192D02*
X003169Y012914D01*
X002669Y013414D01*
X002947Y013692D01*
X003447Y013192D01*
G37*
G36*
X002890Y012635D02*
X002612Y012357D01*
X002112Y012857D01*
X002390Y013135D01*
X002890Y012635D01*
G37*
G36*
X003168Y011800D02*
X002890Y011522D01*
X002390Y012022D01*
X002668Y012300D01*
X003168Y011800D01*
G37*
G36*
X002333Y012078D02*
X002055Y011800D01*
X001555Y012300D01*
X001833Y012578D01*
X002333Y012078D01*
G37*
D14*
X001573Y011261D03*
X004543Y014231D03*
X004540Y014242D03*
X008738Y014231D03*
X008740Y014242D03*
X011708Y011261D03*
M02*
