G75*
%MOIN*%
%OFA0B0*%
%FSLAX24Y24*%
%IPPOS*%
%LPD*%
%AMOC8*
5,1,8,0,0,1.08239X$1,22.5*
%
%ADD10R,0.0240X0.0870*%
%ADD11R,0.0433X0.0394*%
%ADD12R,0.0394X0.0433*%
%ADD13R,0.0709X0.0787*%
%ADD14OC8,0.0594*%
%ADD15R,0.0600X0.0600*%
%ADD16OC8,0.0600*%
%ADD17C,0.0060*%
%ADD18C,0.0238*%
%ADD19C,0.0120*%
D10*
X002977Y010284D03*
X003477Y010284D03*
X003977Y010284D03*
X004477Y010284D03*
X005575Y010284D03*
X006075Y010284D03*
X006575Y010284D03*
X007075Y010284D03*
X008174Y010284D03*
X008674Y010284D03*
X009174Y010284D03*
X009674Y010284D03*
X009674Y012934D03*
X009174Y012934D03*
X008674Y012934D03*
X008174Y012934D03*
X007075Y012934D03*
X006575Y012934D03*
X006075Y012934D03*
X005575Y012934D03*
X004477Y012934D03*
X003977Y012934D03*
X003477Y012934D03*
X002977Y012934D03*
D11*
X005026Y013041D03*
X005026Y012372D03*
X007625Y012372D03*
X007625Y013041D03*
X010223Y013041D03*
X010223Y012372D03*
X011920Y010168D03*
X011920Y009499D03*
D12*
X010223Y010088D03*
X010223Y010758D03*
X009762Y009269D03*
X009093Y009269D03*
X008156Y009259D03*
X007487Y009259D03*
X007625Y010088D03*
X007625Y010758D03*
X006660Y009259D03*
X005991Y009259D03*
X005026Y010088D03*
X005026Y010758D03*
X004298Y009259D03*
X003629Y009259D03*
X008186Y013828D03*
X008186Y014497D03*
D13*
X007434Y013927D03*
X007434Y015581D03*
X005434Y015581D03*
X005434Y013927D03*
D14*
X005736Y008096D03*
X004834Y008096D03*
X005283Y007096D03*
X004834Y006096D03*
X005736Y006096D03*
X006185Y007096D03*
X007086Y007096D03*
X006638Y008096D03*
X007539Y008096D03*
X007988Y007096D03*
X007539Y006096D03*
X006638Y006096D03*
X008441Y006096D03*
X008890Y007096D03*
X008441Y008096D03*
D15*
X011074Y009633D03*
X002229Y009431D03*
D16*
X002229Y010431D03*
X002229Y011431D03*
X011074Y010633D03*
D17*
X008631Y005698D02*
X004649Y005698D01*
X004674Y005709D02*
X004995Y005709D01*
X005221Y005935D01*
X005221Y006256D01*
X005014Y006463D01*
X005199Y006463D01*
X005378Y006284D01*
X005349Y006256D01*
X005349Y005935D01*
X005576Y005709D01*
X005896Y005709D01*
X006123Y005935D01*
X006123Y006256D01*
X005896Y006482D01*
X005576Y006482D01*
X005547Y006454D01*
X005351Y006651D01*
X005468Y006651D01*
X005728Y006911D01*
X005728Y007066D01*
X005313Y007066D01*
X005313Y007126D01*
X005253Y007126D01*
X005253Y007540D01*
X005099Y007540D01*
X004838Y007280D01*
X004838Y007126D01*
X005253Y007126D01*
X005253Y007066D01*
X004838Y007066D01*
X004838Y006911D01*
X005046Y006703D01*
X004850Y006703D01*
X004080Y007473D01*
X004080Y008953D01*
X004178Y008953D01*
X004178Y008899D01*
X004248Y008828D01*
X004373Y008703D01*
X006424Y008703D01*
X006518Y008609D01*
X006518Y008482D01*
X006477Y008482D01*
X006251Y008256D01*
X006251Y007935D01*
X006477Y007709D01*
X006798Y007709D01*
X007024Y007935D01*
X007024Y008256D01*
X006798Y008482D01*
X006758Y008482D01*
X006758Y008703D01*
X007325Y008703D01*
X007419Y008609D01*
X007419Y008482D01*
X007379Y008482D01*
X007152Y008256D01*
X007152Y007935D01*
X007379Y007709D01*
X007699Y007709D01*
X007926Y007935D01*
X007926Y008256D01*
X007699Y008482D01*
X007659Y008482D01*
X007659Y008709D01*
X007589Y008779D01*
X007425Y008943D01*
X006835Y008943D01*
X006825Y008953D01*
X006894Y008953D01*
X006947Y009006D01*
X006947Y009513D01*
X006894Y009566D01*
X006426Y009566D01*
X006373Y009513D01*
X006373Y009006D01*
X006426Y008953D01*
X006540Y008953D01*
X006540Y008926D01*
X006523Y008943D01*
X004473Y008943D01*
X004463Y008953D01*
X004532Y008953D01*
X004585Y009006D01*
X004585Y009513D01*
X004532Y009566D01*
X004080Y009566D01*
X004080Y009759D01*
X004134Y009759D01*
X004187Y009812D01*
X004187Y010756D01*
X004178Y010765D01*
X004179Y010767D01*
X004179Y010940D01*
X004090Y011029D01*
X004090Y011273D01*
X004020Y011343D01*
X003909Y011454D01*
X003909Y011580D01*
X003787Y011702D01*
X003661Y011702D01*
X003340Y012023D01*
X003340Y012208D01*
X003394Y012154D01*
X003567Y012154D01*
X003689Y012277D01*
X003689Y012450D01*
X003682Y012457D01*
X003687Y012462D01*
X003687Y013406D01*
X003634Y013459D01*
X003340Y013459D01*
X003340Y013594D01*
X004510Y014763D01*
X005705Y014763D01*
X005641Y014700D01*
X005641Y014527D01*
X005757Y014411D01*
X005043Y014411D01*
X004990Y014358D01*
X004990Y013933D01*
X004623Y013933D01*
X004716Y013972D01*
X004802Y014058D01*
X004848Y014170D01*
X004848Y014292D01*
X004846Y014297D01*
X004846Y014303D01*
X004799Y014415D01*
X004713Y014501D01*
X004601Y014548D01*
X004480Y014548D01*
X004367Y014501D01*
X004281Y014415D01*
X004235Y014303D01*
X004235Y014181D01*
X004237Y014176D01*
X004237Y014170D01*
X004284Y014058D01*
X004370Y013972D01*
X004462Y013933D01*
X004192Y013933D01*
X004122Y013863D01*
X003857Y013598D01*
X003857Y013459D01*
X003820Y013459D01*
X003767Y013406D01*
X003767Y012462D01*
X003820Y012409D01*
X004134Y012409D01*
X004187Y012462D01*
X004187Y013406D01*
X004134Y013459D01*
X004097Y013459D01*
X004097Y013499D01*
X004292Y013693D01*
X004990Y013693D01*
X004990Y013619D01*
X004957Y013652D01*
X004784Y013652D01*
X004661Y013530D01*
X004661Y013432D01*
X004634Y013459D01*
X004320Y013459D01*
X004267Y013406D01*
X004267Y012462D01*
X004320Y012409D01*
X004634Y012409D01*
X004687Y012462D01*
X004687Y012921D01*
X004720Y012921D01*
X004720Y012807D01*
X004772Y012754D01*
X005280Y012754D01*
X005307Y012782D01*
X005307Y012631D01*
X005280Y012659D01*
X004772Y012659D01*
X004720Y012606D01*
X004720Y012138D01*
X004772Y012085D01*
X004910Y012085D01*
X004910Y011939D01*
X004821Y011850D01*
X004821Y011724D01*
X004431Y011333D01*
X004410Y011312D01*
X004394Y011312D01*
X004271Y011190D01*
X004271Y011017D01*
X004357Y010931D01*
X004357Y010809D01*
X004320Y010809D01*
X004267Y010756D01*
X004267Y009812D01*
X004320Y009759D01*
X004634Y009759D01*
X004687Y009812D01*
X004687Y009968D01*
X004739Y009968D01*
X004739Y009835D01*
X004792Y009782D01*
X005260Y009782D01*
X005313Y009835D01*
X005313Y010342D01*
X005260Y010395D01*
X005250Y010395D01*
X005280Y010403D01*
X005314Y010423D01*
X005342Y010450D01*
X005361Y010484D01*
X005365Y010500D01*
X005365Y009812D01*
X005389Y009788D01*
X005381Y009780D01*
X005381Y009607D01*
X005504Y009484D01*
X005677Y009484D01*
X005704Y009511D01*
X005704Y009006D01*
X005757Y008953D01*
X006225Y008953D01*
X006278Y009006D01*
X006278Y009513D01*
X006225Y009566D01*
X006111Y009566D01*
X006111Y009759D01*
X006233Y009759D01*
X006285Y009812D01*
X006285Y010756D01*
X006233Y010809D01*
X006195Y010809D01*
X006195Y011959D01*
X006437Y012201D01*
X006484Y012154D01*
X006657Y012154D01*
X006710Y012208D01*
X006710Y011174D01*
X006741Y011143D01*
X006741Y011017D01*
X006864Y010894D01*
X006955Y010894D01*
X006955Y010809D01*
X006918Y010809D01*
X006865Y010756D01*
X006865Y009812D01*
X006918Y009759D01*
X007233Y009759D01*
X007285Y009812D01*
X007285Y009968D01*
X007338Y009968D01*
X007338Y009835D01*
X007391Y009782D01*
X007491Y009782D01*
X007367Y009658D01*
X007367Y009566D01*
X007253Y009566D01*
X007200Y009513D01*
X007200Y009006D01*
X007253Y008953D01*
X007721Y008953D01*
X007774Y009006D01*
X007774Y009513D01*
X007721Y009566D01*
X007614Y009566D01*
X007662Y009613D01*
X008515Y009613D01*
X008640Y009738D01*
X008661Y009759D01*
X008831Y009759D01*
X008884Y009812D01*
X008884Y010756D01*
X008831Y010809D01*
X008550Y010809D01*
X008550Y011278D01*
X008554Y011274D01*
X008600Y011274D01*
X008971Y010903D01*
X008971Y010777D01*
X008978Y010770D01*
X008964Y010756D01*
X008964Y009812D01*
X008969Y009807D01*
X008881Y009720D01*
X008881Y009576D01*
X008859Y009576D01*
X008806Y009523D01*
X008806Y009016D01*
X008859Y008963D01*
X009310Y008963D01*
X009310Y007304D01*
X009074Y007540D01*
X008920Y007540D01*
X008920Y007126D01*
X008860Y007126D01*
X008860Y007540D01*
X008705Y007540D01*
X008445Y007280D01*
X008445Y007126D01*
X008860Y007126D01*
X008860Y007066D01*
X008445Y007066D01*
X008445Y006911D01*
X008653Y006703D01*
X008225Y006703D01*
X008433Y006911D01*
X008433Y007066D01*
X008018Y007066D01*
X008018Y007126D01*
X007958Y007126D01*
X007958Y007540D01*
X007804Y007540D01*
X007543Y007280D01*
X007543Y007126D01*
X007958Y007126D01*
X007958Y007066D01*
X007543Y007066D01*
X007543Y006911D01*
X007751Y006703D01*
X007323Y006703D01*
X007531Y006911D01*
X007531Y007066D01*
X007116Y007066D01*
X007116Y007126D01*
X007056Y007126D01*
X007056Y007540D01*
X006902Y007540D01*
X006641Y007280D01*
X006641Y007126D01*
X007056Y007126D01*
X007056Y007066D01*
X006641Y007066D01*
X006641Y006911D01*
X006902Y006651D01*
X007023Y006651D01*
X006826Y006454D01*
X006798Y006482D01*
X006477Y006482D01*
X006251Y006256D01*
X006251Y005935D01*
X006477Y005709D01*
X006798Y005709D01*
X007024Y005935D01*
X007024Y006256D01*
X006996Y006284D01*
X007175Y006463D01*
X007360Y006463D01*
X007152Y006256D01*
X007152Y005935D01*
X007379Y005709D01*
X007699Y005709D01*
X007926Y005935D01*
X007926Y006256D01*
X007719Y006463D01*
X008261Y006463D01*
X008054Y006256D01*
X008054Y005935D01*
X008281Y005709D01*
X008601Y005709D01*
X008828Y005935D01*
X008828Y006256D01*
X008620Y006463D01*
X009160Y006463D01*
X009480Y006783D01*
X009550Y006854D01*
X009550Y008963D01*
X009996Y008963D01*
X010049Y009016D01*
X010049Y009523D01*
X009996Y009576D01*
X009794Y009576D01*
X009794Y009759D01*
X009831Y009759D01*
X009884Y009812D01*
X009884Y009968D01*
X009936Y009968D01*
X009936Y009835D01*
X009989Y009782D01*
X010457Y009782D01*
X010510Y009835D01*
X010510Y010191D01*
X010528Y010173D01*
X010653Y010048D01*
X011614Y010048D01*
X011614Y009934D01*
X011667Y009881D01*
X012174Y009881D01*
X012201Y009908D01*
X012201Y009759D01*
X012174Y009785D01*
X011667Y009785D01*
X011614Y009733D01*
X011614Y009619D01*
X011464Y009619D01*
X011464Y009970D01*
X011411Y010023D01*
X010737Y010023D01*
X010684Y009970D01*
X010684Y009296D01*
X010737Y009243D01*
X011411Y009243D01*
X011464Y009296D01*
X011464Y009379D01*
X011614Y009379D01*
X011614Y009265D01*
X011667Y009212D01*
X012145Y009212D01*
X007973Y005040D01*
X005307Y005040D01*
X001080Y009267D01*
X001080Y011949D01*
X004932Y015797D01*
X004932Y015611D01*
X005404Y015611D01*
X005404Y016122D01*
X005257Y016122D01*
X005307Y016173D01*
X007973Y016173D01*
X009499Y014648D01*
X009330Y014648D01*
X009330Y014629D02*
X009330Y014719D01*
X008986Y015063D01*
X008916Y015133D01*
X008476Y015133D01*
X008387Y015222D01*
X008214Y015222D01*
X008091Y015100D01*
X008091Y014927D01*
X008156Y014862D01*
X007970Y014862D01*
X007932Y014852D01*
X007899Y014832D01*
X007871Y014805D01*
X007852Y014771D01*
X007841Y014733D01*
X007841Y014527D01*
X008156Y014527D01*
X008156Y014467D01*
X007841Y014467D01*
X007841Y014395D01*
X007826Y014411D01*
X007043Y014411D01*
X006990Y014358D01*
X006990Y014231D01*
X006958Y014262D01*
X006785Y014262D01*
X006690Y014168D01*
X006690Y014538D01*
X006620Y014608D01*
X006495Y014733D01*
X006026Y014733D01*
X005996Y014763D01*
X006010Y014763D01*
X006080Y014834D01*
X006211Y014964D01*
X006337Y014964D01*
X006459Y015087D01*
X006459Y015260D01*
X006337Y015382D01*
X006164Y015382D01*
X006041Y015260D01*
X006041Y015134D01*
X005911Y015003D01*
X004411Y015003D01*
X004340Y014933D01*
X003171Y013763D01*
X003100Y013693D01*
X003100Y013517D01*
X003007Y013517D01*
X003007Y012964D01*
X002947Y012964D01*
X002947Y013517D01*
X002838Y013517D01*
X002800Y013507D01*
X002766Y013488D01*
X002738Y013460D01*
X002719Y013426D01*
X002709Y013389D01*
X002709Y013352D01*
X002574Y013352D01*
X002451Y013230D01*
X002451Y013057D01*
X002540Y012968D01*
X002540Y011694D01*
X002611Y011623D01*
X002857Y011377D01*
X002857Y010809D01*
X002820Y010809D01*
X002767Y010756D01*
X002767Y010551D01*
X002619Y010551D01*
X002619Y010593D01*
X002390Y010821D01*
X002067Y010821D01*
X001839Y010593D01*
X001839Y010270D01*
X002067Y010041D01*
X002390Y010041D01*
X002619Y010270D01*
X002619Y010311D01*
X002767Y010311D01*
X002767Y009812D01*
X002785Y009794D01*
X002771Y009780D01*
X002771Y009607D01*
X002894Y009484D01*
X003067Y009484D01*
X003189Y009607D01*
X003189Y009780D01*
X003172Y009797D01*
X003187Y009812D01*
X003187Y010756D01*
X003134Y010809D01*
X003097Y010809D01*
X003097Y011476D01*
X003027Y011547D01*
X002780Y011793D01*
X002780Y012372D01*
X002800Y012361D01*
X002838Y012351D01*
X002947Y012351D01*
X002947Y012904D01*
X003007Y012904D01*
X003007Y012351D01*
X003100Y012351D01*
X003100Y011924D01*
X003491Y011533D01*
X003491Y011407D01*
X003614Y011284D01*
X003740Y011284D01*
X003850Y011174D01*
X003850Y011029D01*
X003761Y010940D01*
X003761Y010767D01*
X003769Y010759D01*
X003767Y010756D01*
X003767Y009812D01*
X003820Y009759D01*
X003840Y009759D01*
X003840Y009566D01*
X003640Y009566D01*
X003640Y009765D01*
X003687Y009812D01*
X003687Y010756D01*
X003687Y010757D01*
X003700Y010770D01*
X003700Y010943D01*
X003577Y011065D01*
X003404Y011065D01*
X003282Y010943D01*
X003282Y010771D01*
X003267Y010756D01*
X003267Y009812D01*
X003320Y009759D01*
X003400Y009759D01*
X003400Y009566D01*
X003394Y009566D01*
X003342Y009513D01*
X003342Y009006D01*
X003394Y008953D01*
X003840Y008953D01*
X003840Y007374D01*
X004680Y006534D01*
X004732Y006482D01*
X004674Y006482D01*
X004448Y006256D01*
X004448Y005935D01*
X004674Y005709D01*
X004627Y005756D02*
X004591Y005756D01*
X004568Y005815D02*
X004532Y005815D01*
X004510Y005873D02*
X004474Y005873D01*
X004451Y005932D02*
X004415Y005932D01*
X004448Y005990D02*
X004357Y005990D01*
X004298Y006049D02*
X004448Y006049D01*
X004448Y006107D02*
X004240Y006107D01*
X004181Y006166D02*
X004448Y006166D01*
X004448Y006224D02*
X004123Y006224D01*
X004064Y006283D02*
X004475Y006283D01*
X004533Y006341D02*
X004006Y006341D01*
X003947Y006400D02*
X004592Y006400D01*
X004650Y006458D02*
X003889Y006458D01*
X003830Y006517D02*
X004697Y006517D01*
X004639Y006575D02*
X003772Y006575D01*
X003713Y006634D02*
X004580Y006634D01*
X004522Y006692D02*
X003655Y006692D01*
X003596Y006751D02*
X004463Y006751D01*
X004405Y006809D02*
X003538Y006809D01*
X003479Y006868D02*
X004346Y006868D01*
X004288Y006926D02*
X003421Y006926D01*
X003362Y006985D02*
X004229Y006985D01*
X004171Y007043D02*
X003304Y007043D01*
X003245Y007102D02*
X004112Y007102D01*
X004054Y007160D02*
X003187Y007160D01*
X003128Y007219D02*
X003995Y007219D01*
X003937Y007277D02*
X003070Y007277D01*
X003011Y007336D02*
X003878Y007336D01*
X003840Y007394D02*
X002953Y007394D01*
X002894Y007453D02*
X003840Y007453D01*
X003840Y007511D02*
X002836Y007511D01*
X002777Y007570D02*
X003840Y007570D01*
X003840Y007628D02*
X002719Y007628D01*
X002660Y007687D02*
X003840Y007687D01*
X003840Y007745D02*
X002602Y007745D01*
X002543Y007804D02*
X003840Y007804D01*
X003840Y007862D02*
X002485Y007862D01*
X002426Y007921D02*
X003840Y007921D01*
X003840Y007979D02*
X002368Y007979D01*
X002309Y008038D02*
X003840Y008038D01*
X003840Y008096D02*
X002251Y008096D01*
X002192Y008155D02*
X003840Y008155D01*
X003840Y008213D02*
X002134Y008213D01*
X002075Y008272D02*
X003840Y008272D01*
X003840Y008330D02*
X002017Y008330D01*
X001958Y008389D02*
X003840Y008389D01*
X003840Y008447D02*
X001900Y008447D01*
X001841Y008506D02*
X003840Y008506D01*
X003840Y008564D02*
X001783Y008564D01*
X001724Y008623D02*
X003840Y008623D01*
X003840Y008681D02*
X001666Y008681D01*
X001607Y008740D02*
X003840Y008740D01*
X003840Y008798D02*
X001549Y008798D01*
X001490Y008857D02*
X003840Y008857D01*
X003840Y008915D02*
X001432Y008915D01*
X001373Y008974D02*
X003374Y008974D01*
X003342Y009032D02*
X002639Y009032D01*
X002647Y009041D02*
X002667Y009074D01*
X002677Y009112D01*
X002677Y009401D01*
X002259Y009401D01*
X002259Y008983D01*
X002548Y008983D01*
X002586Y008993D01*
X002620Y009013D01*
X002647Y009041D01*
X002671Y009091D02*
X003342Y009091D01*
X003342Y009149D02*
X002677Y009149D01*
X002677Y009208D02*
X003342Y009208D01*
X003342Y009266D02*
X002677Y009266D01*
X002677Y009325D02*
X003342Y009325D01*
X003342Y009383D02*
X002677Y009383D01*
X002677Y009461D02*
X002677Y009751D01*
X002667Y009789D01*
X002647Y009822D01*
X002620Y009850D01*
X002586Y009870D01*
X002548Y009880D01*
X002259Y009880D01*
X002259Y009461D01*
X002677Y009461D01*
X002677Y009500D02*
X002878Y009500D01*
X002819Y009559D02*
X002677Y009559D01*
X002677Y009617D02*
X002771Y009617D01*
X002771Y009676D02*
X002677Y009676D01*
X002677Y009734D02*
X002771Y009734D01*
X002784Y009793D02*
X002664Y009793D01*
X002617Y009851D02*
X002767Y009851D01*
X002767Y009910D02*
X001080Y009910D01*
X001080Y009968D02*
X002767Y009968D01*
X002767Y010027D02*
X001080Y010027D01*
X001080Y010085D02*
X002023Y010085D01*
X001965Y010144D02*
X001080Y010144D01*
X001080Y010202D02*
X001906Y010202D01*
X001848Y010261D02*
X001080Y010261D01*
X001080Y010319D02*
X001839Y010319D01*
X001839Y010378D02*
X001080Y010378D01*
X001080Y010436D02*
X001839Y010436D01*
X001839Y010495D02*
X001080Y010495D01*
X001080Y010553D02*
X001839Y010553D01*
X001857Y010612D02*
X001080Y010612D01*
X001080Y010670D02*
X001916Y010670D01*
X001974Y010729D02*
X001080Y010729D01*
X001080Y010787D02*
X002033Y010787D01*
X002067Y011041D02*
X002390Y011041D01*
X002619Y011270D01*
X002619Y011593D01*
X002390Y011821D01*
X002067Y011821D01*
X001839Y011593D01*
X001839Y011418D01*
X001832Y011434D01*
X001746Y011520D01*
X001634Y011567D01*
X001512Y011567D01*
X001400Y011520D01*
X001314Y011434D01*
X001267Y011322D01*
X001267Y011200D01*
X001314Y011088D01*
X001400Y011002D01*
X001512Y010955D01*
X001634Y010955D01*
X001746Y011002D01*
X001832Y011088D01*
X001878Y011200D01*
X001878Y011230D01*
X002067Y011041D01*
X002029Y011080D02*
X001824Y011080D01*
X001853Y011138D02*
X001970Y011138D01*
X001912Y011197D02*
X001877Y011197D01*
X001765Y011021D02*
X002857Y011021D01*
X002857Y010963D02*
X001652Y010963D01*
X001494Y010963D02*
X001080Y010963D01*
X001080Y011021D02*
X001380Y011021D01*
X001322Y011080D02*
X001080Y011080D01*
X001080Y011138D02*
X001293Y011138D01*
X001269Y011197D02*
X001080Y011197D01*
X001080Y011255D02*
X001267Y011255D01*
X001267Y011314D02*
X001080Y011314D01*
X001080Y011372D02*
X001288Y011372D01*
X001312Y011431D02*
X001080Y011431D01*
X001080Y011489D02*
X001369Y011489D01*
X001467Y011548D02*
X001080Y011548D01*
X001080Y011606D02*
X001852Y011606D01*
X001839Y011548D02*
X001679Y011548D01*
X001777Y011489D02*
X001839Y011489D01*
X001833Y011431D02*
X001839Y011431D01*
X001910Y011665D02*
X001080Y011665D01*
X001080Y011723D02*
X001969Y011723D01*
X002027Y011782D02*
X001080Y011782D01*
X001080Y011840D02*
X002540Y011840D01*
X002540Y011782D02*
X002430Y011782D01*
X002488Y011723D02*
X002540Y011723D01*
X002547Y011665D02*
X002569Y011665D01*
X002611Y011623D02*
X002611Y011623D01*
X002605Y011606D02*
X002628Y011606D01*
X002619Y011548D02*
X002686Y011548D01*
X002745Y011489D02*
X002619Y011489D01*
X002619Y011431D02*
X002803Y011431D01*
X002857Y011372D02*
X002619Y011372D01*
X002619Y011314D02*
X002857Y011314D01*
X002857Y011255D02*
X002604Y011255D01*
X002546Y011197D02*
X002857Y011197D01*
X002857Y011138D02*
X002487Y011138D01*
X002429Y011080D02*
X002857Y011080D01*
X002857Y010904D02*
X001080Y010904D01*
X001080Y010846D02*
X002857Y010846D01*
X002798Y010787D02*
X002424Y010787D01*
X002483Y010729D02*
X002767Y010729D01*
X002767Y010670D02*
X002541Y010670D01*
X002600Y010612D02*
X002767Y010612D01*
X002767Y010553D02*
X002619Y010553D01*
X002610Y010261D02*
X002767Y010261D01*
X002767Y010202D02*
X002551Y010202D01*
X002493Y010144D02*
X002767Y010144D01*
X002767Y010085D02*
X002434Y010085D01*
X002259Y009851D02*
X002199Y009851D01*
X002199Y009880D02*
X001909Y009880D01*
X001872Y009870D01*
X001838Y009850D01*
X001810Y009822D01*
X001791Y009789D01*
X001781Y009751D01*
X001781Y009461D01*
X002199Y009461D01*
X002199Y009401D01*
X002259Y009401D01*
X002259Y009461D01*
X002199Y009461D01*
X002199Y009880D01*
X002199Y009793D02*
X002259Y009793D01*
X002259Y009734D02*
X002199Y009734D01*
X002199Y009676D02*
X002259Y009676D01*
X002259Y009617D02*
X002199Y009617D01*
X002199Y009559D02*
X002259Y009559D01*
X002259Y009500D02*
X002199Y009500D01*
X002199Y009442D02*
X001080Y009442D01*
X001080Y009500D02*
X001781Y009500D01*
X001781Y009559D02*
X001080Y009559D01*
X001080Y009617D02*
X001781Y009617D01*
X001781Y009676D02*
X001080Y009676D01*
X001080Y009734D02*
X001781Y009734D01*
X001793Y009793D02*
X001080Y009793D01*
X001080Y009851D02*
X001840Y009851D01*
X001781Y009401D02*
X001781Y009112D01*
X001791Y009074D01*
X001810Y009041D01*
X001838Y009013D01*
X001872Y008993D01*
X001909Y008983D01*
X002199Y008983D01*
X002199Y009401D01*
X001781Y009401D01*
X001781Y009383D02*
X001080Y009383D01*
X001080Y009325D02*
X001781Y009325D01*
X001781Y009266D02*
X001081Y009266D01*
X001139Y009208D02*
X001781Y009208D01*
X001781Y009149D02*
X001198Y009149D01*
X001256Y009091D02*
X001786Y009091D01*
X001818Y009032D02*
X001315Y009032D01*
X002199Y009032D02*
X002259Y009032D01*
X002259Y009091D02*
X002199Y009091D01*
X002199Y009149D02*
X002259Y009149D01*
X002259Y009208D02*
X002199Y009208D01*
X002199Y009266D02*
X002259Y009266D01*
X002259Y009325D02*
X002199Y009325D01*
X002199Y009383D02*
X002259Y009383D01*
X002259Y009442D02*
X003342Y009442D01*
X003342Y009500D02*
X003083Y009500D01*
X003142Y009559D02*
X003387Y009559D01*
X003400Y009617D02*
X003189Y009617D01*
X003189Y009676D02*
X003400Y009676D01*
X003400Y009734D02*
X003189Y009734D01*
X003177Y009793D02*
X003286Y009793D01*
X003267Y009851D02*
X003187Y009851D01*
X003187Y009910D02*
X003267Y009910D01*
X003267Y009968D02*
X003187Y009968D01*
X003187Y010027D02*
X003267Y010027D01*
X003267Y010085D02*
X003187Y010085D01*
X003187Y010144D02*
X003267Y010144D01*
X003267Y010202D02*
X003187Y010202D01*
X003187Y010261D02*
X003267Y010261D01*
X003267Y010319D02*
X003187Y010319D01*
X003187Y010378D02*
X003267Y010378D01*
X003267Y010436D02*
X003187Y010436D01*
X003187Y010495D02*
X003267Y010495D01*
X003267Y010553D02*
X003187Y010553D01*
X003187Y010612D02*
X003267Y010612D01*
X003267Y010670D02*
X003187Y010670D01*
X003187Y010729D02*
X003267Y010729D01*
X003282Y010787D02*
X003156Y010787D01*
X003097Y010846D02*
X003282Y010846D01*
X003282Y010904D02*
X003097Y010904D01*
X003097Y010963D02*
X003302Y010963D01*
X003360Y011021D02*
X003097Y011021D01*
X003097Y011080D02*
X003850Y011080D01*
X003850Y011138D02*
X003097Y011138D01*
X003097Y011197D02*
X003827Y011197D01*
X003769Y011255D02*
X003097Y011255D01*
X003097Y011314D02*
X003584Y011314D01*
X003526Y011372D02*
X003097Y011372D01*
X003097Y011431D02*
X003491Y011431D01*
X003491Y011489D02*
X003084Y011489D01*
X003026Y011548D02*
X003476Y011548D01*
X003418Y011606D02*
X002967Y011606D01*
X002909Y011665D02*
X003359Y011665D01*
X003301Y011723D02*
X002850Y011723D01*
X002792Y011782D02*
X003242Y011782D01*
X003184Y011840D02*
X002780Y011840D01*
X002780Y011899D02*
X003125Y011899D01*
X003100Y011957D02*
X002780Y011957D01*
X002780Y012016D02*
X003100Y012016D01*
X003100Y012074D02*
X002780Y012074D01*
X002780Y012133D02*
X003100Y012133D01*
X003100Y012191D02*
X002780Y012191D01*
X002780Y012250D02*
X003100Y012250D01*
X003100Y012308D02*
X002780Y012308D01*
X002780Y012367D02*
X002790Y012367D01*
X002947Y012367D02*
X003007Y012367D01*
X003007Y012425D02*
X002947Y012425D01*
X002947Y012484D02*
X003007Y012484D01*
X003007Y012542D02*
X002947Y012542D01*
X002947Y012601D02*
X003007Y012601D01*
X003007Y012659D02*
X002947Y012659D01*
X002947Y012718D02*
X003007Y012718D01*
X003007Y012776D02*
X002947Y012776D01*
X002947Y012835D02*
X003007Y012835D01*
X003007Y012893D02*
X002947Y012893D01*
X002947Y013010D02*
X003007Y013010D01*
X003007Y013069D02*
X002947Y013069D01*
X002947Y013127D02*
X003007Y013127D01*
X003007Y013186D02*
X002947Y013186D01*
X002947Y013244D02*
X003007Y013244D01*
X003007Y013303D02*
X002947Y013303D01*
X002947Y013361D02*
X003007Y013361D01*
X003007Y013420D02*
X002947Y013420D01*
X002947Y013478D02*
X003007Y013478D01*
X003100Y013537D02*
X002669Y013537D01*
X002611Y013478D02*
X002757Y013478D01*
X002717Y013420D02*
X002552Y013420D01*
X002494Y013361D02*
X002709Y013361D01*
X002660Y013143D02*
X002660Y011743D01*
X002977Y011427D01*
X002977Y010284D01*
X002977Y010431D01*
X002229Y010431D01*
X002977Y010306D02*
X002977Y010284D01*
X002977Y009693D01*
X002980Y009693D01*
X003477Y010037D02*
X003477Y010284D01*
X003491Y010298D01*
X003491Y010856D01*
X003700Y010846D02*
X003761Y010846D01*
X003761Y010904D02*
X003700Y010904D01*
X003680Y010963D02*
X003784Y010963D01*
X003843Y011021D02*
X003621Y011021D01*
X003700Y010787D02*
X003761Y010787D01*
X003767Y010729D02*
X003687Y010729D01*
X003687Y010670D02*
X003767Y010670D01*
X003767Y010612D02*
X003687Y010612D01*
X003687Y010553D02*
X003767Y010553D01*
X003767Y010495D02*
X003687Y010495D01*
X003687Y010436D02*
X003767Y010436D01*
X003767Y010378D02*
X003687Y010378D01*
X003687Y010319D02*
X003767Y010319D01*
X003767Y010261D02*
X003687Y010261D01*
X003687Y010202D02*
X003767Y010202D01*
X003767Y010144D02*
X003687Y010144D01*
X003687Y010085D02*
X003767Y010085D01*
X003767Y010027D02*
X003687Y010027D01*
X003687Y009968D02*
X003767Y009968D01*
X003767Y009910D02*
X003687Y009910D01*
X003687Y009851D02*
X003767Y009851D01*
X003786Y009793D02*
X003668Y009793D01*
X003640Y009734D02*
X003840Y009734D01*
X003840Y009676D02*
X003640Y009676D01*
X003640Y009617D02*
X003840Y009617D01*
X004080Y009617D02*
X005381Y009617D01*
X005381Y009676D02*
X004080Y009676D01*
X004080Y009734D02*
X005381Y009734D01*
X005384Y009793D02*
X005271Y009793D01*
X005313Y009851D02*
X005365Y009851D01*
X005365Y009910D02*
X005313Y009910D01*
X005313Y009968D02*
X005365Y009968D01*
X005365Y010027D02*
X005313Y010027D01*
X005313Y010085D02*
X005365Y010085D01*
X005365Y010144D02*
X005313Y010144D01*
X005313Y010202D02*
X005365Y010202D01*
X005365Y010261D02*
X005313Y010261D01*
X005313Y010319D02*
X005365Y010319D01*
X005365Y010378D02*
X005277Y010378D01*
X005328Y010436D02*
X005365Y010436D01*
X005364Y010495D02*
X005365Y010495D01*
X005575Y010284D02*
X005575Y009693D01*
X005590Y009693D01*
X005429Y009559D02*
X004539Y009559D01*
X004585Y009500D02*
X005488Y009500D01*
X005693Y009500D02*
X005704Y009500D01*
X005704Y009442D02*
X004585Y009442D01*
X004585Y009383D02*
X005704Y009383D01*
X005704Y009325D02*
X004585Y009325D01*
X004585Y009266D02*
X005704Y009266D01*
X005704Y009208D02*
X004585Y009208D01*
X004585Y009149D02*
X005704Y009149D01*
X005704Y009091D02*
X004585Y009091D01*
X004585Y009032D02*
X005704Y009032D01*
X005736Y008974D02*
X004553Y008974D01*
X004423Y008823D02*
X004298Y008948D01*
X004298Y009259D01*
X004178Y008915D02*
X004080Y008915D01*
X004080Y008857D02*
X004220Y008857D01*
X004278Y008798D02*
X004080Y008798D01*
X004080Y008740D02*
X004337Y008740D01*
X004423Y008823D02*
X006473Y008823D01*
X006638Y008659D01*
X006638Y008096D01*
X006891Y008389D02*
X007285Y008389D01*
X007227Y008330D02*
X006950Y008330D01*
X007008Y008272D02*
X007168Y008272D01*
X007152Y008213D02*
X007024Y008213D01*
X007024Y008155D02*
X007152Y008155D01*
X007152Y008096D02*
X007024Y008096D01*
X007024Y008038D02*
X007152Y008038D01*
X007152Y007979D02*
X007024Y007979D01*
X007010Y007921D02*
X007167Y007921D01*
X007225Y007862D02*
X006952Y007862D01*
X006893Y007804D02*
X007284Y007804D01*
X007342Y007745D02*
X006835Y007745D01*
X006873Y007511D02*
X005497Y007511D01*
X005468Y007540D02*
X005313Y007540D01*
X005313Y007126D01*
X005728Y007126D01*
X005728Y007280D01*
X005468Y007540D01*
X005555Y007453D02*
X005995Y007453D01*
X006025Y007482D02*
X005798Y007256D01*
X005798Y006935D01*
X006025Y006709D01*
X006345Y006709D01*
X006572Y006935D01*
X006572Y007256D01*
X006345Y007482D01*
X006025Y007482D01*
X005937Y007394D02*
X005614Y007394D01*
X005672Y007336D02*
X005878Y007336D01*
X005820Y007277D02*
X005728Y007277D01*
X005728Y007219D02*
X005798Y007219D01*
X005798Y007160D02*
X005728Y007160D01*
X005798Y007102D02*
X005313Y007102D01*
X005313Y007160D02*
X005253Y007160D01*
X005253Y007102D02*
X004452Y007102D01*
X004510Y007043D02*
X004838Y007043D01*
X004838Y006985D02*
X004569Y006985D01*
X004627Y006926D02*
X004838Y006926D01*
X004882Y006868D02*
X004686Y006868D01*
X004744Y006809D02*
X004940Y006809D01*
X004999Y006751D02*
X004803Y006751D01*
X004800Y006583D02*
X005248Y006583D01*
X005736Y006096D01*
X005470Y005815D02*
X005101Y005815D01*
X005159Y005873D02*
X005411Y005873D01*
X005353Y005932D02*
X005218Y005932D01*
X005221Y005990D02*
X005349Y005990D01*
X005349Y006049D02*
X005221Y006049D01*
X005221Y006107D02*
X005349Y006107D01*
X005349Y006166D02*
X005221Y006166D01*
X005221Y006224D02*
X005349Y006224D01*
X005376Y006283D02*
X005194Y006283D01*
X005136Y006341D02*
X005321Y006341D01*
X005262Y006400D02*
X005077Y006400D01*
X005019Y006458D02*
X005204Y006458D01*
X005367Y006634D02*
X007006Y006634D01*
X006948Y006575D02*
X005426Y006575D01*
X005484Y006517D02*
X006889Y006517D01*
X006831Y006458D02*
X006822Y006458D01*
X006860Y006692D02*
X005509Y006692D01*
X005568Y006751D02*
X005982Y006751D01*
X005924Y006809D02*
X005626Y006809D01*
X005685Y006868D02*
X005865Y006868D01*
X005807Y006926D02*
X005728Y006926D01*
X005728Y006985D02*
X005798Y006985D01*
X005798Y007043D02*
X005728Y007043D01*
X005313Y007219D02*
X005253Y007219D01*
X005253Y007277D02*
X005313Y007277D01*
X005313Y007336D02*
X005253Y007336D01*
X005253Y007394D02*
X005313Y007394D01*
X005313Y007453D02*
X005253Y007453D01*
X005253Y007511D02*
X005313Y007511D01*
X005114Y007745D02*
X005539Y007745D01*
X005576Y007709D02*
X005896Y007709D01*
X006123Y007935D01*
X006123Y008256D01*
X005896Y008482D01*
X005576Y008482D01*
X005349Y008256D01*
X005349Y007935D01*
X005576Y007709D01*
X005481Y007804D02*
X005172Y007804D01*
X005231Y007862D02*
X005422Y007862D01*
X005364Y007921D02*
X005279Y007921D01*
X005279Y007911D02*
X005279Y008066D01*
X004864Y008066D01*
X004864Y008126D01*
X004804Y008126D01*
X004804Y008540D01*
X004650Y008540D01*
X004390Y008280D01*
X004390Y008126D01*
X004804Y008126D01*
X004804Y008066D01*
X004390Y008066D01*
X004390Y007911D01*
X004650Y007651D01*
X004804Y007651D01*
X004804Y008066D01*
X004864Y008066D01*
X004864Y007651D01*
X005019Y007651D01*
X005279Y007911D01*
X005279Y007979D02*
X005349Y007979D01*
X005349Y008038D02*
X005279Y008038D01*
X005279Y008126D02*
X005279Y008280D01*
X005019Y008540D01*
X004864Y008540D01*
X004864Y008126D01*
X005279Y008126D01*
X005279Y008155D02*
X005349Y008155D01*
X005349Y008213D02*
X005279Y008213D01*
X005279Y008272D02*
X005365Y008272D01*
X005424Y008330D02*
X005229Y008330D01*
X005170Y008389D02*
X005482Y008389D01*
X005541Y008447D02*
X005112Y008447D01*
X005053Y008506D02*
X006518Y008506D01*
X006518Y008564D02*
X004080Y008564D01*
X004080Y008506D02*
X004616Y008506D01*
X004557Y008447D02*
X004080Y008447D01*
X004080Y008389D02*
X004499Y008389D01*
X004440Y008330D02*
X004080Y008330D01*
X004080Y008272D02*
X004390Y008272D01*
X004390Y008213D02*
X004080Y008213D01*
X004080Y008155D02*
X004390Y008155D01*
X004390Y008038D02*
X004080Y008038D01*
X004080Y008096D02*
X004804Y008096D01*
X004804Y008038D02*
X004864Y008038D01*
X004864Y008096D02*
X005349Y008096D01*
X005055Y007687D02*
X009310Y007687D01*
X009310Y007745D02*
X008638Y007745D01*
X008601Y007709D02*
X008828Y007935D01*
X008828Y008256D01*
X008601Y008482D01*
X008561Y008482D01*
X008561Y008713D01*
X008490Y008784D01*
X008321Y008953D01*
X008390Y008953D01*
X008443Y009006D01*
X008443Y009513D01*
X008390Y009566D01*
X007922Y009566D01*
X007869Y009513D01*
X007869Y009006D01*
X007922Y008953D01*
X008036Y008953D01*
X008036Y008899D01*
X008106Y008828D01*
X008321Y008614D01*
X008321Y008482D01*
X008281Y008482D01*
X008054Y008256D01*
X008054Y007935D01*
X008281Y007709D01*
X008601Y007709D01*
X008696Y007804D02*
X009310Y007804D01*
X009310Y007862D02*
X008755Y007862D01*
X008813Y007921D02*
X009310Y007921D01*
X009310Y007979D02*
X008828Y007979D01*
X008828Y008038D02*
X009310Y008038D01*
X009310Y008096D02*
X008828Y008096D01*
X008828Y008155D02*
X009310Y008155D01*
X009310Y008213D02*
X008828Y008213D01*
X008812Y008272D02*
X009310Y008272D01*
X009310Y008330D02*
X008753Y008330D01*
X008695Y008389D02*
X009310Y008389D01*
X009310Y008447D02*
X008636Y008447D01*
X008561Y008506D02*
X009310Y008506D01*
X009310Y008564D02*
X008561Y008564D01*
X008561Y008623D02*
X009310Y008623D01*
X009310Y008681D02*
X008561Y008681D01*
X008534Y008740D02*
X009310Y008740D01*
X009310Y008798D02*
X008476Y008798D01*
X008417Y008857D02*
X009310Y008857D01*
X009310Y008915D02*
X008359Y008915D01*
X008411Y008974D02*
X008848Y008974D01*
X008806Y009032D02*
X008443Y009032D01*
X008443Y009091D02*
X008806Y009091D01*
X008806Y009149D02*
X008443Y009149D01*
X008443Y009208D02*
X008806Y009208D01*
X008806Y009266D02*
X008443Y009266D01*
X008443Y009325D02*
X008806Y009325D01*
X008806Y009383D02*
X008443Y009383D01*
X008443Y009442D02*
X008806Y009442D01*
X008806Y009500D02*
X008443Y009500D01*
X008397Y009559D02*
X008842Y009559D01*
X008881Y009617D02*
X008519Y009617D01*
X008578Y009676D02*
X008881Y009676D01*
X008896Y009734D02*
X008636Y009734D01*
X008590Y009858D02*
X008590Y009883D01*
X008674Y009967D01*
X008674Y010284D01*
X008430Y010528D01*
X008430Y012303D01*
X008221Y012308D02*
X007931Y012308D01*
X007944Y012302D02*
X007931Y012290D01*
X007931Y012415D01*
X007935Y012408D01*
X007963Y012381D01*
X007997Y012361D01*
X008034Y012351D01*
X008144Y012351D01*
X008144Y012904D01*
X008204Y012904D01*
X008204Y012964D01*
X008442Y012964D01*
X008442Y013389D01*
X008432Y013426D01*
X008412Y013460D01*
X008385Y013488D01*
X008351Y013507D01*
X008313Y013517D01*
X008204Y013517D01*
X008204Y012964D01*
X008144Y012964D01*
X008144Y013517D01*
X008034Y013517D01*
X007997Y013507D01*
X007963Y013488D01*
X007935Y013460D01*
X007916Y013426D01*
X007906Y013389D01*
X007906Y013301D01*
X007878Y013328D01*
X007371Y013328D01*
X007318Y013275D01*
X007318Y013161D01*
X007285Y013161D01*
X007285Y013406D01*
X007249Y013443D01*
X007826Y013443D01*
X007879Y013496D01*
X007879Y013708D01*
X007900Y013708D01*
X007900Y013574D01*
X007952Y013521D01*
X008421Y013521D01*
X008473Y013574D01*
X008473Y014072D01*
X008479Y014058D01*
X008565Y013972D01*
X008677Y013925D01*
X008799Y013925D01*
X008911Y013972D01*
X008997Y014058D01*
X009044Y014170D01*
X009044Y014176D01*
X009046Y014181D01*
X009046Y014303D01*
X008999Y014415D01*
X008913Y014501D01*
X008801Y014548D01*
X008680Y014548D01*
X008567Y014501D01*
X008531Y014465D01*
X008531Y014467D01*
X008216Y014467D01*
X008216Y014527D01*
X008531Y014527D01*
X008531Y014733D01*
X008521Y014771D01*
X008502Y014805D01*
X008474Y014832D01*
X008440Y014852D01*
X008436Y014853D01*
X008476Y014893D01*
X008816Y014893D01*
X009090Y014619D01*
X009090Y013903D01*
X009030Y013842D01*
X008894Y013842D01*
X008771Y013720D01*
X008771Y013547D01*
X008894Y013424D01*
X008982Y013424D01*
X008964Y013406D01*
X008964Y012462D01*
X009017Y012409D01*
X009054Y012409D01*
X009054Y012236D01*
X008980Y012162D01*
X008854Y012162D01*
X008794Y012102D01*
X008794Y012409D01*
X008831Y012409D01*
X008884Y012462D01*
X008884Y013406D01*
X008831Y013459D01*
X008517Y013459D01*
X008464Y013406D01*
X008464Y012512D01*
X008442Y012512D01*
X008442Y012904D01*
X008204Y012904D01*
X008204Y012351D01*
X008221Y012351D01*
X008221Y012217D01*
X008310Y012128D01*
X008310Y011019D01*
X008257Y011072D01*
X008084Y011072D01*
X007970Y010958D01*
X007970Y010994D01*
X007960Y011031D01*
X007940Y011065D01*
X007912Y011093D01*
X007879Y011112D01*
X007841Y011122D01*
X007655Y011122D01*
X007655Y010788D01*
X007961Y010788D01*
X007961Y010777D01*
X007973Y010765D01*
X007964Y010756D01*
X007964Y010728D01*
X007655Y010728D01*
X007655Y010788D01*
X007595Y010788D01*
X007595Y011122D01*
X007408Y011122D01*
X007371Y011112D01*
X007337Y011093D01*
X007309Y011065D01*
X007290Y011031D01*
X007280Y010994D01*
X007280Y010788D01*
X007595Y010788D01*
X007595Y010728D01*
X007285Y010728D01*
X007285Y010756D01*
X007233Y010809D01*
X007195Y010809D01*
X007195Y011028D01*
X007159Y011064D01*
X007159Y011190D01*
X007037Y011312D01*
X006950Y011312D01*
X006950Y012188D01*
X006994Y012144D01*
X007167Y012144D01*
X007289Y012267D01*
X007289Y012440D01*
X007276Y012453D01*
X007285Y012462D01*
X007285Y012921D01*
X007318Y012921D01*
X007318Y012807D01*
X007371Y012754D01*
X007878Y012754D01*
X007906Y012782D01*
X007906Y012631D01*
X007878Y012659D01*
X007371Y012659D01*
X007318Y012606D01*
X007318Y012138D01*
X007371Y012085D01*
X007589Y012085D01*
X007630Y012044D01*
X007701Y011973D01*
X007855Y011973D01*
X007944Y011884D01*
X008117Y011884D01*
X008239Y012007D01*
X008239Y012180D01*
X008117Y012302D01*
X007944Y012302D01*
X007931Y012367D02*
X007987Y012367D01*
X008144Y012367D02*
X008204Y012367D01*
X008204Y012425D02*
X008144Y012425D01*
X008144Y012484D02*
X008204Y012484D01*
X008204Y012542D02*
X008144Y012542D01*
X008144Y012601D02*
X008204Y012601D01*
X008204Y012659D02*
X008144Y012659D01*
X008144Y012718D02*
X008204Y012718D01*
X008204Y012776D02*
X008144Y012776D01*
X008144Y012835D02*
X008204Y012835D01*
X008204Y012893D02*
X008144Y012893D01*
X008174Y012934D02*
X008174Y013237D01*
X008580Y013643D01*
X008473Y013654D02*
X008771Y013654D01*
X008771Y013712D02*
X008473Y013712D01*
X008473Y013771D02*
X008822Y013771D01*
X008881Y013829D02*
X008473Y013829D01*
X008473Y013888D02*
X009075Y013888D01*
X009090Y013946D02*
X008850Y013946D01*
X008944Y014005D02*
X009090Y014005D01*
X009090Y014063D02*
X009000Y014063D01*
X009024Y014122D02*
X009090Y014122D01*
X009090Y014180D02*
X009046Y014180D01*
X009046Y014239D02*
X009090Y014239D01*
X009090Y014297D02*
X009046Y014297D01*
X009024Y014356D02*
X009090Y014356D01*
X009090Y014414D02*
X009000Y014414D01*
X008942Y014473D02*
X009090Y014473D01*
X009090Y014531D02*
X008840Y014531D01*
X009003Y014707D02*
X008531Y014707D01*
X008531Y014648D02*
X009061Y014648D01*
X009090Y014590D02*
X008531Y014590D01*
X008531Y014531D02*
X008640Y014531D01*
X008539Y014473D02*
X008216Y014473D01*
X008156Y014473D02*
X006690Y014473D01*
X006690Y014531D02*
X007841Y014531D01*
X007841Y014590D02*
X006639Y014590D01*
X006580Y014648D02*
X007841Y014648D01*
X007841Y014707D02*
X006522Y014707D01*
X006445Y014613D02*
X006570Y014488D01*
X006570Y013683D01*
X006410Y013523D01*
X006330Y013443D01*
X006330Y012263D01*
X006075Y012008D01*
X006075Y010284D01*
X005991Y010200D01*
X005991Y009259D01*
X006278Y009266D02*
X006373Y009266D01*
X006373Y009208D02*
X006278Y009208D01*
X006278Y009149D02*
X006373Y009149D01*
X006373Y009091D02*
X006278Y009091D01*
X006278Y009032D02*
X006373Y009032D01*
X006405Y008974D02*
X006246Y008974D01*
X006278Y009325D02*
X006373Y009325D01*
X006373Y009383D02*
X006278Y009383D01*
X006278Y009442D02*
X006373Y009442D01*
X006373Y009500D02*
X006278Y009500D01*
X006232Y009559D02*
X006419Y009559D01*
X006418Y009759D02*
X006733Y009759D01*
X006785Y009812D01*
X006785Y010756D01*
X006782Y010760D01*
X006789Y010767D01*
X006789Y010940D01*
X006667Y011062D01*
X006494Y011062D01*
X006371Y010940D01*
X006371Y010767D01*
X006374Y010765D01*
X006365Y010756D01*
X006365Y009812D01*
X006418Y009759D01*
X006384Y009793D02*
X006266Y009793D01*
X006285Y009851D02*
X006365Y009851D01*
X006365Y009910D02*
X006285Y009910D01*
X006285Y009968D02*
X006365Y009968D01*
X006365Y010027D02*
X006285Y010027D01*
X006285Y010085D02*
X006365Y010085D01*
X006365Y010144D02*
X006285Y010144D01*
X006285Y010202D02*
X006365Y010202D01*
X006365Y010261D02*
X006285Y010261D01*
X006285Y010319D02*
X006365Y010319D01*
X006365Y010378D02*
X006285Y010378D01*
X006285Y010436D02*
X006365Y010436D01*
X006365Y010495D02*
X006285Y010495D01*
X006285Y010553D02*
X006365Y010553D01*
X006365Y010612D02*
X006285Y010612D01*
X006285Y010670D02*
X006365Y010670D01*
X006365Y010729D02*
X006285Y010729D01*
X006255Y010787D02*
X006371Y010787D01*
X006371Y010846D02*
X006195Y010846D01*
X006195Y010904D02*
X006371Y010904D01*
X006394Y010963D02*
X006195Y010963D01*
X006195Y011021D02*
X006453Y011021D01*
X006580Y010853D02*
X006580Y010284D01*
X006575Y010284D01*
X006785Y010261D02*
X006865Y010261D01*
X006865Y010319D02*
X006785Y010319D01*
X006785Y010378D02*
X006865Y010378D01*
X006865Y010436D02*
X006785Y010436D01*
X006785Y010495D02*
X006865Y010495D01*
X006865Y010553D02*
X006785Y010553D01*
X006785Y010612D02*
X006865Y010612D01*
X006865Y010670D02*
X006785Y010670D01*
X006785Y010729D02*
X006865Y010729D01*
X006896Y010787D02*
X006789Y010787D01*
X006789Y010846D02*
X006955Y010846D01*
X006854Y010904D02*
X006789Y010904D01*
X006795Y010963D02*
X006767Y010963D01*
X006741Y011021D02*
X006708Y011021D01*
X006741Y011080D02*
X006195Y011080D01*
X006195Y011138D02*
X006741Y011138D01*
X006710Y011197D02*
X006195Y011197D01*
X006195Y011255D02*
X006710Y011255D01*
X006710Y011314D02*
X006195Y011314D01*
X006195Y011372D02*
X006710Y011372D01*
X006710Y011431D02*
X006195Y011431D01*
X006195Y011489D02*
X006710Y011489D01*
X006710Y011548D02*
X006195Y011548D01*
X006195Y011606D02*
X006710Y011606D01*
X006710Y011665D02*
X006195Y011665D01*
X006195Y011723D02*
X006710Y011723D01*
X006710Y011782D02*
X006195Y011782D01*
X006195Y011840D02*
X006710Y011840D01*
X006710Y011899D02*
X006195Y011899D01*
X006195Y011957D02*
X006710Y011957D01*
X006710Y012016D02*
X006253Y012016D01*
X006311Y012074D02*
X006710Y012074D01*
X006710Y012133D02*
X006370Y012133D01*
X006428Y012191D02*
X006447Y012191D01*
X006570Y012363D02*
X006575Y012408D01*
X006575Y012934D01*
X007075Y012934D02*
X007075Y012358D01*
X007080Y012353D01*
X007214Y012191D02*
X007318Y012191D01*
X007323Y012133D02*
X006950Y012133D01*
X006950Y012074D02*
X007599Y012074D01*
X007658Y012016D02*
X006950Y012016D01*
X006950Y011957D02*
X007871Y011957D01*
X007929Y011899D02*
X006950Y011899D01*
X006950Y011840D02*
X008310Y011840D01*
X008310Y011782D02*
X006950Y011782D01*
X006950Y011723D02*
X008310Y011723D01*
X008310Y011665D02*
X006950Y011665D01*
X006950Y011606D02*
X008310Y011606D01*
X008310Y011548D02*
X006950Y011548D01*
X006950Y011489D02*
X008310Y011489D01*
X008310Y011431D02*
X006950Y011431D01*
X006950Y011372D02*
X008310Y011372D01*
X008310Y011314D02*
X006950Y011314D01*
X006830Y011223D02*
X006950Y011103D01*
X007075Y010978D01*
X007075Y010284D01*
X007075Y010088D02*
X007625Y010088D01*
X007338Y009968D02*
X007285Y009968D01*
X007285Y009910D02*
X007338Y009910D01*
X007338Y009851D02*
X007285Y009851D01*
X007266Y009793D02*
X007380Y009793D01*
X007443Y009734D02*
X006111Y009734D01*
X006111Y009676D02*
X007385Y009676D01*
X007367Y009617D02*
X006111Y009617D01*
X005871Y009617D02*
X005799Y009617D01*
X005799Y009607D02*
X005799Y009780D01*
X005776Y009803D01*
X005785Y009812D01*
X005785Y010756D01*
X005733Y010809D01*
X005418Y010809D01*
X005365Y010756D01*
X005365Y010728D01*
X005056Y010728D01*
X005056Y010788D01*
X004996Y010788D01*
X004996Y011122D01*
X004810Y011122D01*
X004772Y011112D01*
X004738Y011093D01*
X004711Y011065D01*
X004691Y011031D01*
X004689Y011024D01*
X004689Y011190D01*
X004658Y011221D01*
X004991Y011554D01*
X005117Y011554D01*
X005239Y011677D01*
X005239Y011850D01*
X005150Y011939D01*
X005150Y012085D01*
X005280Y012085D01*
X005333Y012138D01*
X005333Y012415D01*
X005337Y012408D01*
X005364Y012381D01*
X005398Y012361D01*
X005436Y012351D01*
X005545Y012351D01*
X005545Y012904D01*
X005605Y012904D01*
X005605Y012351D01*
X005710Y012351D01*
X005710Y011969D01*
X005621Y011880D01*
X005621Y011707D01*
X005744Y011584D01*
X005917Y011584D01*
X005955Y011623D01*
X005955Y010809D01*
X005918Y010809D01*
X005865Y010756D01*
X005865Y009812D01*
X005871Y009807D01*
X005871Y009566D01*
X005759Y009566D01*
X005799Y009607D01*
X005799Y009676D02*
X005871Y009676D01*
X005871Y009734D02*
X005799Y009734D01*
X005787Y009793D02*
X005871Y009793D01*
X005865Y009851D02*
X005785Y009851D01*
X005785Y009910D02*
X005865Y009910D01*
X005865Y009968D02*
X005785Y009968D01*
X005785Y010027D02*
X005865Y010027D01*
X005865Y010085D02*
X005785Y010085D01*
X005785Y010144D02*
X005865Y010144D01*
X005865Y010202D02*
X005785Y010202D01*
X005785Y010261D02*
X005865Y010261D01*
X005865Y010319D02*
X005785Y010319D01*
X005785Y010378D02*
X005865Y010378D01*
X005865Y010436D02*
X005785Y010436D01*
X005785Y010495D02*
X005865Y010495D01*
X005865Y010553D02*
X005785Y010553D01*
X005785Y010612D02*
X005865Y010612D01*
X005865Y010670D02*
X005785Y010670D01*
X005785Y010729D02*
X005865Y010729D01*
X005896Y010787D02*
X005755Y010787D01*
X005955Y010846D02*
X005371Y010846D01*
X005371Y010788D02*
X005371Y010994D01*
X005361Y011031D01*
X005342Y011065D01*
X005314Y011093D01*
X005280Y011112D01*
X005243Y011122D01*
X005056Y011122D01*
X005056Y010788D01*
X005371Y010788D01*
X005396Y010787D02*
X005056Y010787D01*
X005056Y010729D02*
X005365Y010729D01*
X005371Y010904D02*
X005955Y010904D01*
X005955Y010963D02*
X005371Y010963D01*
X005364Y011021D02*
X005955Y011021D01*
X005955Y011080D02*
X005327Y011080D01*
X005056Y011080D02*
X004996Y011080D01*
X004996Y011021D02*
X005056Y011021D01*
X005056Y010963D02*
X004996Y010963D01*
X004996Y010904D02*
X005056Y010904D01*
X005056Y010846D02*
X004996Y010846D01*
X004996Y010788D02*
X004996Y010728D01*
X004687Y010728D01*
X004687Y010756D01*
X004634Y010809D01*
X004597Y010809D01*
X004597Y010924D01*
X004687Y011014D01*
X004681Y010994D01*
X004681Y010788D01*
X004996Y010788D01*
X004996Y010787D02*
X004656Y010787D01*
X004681Y010846D02*
X004597Y010846D01*
X004597Y010904D02*
X004681Y010904D01*
X004681Y010963D02*
X004636Y010963D01*
X004689Y011080D02*
X004725Y011080D01*
X004689Y011138D02*
X005955Y011138D01*
X005955Y011197D02*
X004683Y011197D01*
X004692Y011255D02*
X005955Y011255D01*
X005955Y011314D02*
X004751Y011314D01*
X004809Y011372D02*
X005955Y011372D01*
X005955Y011431D02*
X004868Y011431D01*
X004926Y011489D02*
X005955Y011489D01*
X005955Y011548D02*
X004985Y011548D01*
X005169Y011606D02*
X005722Y011606D01*
X005663Y011665D02*
X005228Y011665D01*
X005239Y011723D02*
X005621Y011723D01*
X005621Y011782D02*
X005239Y011782D01*
X005239Y011840D02*
X005621Y011840D01*
X005640Y011899D02*
X005191Y011899D01*
X005150Y011957D02*
X005699Y011957D01*
X005710Y012016D02*
X005150Y012016D01*
X005150Y012074D02*
X005710Y012074D01*
X005710Y012133D02*
X005328Y012133D01*
X005333Y012191D02*
X005710Y012191D01*
X005710Y012250D02*
X005333Y012250D01*
X005333Y012308D02*
X005710Y012308D01*
X005605Y012367D02*
X005545Y012367D01*
X005545Y012425D02*
X005605Y012425D01*
X005605Y012484D02*
X005545Y012484D01*
X005545Y012542D02*
X005605Y012542D01*
X005605Y012601D02*
X005545Y012601D01*
X005545Y012659D02*
X005605Y012659D01*
X005605Y012718D02*
X005545Y012718D01*
X005545Y012776D02*
X005605Y012776D01*
X005605Y012835D02*
X005545Y012835D01*
X005545Y012893D02*
X005605Y012893D01*
X005605Y012904D02*
X005605Y012964D01*
X005844Y012964D01*
X005844Y013389D01*
X005833Y013426D01*
X005824Y013443D01*
X005826Y013443D01*
X005879Y013496D01*
X005879Y014358D01*
X005832Y014404D01*
X005937Y014404D01*
X006026Y014493D01*
X006396Y014493D01*
X006450Y014439D01*
X006450Y013733D01*
X006361Y013643D01*
X006281Y013563D01*
X006210Y013493D01*
X006210Y013459D01*
X005918Y013459D01*
X005865Y013406D01*
X005865Y012568D01*
X005844Y012546D01*
X005844Y012904D01*
X005605Y012904D01*
X005605Y012952D02*
X005865Y012952D01*
X005865Y013010D02*
X005844Y013010D01*
X005844Y013069D02*
X005865Y013069D01*
X005865Y013127D02*
X005844Y013127D01*
X005844Y013186D02*
X005865Y013186D01*
X005865Y013244D02*
X005844Y013244D01*
X005844Y013303D02*
X005865Y013303D01*
X005865Y013361D02*
X005844Y013361D01*
X005835Y013420D02*
X005879Y013420D01*
X005861Y013478D02*
X006210Y013478D01*
X006254Y013537D02*
X005879Y013537D01*
X005879Y013595D02*
X006313Y013595D01*
X006371Y013654D02*
X005879Y013654D01*
X005879Y013712D02*
X006430Y013712D01*
X006450Y013771D02*
X005879Y013771D01*
X005879Y013829D02*
X006450Y013829D01*
X006450Y013888D02*
X005879Y013888D01*
X005879Y013946D02*
X006450Y013946D01*
X006450Y014005D02*
X005879Y014005D01*
X005879Y014063D02*
X006450Y014063D01*
X006450Y014122D02*
X005879Y014122D01*
X005879Y014180D02*
X006450Y014180D01*
X006450Y014239D02*
X005879Y014239D01*
X005879Y014297D02*
X006450Y014297D01*
X006450Y014356D02*
X005879Y014356D01*
X005947Y014414D02*
X006450Y014414D01*
X006416Y014473D02*
X006006Y014473D01*
X005850Y014613D02*
X006445Y014613D01*
X006690Y014414D02*
X007841Y014414D01*
X007850Y014765D02*
X006012Y014765D01*
X006071Y014824D02*
X007890Y014824D01*
X007826Y015097D02*
X007879Y015150D01*
X007879Y016012D01*
X007826Y016064D01*
X007043Y016064D01*
X006990Y016012D01*
X006990Y015150D01*
X007043Y015097D01*
X007826Y015097D01*
X007845Y015116D02*
X008108Y015116D01*
X008091Y015058D02*
X006431Y015058D01*
X006459Y015116D02*
X007023Y015116D01*
X006990Y015175D02*
X006459Y015175D01*
X006459Y015233D02*
X006990Y015233D01*
X006990Y015292D02*
X006427Y015292D01*
X006369Y015350D02*
X006990Y015350D01*
X006990Y015409D02*
X005937Y015409D01*
X005937Y015467D02*
X006990Y015467D01*
X006990Y015526D02*
X005937Y015526D01*
X005937Y015551D02*
X005464Y015551D01*
X005464Y015611D01*
X005404Y015611D01*
X005404Y015551D01*
X004932Y015551D01*
X004932Y015167D01*
X004942Y015130D01*
X004961Y015096D01*
X004989Y015068D01*
X005023Y015049D01*
X005060Y015039D01*
X005404Y015039D01*
X005404Y015551D01*
X005464Y015551D01*
X005464Y015039D01*
X005808Y015039D01*
X005846Y015049D01*
X005879Y015068D01*
X005907Y015096D01*
X005927Y015130D01*
X005937Y015167D01*
X005937Y015551D01*
X005937Y015611D02*
X005937Y015994D01*
X006990Y015994D01*
X006990Y015935D02*
X005937Y015935D01*
X005937Y015877D02*
X006990Y015877D01*
X006990Y015818D02*
X005937Y015818D01*
X005937Y015760D02*
X006990Y015760D01*
X006990Y015701D02*
X005937Y015701D01*
X005937Y015643D02*
X006990Y015643D01*
X006990Y015584D02*
X005464Y015584D01*
X005464Y015611D02*
X005937Y015611D01*
X005937Y015350D02*
X006132Y015350D01*
X006073Y015292D02*
X005937Y015292D01*
X005937Y015233D02*
X006041Y015233D01*
X006041Y015175D02*
X005937Y015175D01*
X005919Y015116D02*
X006024Y015116D01*
X005965Y015058D02*
X005861Y015058D01*
X005960Y014883D02*
X004460Y014883D01*
X003220Y013643D01*
X003220Y011973D01*
X003700Y011493D01*
X003970Y011223D01*
X003970Y010853D01*
X003977Y010853D01*
X003977Y010284D01*
X003960Y010268D01*
X003960Y007423D01*
X004800Y006583D01*
X004838Y007160D02*
X004393Y007160D01*
X004335Y007219D02*
X004838Y007219D01*
X004838Y007277D02*
X004276Y007277D01*
X004218Y007336D02*
X004894Y007336D01*
X004953Y007394D02*
X004159Y007394D01*
X004101Y007453D02*
X005011Y007453D01*
X005070Y007511D02*
X004080Y007511D01*
X004080Y007570D02*
X009310Y007570D01*
X009310Y007628D02*
X004080Y007628D01*
X004080Y007687D02*
X004614Y007687D01*
X004555Y007745D02*
X004080Y007745D01*
X004080Y007804D02*
X004497Y007804D01*
X004438Y007862D02*
X004080Y007862D01*
X004080Y007921D02*
X004390Y007921D01*
X004390Y007979D02*
X004080Y007979D01*
X004080Y008623D02*
X006504Y008623D01*
X006446Y008681D02*
X004080Y008681D01*
X003629Y009259D02*
X003520Y009368D01*
X003520Y009993D01*
X003477Y010037D01*
X003400Y010208D02*
X003477Y010284D01*
X004098Y011021D02*
X004271Y011021D01*
X004271Y011080D02*
X004090Y011080D01*
X004090Y011138D02*
X004271Y011138D01*
X004278Y011197D02*
X004090Y011197D01*
X004090Y011255D02*
X004337Y011255D01*
X004411Y011314D02*
X004050Y011314D01*
X003991Y011372D02*
X004470Y011372D01*
X004528Y011431D02*
X003933Y011431D01*
X003909Y011489D02*
X004587Y011489D01*
X004645Y011548D02*
X003909Y011548D01*
X003883Y011606D02*
X004704Y011606D01*
X004762Y011665D02*
X003825Y011665D01*
X003640Y011723D02*
X004821Y011723D01*
X004821Y011782D02*
X003582Y011782D01*
X003523Y011840D02*
X004821Y011840D01*
X004870Y011899D02*
X003465Y011899D01*
X003406Y011957D02*
X004910Y011957D01*
X004910Y012016D02*
X003348Y012016D01*
X003340Y012074D02*
X004910Y012074D01*
X004725Y012133D02*
X003340Y012133D01*
X003340Y012191D02*
X003357Y012191D01*
X003480Y012363D02*
X003480Y012931D01*
X003477Y012934D01*
X003687Y012952D02*
X003767Y012952D01*
X003767Y013010D02*
X003687Y013010D01*
X003687Y013069D02*
X003767Y013069D01*
X003767Y013127D02*
X003687Y013127D01*
X003687Y013186D02*
X003767Y013186D01*
X003767Y013244D02*
X003687Y013244D01*
X003687Y013303D02*
X003767Y013303D01*
X003767Y013361D02*
X003687Y013361D01*
X003674Y013420D02*
X003780Y013420D01*
X003857Y013478D02*
X003340Y013478D01*
X003340Y013537D02*
X003857Y013537D01*
X003857Y013595D02*
X003342Y013595D01*
X003401Y013654D02*
X003913Y013654D01*
X003971Y013712D02*
X003459Y013712D01*
X003518Y013771D02*
X004030Y013771D01*
X004088Y013829D02*
X003576Y013829D01*
X003635Y013888D02*
X004147Y013888D01*
X004242Y013813D02*
X005395Y013813D01*
X005434Y013927D01*
X005439Y013813D01*
X005474Y013798D02*
X005434Y013927D01*
X005474Y013798D02*
X005349Y013673D01*
X004990Y013654D02*
X004252Y013654D01*
X004194Y013595D02*
X004727Y013595D01*
X004668Y013537D02*
X004135Y013537D01*
X004097Y013478D02*
X004661Y013478D01*
X004870Y013443D02*
X004870Y013197D01*
X005026Y013041D01*
X004584Y013041D01*
X004477Y012934D01*
X004267Y012952D02*
X004187Y012952D01*
X004187Y013010D02*
X004267Y013010D01*
X004267Y013069D02*
X004187Y013069D01*
X004187Y013127D02*
X004267Y013127D01*
X004267Y013186D02*
X004187Y013186D01*
X004187Y013244D02*
X004267Y013244D01*
X004267Y013303D02*
X004187Y013303D01*
X004187Y013361D02*
X004267Y013361D01*
X004280Y013420D02*
X004174Y013420D01*
X003977Y013548D02*
X003977Y012934D01*
X003767Y012893D02*
X003687Y012893D01*
X003687Y012835D02*
X003767Y012835D01*
X003767Y012776D02*
X003687Y012776D01*
X003687Y012718D02*
X003767Y012718D01*
X003767Y012659D02*
X003687Y012659D01*
X003687Y012601D02*
X003767Y012601D01*
X003767Y012542D02*
X003687Y012542D01*
X003687Y012484D02*
X003767Y012484D01*
X003804Y012425D02*
X003689Y012425D01*
X003689Y012367D02*
X004720Y012367D01*
X004720Y012425D02*
X004650Y012425D01*
X004687Y012484D02*
X004720Y012484D01*
X004720Y012542D02*
X004687Y012542D01*
X004687Y012601D02*
X004720Y012601D01*
X004687Y012659D02*
X005307Y012659D01*
X005307Y012718D02*
X004687Y012718D01*
X004687Y012776D02*
X004750Y012776D01*
X004720Y012835D02*
X004687Y012835D01*
X004687Y012893D02*
X004720Y012893D01*
X004720Y012308D02*
X003689Y012308D01*
X003663Y012250D02*
X004720Y012250D01*
X004720Y012191D02*
X003604Y012191D01*
X004150Y012425D02*
X004304Y012425D01*
X004267Y012484D02*
X004187Y012484D01*
X004187Y012542D02*
X004267Y012542D01*
X004267Y012601D02*
X004187Y012601D01*
X004187Y012659D02*
X004267Y012659D01*
X004267Y012718D02*
X004187Y012718D01*
X004187Y012776D02*
X004267Y012776D01*
X004267Y012835D02*
X004187Y012835D01*
X004187Y012893D02*
X004267Y012893D01*
X003977Y013548D02*
X004242Y013813D01*
X004336Y014005D02*
X003752Y014005D01*
X003810Y014063D02*
X004281Y014063D01*
X004257Y014122D02*
X003869Y014122D01*
X003927Y014180D02*
X004235Y014180D01*
X004235Y014239D02*
X003986Y014239D01*
X004044Y014297D02*
X004235Y014297D01*
X004257Y014356D02*
X004103Y014356D01*
X004161Y014414D02*
X004281Y014414D01*
X004339Y014473D02*
X004220Y014473D01*
X004278Y014531D02*
X004440Y014531D01*
X004337Y014590D02*
X005641Y014590D01*
X005641Y014648D02*
X004395Y014648D01*
X004454Y014707D02*
X005648Y014707D01*
X005641Y014531D02*
X004640Y014531D01*
X004742Y014473D02*
X005695Y014473D01*
X005754Y014414D02*
X004800Y014414D01*
X004824Y014356D02*
X004990Y014356D01*
X004990Y014297D02*
X004846Y014297D01*
X004848Y014239D02*
X004990Y014239D01*
X004990Y014180D02*
X004848Y014180D01*
X004828Y014122D02*
X004990Y014122D01*
X004990Y014063D02*
X004804Y014063D01*
X004749Y014005D02*
X004990Y014005D01*
X004990Y013946D02*
X004654Y013946D01*
X004431Y013946D02*
X003693Y013946D01*
X003529Y014122D02*
X003255Y014122D01*
X003313Y014180D02*
X003588Y014180D01*
X003646Y014239D02*
X003372Y014239D01*
X003430Y014297D02*
X003705Y014297D01*
X003763Y014356D02*
X003489Y014356D01*
X003548Y014414D02*
X003822Y014414D01*
X003880Y014473D02*
X003606Y014473D01*
X003665Y014531D02*
X003939Y014531D01*
X003997Y014590D02*
X003723Y014590D01*
X003782Y014648D02*
X004056Y014648D01*
X004114Y014707D02*
X003840Y014707D01*
X003899Y014765D02*
X004173Y014765D01*
X004231Y014824D02*
X003957Y014824D01*
X004016Y014882D02*
X004290Y014882D01*
X004340Y014933D02*
X004340Y014933D01*
X004348Y014941D02*
X004075Y014941D01*
X004133Y014999D02*
X004407Y014999D01*
X004250Y015116D02*
X004950Y015116D01*
X004932Y015175D02*
X004309Y015175D01*
X004367Y015233D02*
X004932Y015233D01*
X004932Y015292D02*
X004426Y015292D01*
X004484Y015350D02*
X004932Y015350D01*
X004932Y015409D02*
X004543Y015409D01*
X004602Y015467D02*
X004932Y015467D01*
X004932Y015526D02*
X004660Y015526D01*
X004719Y015584D02*
X005404Y015584D01*
X005404Y015526D02*
X005464Y015526D01*
X005464Y015467D02*
X005404Y015467D01*
X005404Y015409D02*
X005464Y015409D01*
X005464Y015350D02*
X005404Y015350D01*
X005404Y015292D02*
X005464Y015292D01*
X005464Y015233D02*
X005404Y015233D01*
X005404Y015175D02*
X005464Y015175D01*
X005464Y015116D02*
X005404Y015116D01*
X005404Y015058D02*
X005464Y015058D01*
X005007Y015058D02*
X004192Y015058D01*
X004777Y015643D02*
X004932Y015643D01*
X004932Y015701D02*
X004836Y015701D01*
X004894Y015760D02*
X004932Y015760D01*
X005304Y016169D02*
X007977Y016169D01*
X008035Y016111D02*
X005848Y016111D01*
X005846Y016112D02*
X005808Y016122D01*
X005464Y016122D01*
X005464Y015611D01*
X005464Y015643D02*
X005404Y015643D01*
X005404Y015701D02*
X005464Y015701D01*
X005464Y015760D02*
X005404Y015760D01*
X005404Y015818D02*
X005464Y015818D01*
X005464Y015877D02*
X005404Y015877D01*
X005404Y015935D02*
X005464Y015935D01*
X005464Y015994D02*
X005404Y015994D01*
X005404Y016052D02*
X005464Y016052D01*
X005464Y016111D02*
X005404Y016111D01*
X005846Y016112D02*
X005879Y016093D01*
X005907Y016065D01*
X005927Y016031D01*
X005937Y015994D01*
X005914Y016052D02*
X007031Y016052D01*
X007838Y016052D02*
X008094Y016052D01*
X008152Y015994D02*
X007879Y015994D01*
X007879Y015935D02*
X008211Y015935D01*
X008269Y015877D02*
X007879Y015877D01*
X007879Y015818D02*
X008328Y015818D01*
X008386Y015760D02*
X007879Y015760D01*
X007879Y015701D02*
X008445Y015701D01*
X008504Y015643D02*
X007879Y015643D01*
X007879Y015584D02*
X008562Y015584D01*
X008621Y015526D02*
X007879Y015526D01*
X007879Y015467D02*
X008679Y015467D01*
X008738Y015409D02*
X007879Y015409D01*
X007879Y015350D02*
X008796Y015350D01*
X008855Y015292D02*
X007879Y015292D01*
X007879Y015233D02*
X008913Y015233D01*
X008972Y015175D02*
X008434Y015175D01*
X008300Y015013D02*
X008866Y015013D01*
X009210Y014669D01*
X009210Y014343D01*
X009210Y013853D01*
X008990Y013633D01*
X008980Y013633D01*
X008840Y013478D02*
X008394Y013478D01*
X008434Y013420D02*
X008477Y013420D01*
X008464Y013361D02*
X008442Y013361D01*
X008442Y013303D02*
X008464Y013303D01*
X008464Y013244D02*
X008442Y013244D01*
X008442Y013186D02*
X008464Y013186D01*
X008464Y013127D02*
X008442Y013127D01*
X008442Y013069D02*
X008464Y013069D01*
X008464Y013010D02*
X008442Y013010D01*
X008464Y012952D02*
X008204Y012952D01*
X008204Y013010D02*
X008144Y013010D01*
X008144Y013069D02*
X008204Y013069D01*
X008204Y013127D02*
X008144Y013127D01*
X008144Y013186D02*
X008204Y013186D01*
X008204Y013244D02*
X008144Y013244D01*
X008144Y013303D02*
X008204Y013303D01*
X008204Y013361D02*
X008144Y013361D01*
X008144Y013420D02*
X008204Y013420D01*
X008204Y013478D02*
X008144Y013478D01*
X007954Y013478D02*
X007861Y013478D01*
X007879Y013537D02*
X007937Y013537D01*
X007900Y013595D02*
X007879Y013595D01*
X007879Y013654D02*
X007900Y013654D01*
X007914Y013420D02*
X007272Y013420D01*
X007285Y013361D02*
X007906Y013361D01*
X007904Y013303D02*
X007906Y013303D01*
X007625Y013041D02*
X007182Y013041D01*
X007075Y012934D01*
X007285Y012893D02*
X007318Y012893D01*
X007318Y012835D02*
X007285Y012835D01*
X007285Y012776D02*
X007349Y012776D01*
X007285Y012718D02*
X007906Y012718D01*
X007900Y012776D02*
X007906Y012776D01*
X007906Y012659D02*
X007285Y012659D01*
X007285Y012601D02*
X007318Y012601D01*
X007318Y012542D02*
X007285Y012542D01*
X007285Y012484D02*
X007318Y012484D01*
X007318Y012425D02*
X007289Y012425D01*
X007289Y012367D02*
X007318Y012367D01*
X007318Y012308D02*
X007289Y012308D01*
X007273Y012250D02*
X007318Y012250D01*
X007625Y012372D02*
X007652Y012372D01*
X007652Y012192D01*
X007750Y012093D01*
X008030Y012093D01*
X008190Y011957D02*
X008310Y011957D01*
X008310Y011899D02*
X008132Y011899D01*
X008239Y012016D02*
X008310Y012016D01*
X008310Y012074D02*
X008239Y012074D01*
X008239Y012133D02*
X008305Y012133D01*
X008247Y012191D02*
X008228Y012191D01*
X008221Y012250D02*
X008170Y012250D01*
X008442Y012542D02*
X008464Y012542D01*
X008464Y012601D02*
X008442Y012601D01*
X008442Y012659D02*
X008464Y012659D01*
X008464Y012718D02*
X008442Y012718D01*
X008442Y012776D02*
X008464Y012776D01*
X008464Y012835D02*
X008442Y012835D01*
X008442Y012893D02*
X008464Y012893D01*
X008674Y012934D02*
X008674Y011780D01*
X009130Y011323D01*
X009430Y011023D01*
X009430Y006903D01*
X009110Y006583D01*
X007125Y006583D01*
X006638Y006096D01*
X006904Y005815D02*
X007273Y005815D01*
X007214Y005873D02*
X006963Y005873D01*
X007021Y005932D02*
X007156Y005932D01*
X007152Y005990D02*
X007024Y005990D01*
X007024Y006049D02*
X007152Y006049D01*
X007152Y006107D02*
X007024Y006107D01*
X007024Y006166D02*
X007152Y006166D01*
X007152Y006224D02*
X007024Y006224D01*
X006997Y006283D02*
X007179Y006283D01*
X007238Y006341D02*
X007053Y006341D01*
X007112Y006400D02*
X007296Y006400D01*
X007355Y006458D02*
X007170Y006458D01*
X007371Y006751D02*
X007703Y006751D01*
X007645Y006809D02*
X007430Y006809D01*
X007488Y006868D02*
X007586Y006868D01*
X007543Y006926D02*
X007531Y006926D01*
X007531Y006985D02*
X007543Y006985D01*
X007543Y007043D02*
X007531Y007043D01*
X007531Y007126D02*
X007531Y007280D01*
X007271Y007540D01*
X007116Y007540D01*
X007116Y007126D01*
X007531Y007126D01*
X007531Y007160D02*
X007543Y007160D01*
X007543Y007219D02*
X007531Y007219D01*
X007531Y007277D02*
X007543Y007277D01*
X007599Y007336D02*
X007475Y007336D01*
X007417Y007394D02*
X007658Y007394D01*
X007716Y007453D02*
X007358Y007453D01*
X007300Y007511D02*
X007775Y007511D01*
X007958Y007511D02*
X008018Y007511D01*
X008018Y007540D02*
X008018Y007126D01*
X008433Y007126D01*
X008433Y007280D01*
X008172Y007540D01*
X008018Y007540D01*
X008018Y007453D02*
X007958Y007453D01*
X007958Y007394D02*
X008018Y007394D01*
X008018Y007336D02*
X007958Y007336D01*
X007958Y007277D02*
X008018Y007277D01*
X008018Y007219D02*
X007958Y007219D01*
X007958Y007160D02*
X008018Y007160D01*
X008018Y007102D02*
X008860Y007102D01*
X008860Y007160D02*
X008920Y007160D01*
X008920Y007219D02*
X008860Y007219D01*
X008860Y007277D02*
X008920Y007277D01*
X008920Y007336D02*
X008860Y007336D01*
X008860Y007394D02*
X008920Y007394D01*
X008920Y007453D02*
X008860Y007453D01*
X008860Y007511D02*
X008920Y007511D01*
X009103Y007511D02*
X009310Y007511D01*
X009310Y007453D02*
X009162Y007453D01*
X009220Y007394D02*
X009310Y007394D01*
X009310Y007336D02*
X009279Y007336D01*
X009550Y007336D02*
X010269Y007336D01*
X010211Y007277D02*
X009550Y007277D01*
X009550Y007219D02*
X010152Y007219D01*
X010094Y007160D02*
X009550Y007160D01*
X009550Y007102D02*
X010035Y007102D01*
X009977Y007043D02*
X009550Y007043D01*
X009550Y006985D02*
X009918Y006985D01*
X009860Y006926D02*
X009550Y006926D01*
X009550Y006868D02*
X009801Y006868D01*
X009743Y006809D02*
X009506Y006809D01*
X009448Y006751D02*
X009684Y006751D01*
X009626Y006692D02*
X009389Y006692D01*
X009331Y006634D02*
X009567Y006634D01*
X009509Y006575D02*
X009272Y006575D01*
X009214Y006517D02*
X009450Y006517D01*
X009392Y006458D02*
X008625Y006458D01*
X008684Y006400D02*
X009333Y006400D01*
X009275Y006341D02*
X008742Y006341D01*
X008801Y006283D02*
X009216Y006283D01*
X009158Y006224D02*
X008828Y006224D01*
X008828Y006166D02*
X009099Y006166D01*
X009041Y006107D02*
X008828Y006107D01*
X008828Y006049D02*
X008982Y006049D01*
X008924Y005990D02*
X008828Y005990D01*
X008824Y005932D02*
X008865Y005932D01*
X008807Y005873D02*
X008766Y005873D01*
X008748Y005815D02*
X008707Y005815D01*
X008690Y005756D02*
X008649Y005756D01*
X008573Y005639D02*
X004708Y005639D01*
X004766Y005581D02*
X008514Y005581D01*
X008456Y005522D02*
X004825Y005522D01*
X004883Y005464D02*
X008397Y005464D01*
X008339Y005405D02*
X004942Y005405D01*
X005000Y005347D02*
X008280Y005347D01*
X008222Y005288D02*
X005059Y005288D01*
X005117Y005230D02*
X008163Y005230D01*
X008105Y005171D02*
X005176Y005171D01*
X005234Y005113D02*
X008046Y005113D01*
X007988Y005054D02*
X005293Y005054D01*
X005528Y005756D02*
X005042Y005756D01*
X005543Y006458D02*
X005552Y006458D01*
X005920Y006458D02*
X006453Y006458D01*
X006395Y006400D02*
X005979Y006400D01*
X006037Y006341D02*
X006336Y006341D01*
X006278Y006283D02*
X006096Y006283D01*
X006123Y006224D02*
X006251Y006224D01*
X006251Y006166D02*
X006123Y006166D01*
X006123Y006107D02*
X006251Y006107D01*
X006251Y006049D02*
X006123Y006049D01*
X006123Y005990D02*
X006251Y005990D01*
X006254Y005932D02*
X006119Y005932D01*
X006061Y005873D02*
X006313Y005873D01*
X006371Y005815D02*
X006002Y005815D01*
X005944Y005756D02*
X006430Y005756D01*
X006846Y005756D02*
X007331Y005756D01*
X007747Y005756D02*
X008233Y005756D01*
X008174Y005815D02*
X007806Y005815D01*
X007864Y005873D02*
X008116Y005873D01*
X008057Y005932D02*
X007923Y005932D01*
X007926Y005990D02*
X008054Y005990D01*
X008054Y006049D02*
X007926Y006049D01*
X007926Y006107D02*
X008054Y006107D01*
X008054Y006166D02*
X007926Y006166D01*
X007926Y006224D02*
X008054Y006224D01*
X008081Y006283D02*
X007899Y006283D01*
X007840Y006341D02*
X008139Y006341D01*
X008198Y006400D02*
X007782Y006400D01*
X007723Y006458D02*
X008256Y006458D01*
X008273Y006751D02*
X008605Y006751D01*
X008547Y006809D02*
X008331Y006809D01*
X008390Y006868D02*
X008488Y006868D01*
X008445Y006926D02*
X008433Y006926D01*
X008433Y006985D02*
X008445Y006985D01*
X008445Y007043D02*
X008433Y007043D01*
X008433Y007160D02*
X008445Y007160D01*
X008445Y007219D02*
X008433Y007219D01*
X008433Y007277D02*
X008445Y007277D01*
X008501Y007336D02*
X008377Y007336D01*
X008318Y007394D02*
X008559Y007394D01*
X008618Y007453D02*
X008260Y007453D01*
X008201Y007511D02*
X008676Y007511D01*
X008244Y007745D02*
X007736Y007745D01*
X007795Y007804D02*
X008185Y007804D01*
X008127Y007862D02*
X007853Y007862D01*
X007912Y007921D02*
X008068Y007921D01*
X008054Y007979D02*
X007926Y007979D01*
X007926Y008038D02*
X008054Y008038D01*
X008054Y008096D02*
X007926Y008096D01*
X007926Y008155D02*
X008054Y008155D01*
X008054Y008213D02*
X007926Y008213D01*
X007910Y008272D02*
X008070Y008272D01*
X008128Y008330D02*
X007851Y008330D01*
X007793Y008389D02*
X008187Y008389D01*
X008245Y008447D02*
X007734Y008447D01*
X007659Y008506D02*
X008321Y008506D01*
X008321Y008564D02*
X007659Y008564D01*
X007659Y008623D02*
X008312Y008623D01*
X008253Y008681D02*
X007659Y008681D01*
X007628Y008740D02*
X008195Y008740D01*
X008136Y008798D02*
X007570Y008798D01*
X007511Y008857D02*
X008078Y008857D01*
X008036Y008915D02*
X007453Y008915D01*
X007375Y008823D02*
X007539Y008659D01*
X007539Y008096D01*
X007344Y008447D02*
X006833Y008447D01*
X006758Y008506D02*
X007419Y008506D01*
X007419Y008564D02*
X006758Y008564D01*
X006758Y008623D02*
X007406Y008623D01*
X007347Y008681D02*
X006758Y008681D01*
X006785Y008823D02*
X007375Y008823D01*
X007232Y008974D02*
X006915Y008974D01*
X006947Y009032D02*
X007200Y009032D01*
X007200Y009091D02*
X006947Y009091D01*
X006947Y009149D02*
X007200Y009149D01*
X007200Y009208D02*
X006947Y009208D01*
X006947Y009266D02*
X007200Y009266D01*
X007200Y009325D02*
X006947Y009325D01*
X006947Y009383D02*
X007200Y009383D01*
X007200Y009442D02*
X006947Y009442D01*
X006947Y009500D02*
X007200Y009500D01*
X007246Y009559D02*
X006901Y009559D01*
X006884Y009793D02*
X006766Y009793D01*
X006785Y009851D02*
X006865Y009851D01*
X006865Y009910D02*
X006785Y009910D01*
X006785Y009968D02*
X006865Y009968D01*
X006865Y010027D02*
X006785Y010027D01*
X006785Y010085D02*
X006865Y010085D01*
X006865Y010144D02*
X006785Y010144D01*
X006785Y010202D02*
X006865Y010202D01*
X007285Y010729D02*
X007595Y010729D01*
X007595Y010787D02*
X007255Y010787D01*
X007280Y010846D02*
X007195Y010846D01*
X007195Y010904D02*
X007280Y010904D01*
X007280Y010963D02*
X007195Y010963D01*
X007195Y011021D02*
X007287Y011021D01*
X007324Y011080D02*
X007159Y011080D01*
X007159Y011138D02*
X008310Y011138D01*
X008310Y011080D02*
X007925Y011080D01*
X007962Y011021D02*
X008033Y011021D01*
X007974Y010963D02*
X007970Y010963D01*
X007961Y010787D02*
X007655Y010787D01*
X007655Y010729D02*
X007964Y010729D01*
X008170Y010863D02*
X008174Y010860D01*
X008174Y010284D01*
X008180Y010284D01*
X008590Y009858D02*
X008465Y009733D01*
X007612Y009733D01*
X007487Y009608D01*
X007487Y009259D01*
X007742Y008974D02*
X007901Y008974D01*
X007869Y009032D02*
X007774Y009032D01*
X007774Y009091D02*
X007869Y009091D01*
X007869Y009149D02*
X007774Y009149D01*
X007774Y009208D02*
X007869Y009208D01*
X007869Y009266D02*
X007774Y009266D01*
X007774Y009325D02*
X007869Y009325D01*
X007869Y009383D02*
X007774Y009383D01*
X007774Y009442D02*
X007869Y009442D01*
X007869Y009500D02*
X007774Y009500D01*
X007728Y009559D02*
X007915Y009559D01*
X008156Y009259D02*
X008156Y008948D01*
X008441Y008664D01*
X008441Y008096D01*
X007958Y007102D02*
X007116Y007102D01*
X007116Y007160D02*
X007056Y007160D01*
X007056Y007102D02*
X006572Y007102D01*
X006572Y007160D02*
X006641Y007160D01*
X006641Y007219D02*
X006572Y007219D01*
X006550Y007277D02*
X006641Y007277D01*
X006697Y007336D02*
X006492Y007336D01*
X006433Y007394D02*
X006756Y007394D01*
X006814Y007453D02*
X006375Y007453D01*
X006441Y007745D02*
X005933Y007745D01*
X005991Y007804D02*
X006382Y007804D01*
X006324Y007862D02*
X006050Y007862D01*
X006108Y007921D02*
X006265Y007921D01*
X006251Y007979D02*
X006123Y007979D01*
X006123Y008038D02*
X006251Y008038D01*
X006251Y008096D02*
X006123Y008096D01*
X006123Y008155D02*
X006251Y008155D01*
X006251Y008213D02*
X006123Y008213D01*
X006107Y008272D02*
X006267Y008272D01*
X006325Y008330D02*
X006048Y008330D01*
X005990Y008389D02*
X006384Y008389D01*
X006442Y008447D02*
X005931Y008447D01*
X006660Y008948D02*
X006660Y009259D01*
X006660Y008948D02*
X006785Y008823D01*
X007056Y007511D02*
X007116Y007511D01*
X007116Y007453D02*
X007056Y007453D01*
X007056Y007394D02*
X007116Y007394D01*
X007116Y007336D02*
X007056Y007336D01*
X007056Y007277D02*
X007116Y007277D01*
X007116Y007219D02*
X007056Y007219D01*
X006743Y006809D02*
X006446Y006809D01*
X006387Y006751D02*
X006802Y006751D01*
X006685Y006868D02*
X006504Y006868D01*
X006563Y006926D02*
X006641Y006926D01*
X006641Y006985D02*
X006572Y006985D01*
X006572Y007043D02*
X006641Y007043D01*
X004864Y007687D02*
X004804Y007687D01*
X004804Y007745D02*
X004864Y007745D01*
X004864Y007804D02*
X004804Y007804D01*
X004804Y007862D02*
X004864Y007862D01*
X004864Y007921D02*
X004804Y007921D01*
X004804Y007979D02*
X004864Y007979D01*
X004864Y008155D02*
X004804Y008155D01*
X004804Y008213D02*
X004864Y008213D01*
X004864Y008272D02*
X004804Y008272D01*
X004804Y008330D02*
X004864Y008330D01*
X004864Y008389D02*
X004804Y008389D01*
X004804Y008447D02*
X004864Y008447D01*
X004864Y008506D02*
X004804Y008506D01*
X004781Y009793D02*
X004668Y009793D01*
X004687Y009851D02*
X004739Y009851D01*
X004739Y009910D02*
X004687Y009910D01*
X004687Y009968D02*
X004739Y009968D01*
X004477Y010088D02*
X005026Y010088D01*
X004477Y010284D02*
X004477Y011100D01*
X004480Y011103D02*
X004480Y011213D01*
X005030Y011763D01*
X005030Y012368D01*
X005026Y012372D01*
X005333Y012367D02*
X005388Y012367D01*
X005307Y012776D02*
X005302Y012776D01*
X005844Y012776D02*
X005865Y012776D01*
X005865Y012718D02*
X005844Y012718D01*
X005844Y012659D02*
X005865Y012659D01*
X005865Y012601D02*
X005844Y012601D01*
X005844Y012835D02*
X005865Y012835D01*
X005865Y012893D02*
X005844Y012893D01*
X006075Y012934D02*
X006080Y012929D01*
X006080Y012613D01*
X005830Y012363D01*
X005830Y011793D01*
X005939Y011606D02*
X005955Y011606D01*
X006694Y012191D02*
X006710Y012191D01*
X007094Y011255D02*
X008310Y011255D01*
X008310Y011197D02*
X007153Y011197D01*
X006830Y011223D02*
X006830Y014053D01*
X006872Y014053D01*
X007533Y014053D01*
X007533Y013789D01*
X007434Y013828D02*
X007434Y013927D01*
X007395Y013789D01*
X007434Y013828D02*
X008186Y013828D01*
X008473Y013946D02*
X008626Y013946D01*
X008532Y014005D02*
X008473Y014005D01*
X008473Y014063D02*
X008477Y014063D01*
X008473Y013595D02*
X008771Y013595D01*
X008781Y013537D02*
X008436Y013537D01*
X008870Y013420D02*
X008977Y013420D01*
X008964Y013361D02*
X008884Y013361D01*
X008884Y013303D02*
X008964Y013303D01*
X008964Y013244D02*
X008884Y013244D01*
X008884Y013186D02*
X008964Y013186D01*
X008964Y013127D02*
X008884Y013127D01*
X008884Y013069D02*
X008964Y013069D01*
X008964Y013010D02*
X008884Y013010D01*
X008884Y012952D02*
X008964Y012952D01*
X008964Y012893D02*
X008884Y012893D01*
X008884Y012835D02*
X008964Y012835D01*
X008964Y012776D02*
X008884Y012776D01*
X008884Y012718D02*
X008964Y012718D01*
X008964Y012659D02*
X008884Y012659D01*
X008884Y012601D02*
X008964Y012601D01*
X008964Y012542D02*
X008884Y012542D01*
X008884Y012484D02*
X008964Y012484D01*
X009000Y012425D02*
X008847Y012425D01*
X008794Y012367D02*
X009054Y012367D01*
X009054Y012308D02*
X008794Y012308D01*
X008794Y012250D02*
X009054Y012250D01*
X009009Y012191D02*
X008794Y012191D01*
X008794Y012133D02*
X008824Y012133D01*
X008940Y011953D02*
X009174Y012187D01*
X009174Y012934D01*
X009102Y013459D02*
X009189Y013547D01*
X009189Y013663D01*
X009260Y013733D01*
X009330Y013804D01*
X009330Y014248D01*
X009349Y014230D01*
X009522Y014230D01*
X009577Y014285D01*
X010020Y013842D01*
X009944Y013842D01*
X009855Y013753D01*
X009506Y013753D01*
X009381Y013628D01*
X009310Y013558D01*
X009310Y013459D01*
X009102Y013459D01*
X009121Y013478D02*
X009310Y013478D01*
X009310Y013537D02*
X009180Y013537D01*
X009189Y013595D02*
X009348Y013595D01*
X009381Y013628D02*
X009381Y013628D01*
X009406Y013654D02*
X009189Y013654D01*
X009239Y013712D02*
X009465Y013712D01*
X009555Y013633D02*
X009430Y013508D01*
X009430Y011938D01*
X009305Y011813D01*
X009270Y011813D01*
X009123Y011665D02*
X008959Y011665D01*
X009017Y011606D02*
X009182Y011606D01*
X009184Y011604D02*
X009357Y011604D01*
X009479Y011727D01*
X009479Y011818D01*
X009480Y011818D01*
X009550Y011889D01*
X009550Y012409D01*
X009554Y012409D01*
X009554Y011453D01*
X009624Y011383D01*
X009838Y011169D01*
X010277Y011169D01*
X010324Y011122D01*
X010253Y011122D01*
X010253Y010788D01*
X010193Y010788D01*
X010193Y011122D01*
X010007Y011122D01*
X009969Y011112D01*
X009935Y011093D01*
X009908Y011065D01*
X009888Y011031D01*
X009878Y010994D01*
X009878Y010961D01*
X009767Y011072D01*
X009594Y011072D01*
X009550Y011029D01*
X009550Y011073D01*
X009480Y011143D01*
X009250Y011373D01*
X008879Y011744D01*
X009027Y011744D01*
X009061Y011779D01*
X009061Y011727D01*
X009184Y011604D01*
X009076Y011548D02*
X009554Y011548D01*
X009554Y011606D02*
X009359Y011606D01*
X009418Y011665D02*
X009554Y011665D01*
X009554Y011723D02*
X009476Y011723D01*
X009479Y011782D02*
X009554Y011782D01*
X009554Y011840D02*
X009502Y011840D01*
X009550Y011899D02*
X009554Y011899D01*
X009550Y011957D02*
X009554Y011957D01*
X009550Y012016D02*
X009554Y012016D01*
X009550Y012074D02*
X009554Y012074D01*
X009550Y012133D02*
X009554Y012133D01*
X009550Y012191D02*
X009554Y012191D01*
X009550Y012250D02*
X009554Y012250D01*
X009550Y012308D02*
X009554Y012308D01*
X009550Y012367D02*
X009554Y012367D01*
X009794Y012367D02*
X009917Y012367D01*
X009917Y012425D02*
X009847Y012425D01*
X009831Y012409D02*
X009884Y012462D01*
X009884Y012921D01*
X009917Y012921D01*
X009917Y012807D01*
X009969Y012754D01*
X010477Y012754D01*
X010530Y012807D01*
X010530Y013275D01*
X010477Y013328D01*
X009969Y013328D01*
X009917Y013275D01*
X009917Y013161D01*
X009884Y013161D01*
X009884Y013406D01*
X009831Y013459D01*
X009551Y013459D01*
X009605Y013513D01*
X009855Y013513D01*
X009944Y013424D01*
X010117Y013424D01*
X010239Y013547D01*
X010239Y013623D01*
X011041Y012822D01*
X011036Y012792D01*
X010920Y012675D01*
X010920Y012502D01*
X011042Y012379D01*
X011215Y012379D01*
X011338Y012502D01*
X011338Y012675D01*
X011272Y012741D01*
X011281Y012807D01*
X011288Y012814D01*
X011288Y012855D01*
X011289Y012860D01*
X012201Y011949D01*
X012201Y010428D01*
X012174Y010455D01*
X011667Y010455D01*
X011614Y010402D01*
X011614Y010288D01*
X011363Y010288D01*
X011522Y010447D01*
X011522Y010603D01*
X011104Y010603D01*
X011104Y010663D01*
X011044Y010663D01*
X011044Y011081D01*
X010889Y011081D01*
X010697Y010890D01*
X010697Y011214D01*
X010661Y011250D01*
X010661Y011376D01*
X010539Y011498D01*
X010366Y011498D01*
X010277Y011409D01*
X010082Y011409D01*
X010159Y011487D01*
X010159Y011660D01*
X010070Y011749D01*
X010070Y012049D01*
X010106Y012085D01*
X010477Y012085D01*
X010530Y012138D01*
X010530Y012606D01*
X010477Y012659D01*
X009969Y012659D01*
X009917Y012606D01*
X009917Y012235D01*
X009901Y012219D01*
X009830Y012149D01*
X009830Y011749D01*
X009794Y011712D01*
X009794Y012409D01*
X009831Y012409D01*
X009884Y012484D02*
X009917Y012484D01*
X009917Y012542D02*
X009884Y012542D01*
X009884Y012601D02*
X009917Y012601D01*
X009884Y012659D02*
X010920Y012659D01*
X010920Y012601D02*
X010530Y012601D01*
X010530Y012542D02*
X010920Y012542D01*
X010938Y012484D02*
X010530Y012484D01*
X010530Y012425D02*
X010996Y012425D01*
X011129Y012588D02*
X011168Y012864D01*
X009593Y014439D01*
X009436Y014439D01*
X009531Y014239D02*
X009623Y014239D01*
X009682Y014180D02*
X009330Y014180D01*
X009330Y014122D02*
X009740Y014122D01*
X009799Y014063D02*
X009330Y014063D01*
X009330Y014005D02*
X009857Y014005D01*
X009916Y013946D02*
X009330Y013946D01*
X009330Y013888D02*
X009974Y013888D01*
X009931Y013829D02*
X009330Y013829D01*
X009298Y013771D02*
X009872Y013771D01*
X010030Y013633D02*
X009555Y013633D01*
X009570Y013478D02*
X009890Y013478D01*
X009870Y013420D02*
X010442Y013420D01*
X010384Y013478D02*
X010171Y013478D01*
X010230Y013537D02*
X010325Y013537D01*
X010267Y013595D02*
X010239Y013595D01*
X010501Y013361D02*
X009884Y013361D01*
X009884Y013303D02*
X009944Y013303D01*
X009917Y013244D02*
X009884Y013244D01*
X009884Y013186D02*
X009917Y013186D01*
X009781Y013041D02*
X009674Y012934D01*
X009674Y011503D01*
X009888Y011289D01*
X010330Y011289D01*
X010452Y011289D01*
X010577Y011164D01*
X010577Y010293D01*
X010702Y010168D01*
X011920Y010168D01*
X011648Y010436D02*
X011511Y010436D01*
X011522Y010495D02*
X012201Y010495D01*
X012201Y010553D02*
X011522Y010553D01*
X011522Y010663D02*
X011522Y010819D01*
X011260Y011081D01*
X011104Y011081D01*
X011104Y010663D01*
X011522Y010663D01*
X011522Y010670D02*
X012201Y010670D01*
X012201Y010612D02*
X011104Y010612D01*
X011104Y010670D02*
X011044Y010670D01*
X011044Y010729D02*
X011104Y010729D01*
X011104Y010787D02*
X011044Y010787D01*
X011044Y010846D02*
X011104Y010846D01*
X011104Y010904D02*
X011044Y010904D01*
X011044Y010963D02*
X011104Y010963D01*
X011104Y011021D02*
X011044Y011021D01*
X011044Y011080D02*
X011104Y011080D01*
X010887Y011080D02*
X010697Y011080D01*
X010697Y011138D02*
X011428Y011138D01*
X011449Y011088D02*
X011535Y011002D01*
X011647Y010955D01*
X011769Y010955D01*
X011881Y011002D01*
X011967Y011088D01*
X012014Y011200D01*
X012014Y011322D01*
X011967Y011434D01*
X011881Y011520D01*
X011769Y011567D01*
X011647Y011567D01*
X011535Y011520D01*
X011449Y011434D01*
X011402Y011322D01*
X011402Y011200D01*
X011449Y011088D01*
X011457Y011080D02*
X011261Y011080D01*
X011320Y011021D02*
X011515Y011021D01*
X011629Y010963D02*
X011378Y010963D01*
X011437Y010904D02*
X012201Y010904D01*
X012201Y010846D02*
X011495Y010846D01*
X011522Y010787D02*
X012201Y010787D01*
X012201Y010729D02*
X011522Y010729D01*
X011787Y010963D02*
X012201Y010963D01*
X012201Y011021D02*
X011901Y011021D01*
X011959Y011080D02*
X012201Y011080D01*
X012201Y011138D02*
X011988Y011138D01*
X012012Y011197D02*
X012201Y011197D01*
X012201Y011255D02*
X012014Y011255D01*
X012014Y011314D02*
X012201Y011314D01*
X012201Y011372D02*
X011993Y011372D01*
X011968Y011431D02*
X012201Y011431D01*
X012201Y011489D02*
X011912Y011489D01*
X011814Y011548D02*
X012201Y011548D01*
X012201Y011606D02*
X010159Y011606D01*
X010159Y011548D02*
X011602Y011548D01*
X011504Y011489D02*
X010548Y011489D01*
X010606Y011431D02*
X011448Y011431D01*
X011423Y011372D02*
X010661Y011372D01*
X010661Y011314D02*
X011402Y011314D01*
X011402Y011255D02*
X010661Y011255D01*
X010697Y011197D02*
X011404Y011197D01*
X011453Y010378D02*
X011614Y010378D01*
X011614Y010319D02*
X011394Y010319D01*
X011464Y009968D02*
X011614Y009968D01*
X011614Y010027D02*
X010510Y010027D01*
X010510Y010085D02*
X010615Y010085D01*
X010557Y010144D02*
X010510Y010144D01*
X010510Y009968D02*
X010684Y009968D01*
X010684Y009910D02*
X010510Y009910D01*
X010510Y009851D02*
X010684Y009851D01*
X010684Y009793D02*
X010468Y009793D01*
X010684Y009734D02*
X009794Y009734D01*
X009794Y009676D02*
X010684Y009676D01*
X010684Y009617D02*
X009794Y009617D01*
X009865Y009793D02*
X009978Y009793D01*
X009936Y009851D02*
X009884Y009851D01*
X009884Y009910D02*
X009936Y009910D01*
X009936Y009968D02*
X009884Y009968D01*
X009674Y010088D02*
X009674Y009358D01*
X009762Y009269D01*
X010013Y009559D02*
X010684Y009559D01*
X010684Y009500D02*
X010049Y009500D01*
X010049Y009442D02*
X010684Y009442D01*
X010684Y009383D02*
X010049Y009383D01*
X010049Y009325D02*
X010684Y009325D01*
X010714Y009266D02*
X010049Y009266D01*
X010049Y009208D02*
X012141Y009208D01*
X012083Y009149D02*
X010049Y009149D01*
X010049Y009091D02*
X012024Y009091D01*
X011966Y009032D02*
X010049Y009032D01*
X010007Y008974D02*
X011907Y008974D01*
X011849Y008915D02*
X009550Y008915D01*
X009550Y008857D02*
X011790Y008857D01*
X011732Y008798D02*
X009550Y008798D01*
X009550Y008740D02*
X011673Y008740D01*
X011615Y008681D02*
X009550Y008681D01*
X009550Y008623D02*
X011556Y008623D01*
X011498Y008564D02*
X009550Y008564D01*
X009550Y008506D02*
X011439Y008506D01*
X011381Y008447D02*
X009550Y008447D01*
X009550Y008389D02*
X011322Y008389D01*
X011264Y008330D02*
X009550Y008330D01*
X009550Y008272D02*
X011205Y008272D01*
X011147Y008213D02*
X009550Y008213D01*
X009550Y008155D02*
X011088Y008155D01*
X011030Y008096D02*
X009550Y008096D01*
X009550Y008038D02*
X010971Y008038D01*
X010913Y007979D02*
X009550Y007979D01*
X009550Y007921D02*
X010854Y007921D01*
X010796Y007862D02*
X009550Y007862D01*
X009550Y007804D02*
X010737Y007804D01*
X010679Y007745D02*
X009550Y007745D01*
X009550Y007687D02*
X010620Y007687D01*
X010562Y007628D02*
X009550Y007628D01*
X009550Y007570D02*
X010503Y007570D01*
X010445Y007511D02*
X009550Y007511D01*
X009550Y007453D02*
X010386Y007453D01*
X010328Y007394D02*
X009550Y007394D01*
X009093Y009269D02*
X009090Y009272D01*
X009090Y009633D01*
X008954Y009793D02*
X008865Y009793D01*
X008884Y009851D02*
X008964Y009851D01*
X008964Y009910D02*
X008884Y009910D01*
X008884Y009968D02*
X008964Y009968D01*
X008964Y010027D02*
X008884Y010027D01*
X008884Y010085D02*
X008964Y010085D01*
X008964Y010144D02*
X008884Y010144D01*
X008884Y010202D02*
X008964Y010202D01*
X008964Y010261D02*
X008884Y010261D01*
X008884Y010319D02*
X008964Y010319D01*
X008964Y010378D02*
X008884Y010378D01*
X008884Y010436D02*
X008964Y010436D01*
X008964Y010495D02*
X008884Y010495D01*
X008884Y010553D02*
X008964Y010553D01*
X008964Y010612D02*
X008884Y010612D01*
X008884Y010670D02*
X008964Y010670D01*
X008964Y010729D02*
X008884Y010729D01*
X008853Y010787D02*
X008971Y010787D01*
X008971Y010846D02*
X008550Y010846D01*
X008550Y010904D02*
X008970Y010904D01*
X008911Y010963D02*
X008550Y010963D01*
X008550Y011021D02*
X008853Y011021D01*
X008794Y011080D02*
X008550Y011080D01*
X008550Y011138D02*
X008736Y011138D01*
X008677Y011197D02*
X008550Y011197D01*
X008550Y011255D02*
X008619Y011255D01*
X008640Y011403D02*
X009180Y010863D01*
X009180Y010291D01*
X009174Y010284D01*
X009180Y010284D01*
X009674Y010284D02*
X009674Y010857D01*
X009818Y011021D02*
X009886Y011021D01*
X009877Y010963D02*
X009878Y010963D01*
X009922Y011080D02*
X009544Y011080D01*
X009485Y011138D02*
X010308Y011138D01*
X010253Y011080D02*
X010193Y011080D01*
X010193Y011021D02*
X010253Y011021D01*
X010253Y010963D02*
X010193Y010963D01*
X010193Y010904D02*
X010253Y010904D01*
X010253Y010846D02*
X010193Y010846D01*
X010193Y010788D02*
X009889Y010788D01*
X009889Y010777D01*
X009877Y010764D01*
X009884Y010756D01*
X009884Y010728D01*
X010193Y010728D01*
X010193Y010788D01*
X010193Y010787D02*
X009889Y010787D01*
X009884Y010729D02*
X010193Y010729D01*
X010697Y010904D02*
X010712Y010904D01*
X010697Y010963D02*
X010770Y010963D01*
X010829Y011021D02*
X010697Y011021D01*
X010298Y011431D02*
X010104Y011431D01*
X010159Y011489D02*
X010357Y011489D01*
X010155Y011665D02*
X012201Y011665D01*
X012201Y011723D02*
X010096Y011723D01*
X010070Y011782D02*
X012201Y011782D01*
X012201Y011840D02*
X010070Y011840D01*
X010070Y011899D02*
X012201Y011899D01*
X012192Y011957D02*
X010070Y011957D01*
X010070Y012016D02*
X012134Y012016D01*
X012075Y012074D02*
X010095Y012074D01*
X009950Y012099D02*
X010223Y012372D01*
X010530Y012367D02*
X011783Y012367D01*
X011841Y012308D02*
X010530Y012308D01*
X010530Y012250D02*
X011900Y012250D01*
X011958Y012191D02*
X010530Y012191D01*
X010525Y012133D02*
X012017Y012133D01*
X011724Y012425D02*
X011261Y012425D01*
X011320Y012484D02*
X011665Y012484D01*
X011607Y012542D02*
X011338Y012542D01*
X011338Y012601D02*
X011548Y012601D01*
X011490Y012659D02*
X011338Y012659D01*
X011295Y012718D02*
X011431Y012718D01*
X011373Y012776D02*
X011277Y012776D01*
X011288Y012835D02*
X011314Y012835D01*
X011027Y012835D02*
X010530Y012835D01*
X010530Y012893D02*
X010969Y012893D01*
X010910Y012952D02*
X010530Y012952D01*
X010530Y013010D02*
X010852Y013010D01*
X010793Y013069D02*
X010530Y013069D01*
X010530Y013127D02*
X010735Y013127D01*
X010676Y013186D02*
X010530Y013186D01*
X010530Y013244D02*
X010618Y013244D01*
X010559Y013303D02*
X010502Y013303D01*
X010223Y013041D02*
X009781Y013041D01*
X009884Y012893D02*
X009917Y012893D01*
X009917Y012835D02*
X009884Y012835D01*
X009884Y012776D02*
X009947Y012776D01*
X009884Y012718D02*
X010962Y012718D01*
X011021Y012776D02*
X010499Y012776D01*
X009917Y012308D02*
X009794Y012308D01*
X009794Y012250D02*
X009917Y012250D01*
X009901Y012219D02*
X009901Y012219D01*
X009873Y012191D02*
X009794Y012191D01*
X009794Y012133D02*
X009830Y012133D01*
X009830Y012074D02*
X009794Y012074D01*
X009794Y012016D02*
X009830Y012016D01*
X009830Y011957D02*
X009794Y011957D01*
X009794Y011899D02*
X009830Y011899D01*
X009830Y011840D02*
X009794Y011840D01*
X009794Y011782D02*
X009830Y011782D01*
X009805Y011723D02*
X009794Y011723D01*
X009950Y011573D02*
X009950Y012099D01*
X009554Y011489D02*
X009134Y011489D01*
X009193Y011431D02*
X009576Y011431D01*
X009635Y011372D02*
X009251Y011372D01*
X009310Y011314D02*
X009693Y011314D01*
X009752Y011255D02*
X009368Y011255D01*
X009427Y011197D02*
X009810Y011197D01*
X009065Y011723D02*
X008900Y011723D01*
X008640Y011483D02*
X008640Y011403D01*
X008310Y011021D02*
X008308Y011021D01*
X007655Y011021D02*
X007595Y011021D01*
X007595Y010963D02*
X007655Y010963D01*
X007655Y010904D02*
X007595Y010904D01*
X007595Y010846D02*
X007655Y010846D01*
X007655Y011080D02*
X007595Y011080D01*
X007318Y013186D02*
X007285Y013186D01*
X007285Y013244D02*
X007318Y013244D01*
X007346Y013303D02*
X007285Y013303D01*
X006990Y014239D02*
X006982Y014239D01*
X006990Y014297D02*
X006690Y014297D01*
X006690Y014239D02*
X006762Y014239D01*
X006703Y014180D02*
X006690Y014180D01*
X006690Y014356D02*
X006990Y014356D01*
X006372Y014999D02*
X008091Y014999D01*
X008091Y014941D02*
X006188Y014941D01*
X006129Y014882D02*
X008136Y014882D01*
X008166Y015175D02*
X007879Y015175D01*
X008465Y014882D02*
X008827Y014882D01*
X008886Y014824D02*
X008483Y014824D01*
X008523Y014765D02*
X008944Y014765D01*
X009108Y014941D02*
X009206Y014941D01*
X009167Y014882D02*
X009265Y014882D01*
X009225Y014824D02*
X009323Y014824D01*
X009284Y014765D02*
X009382Y014765D01*
X009330Y014707D02*
X009440Y014707D01*
X009499Y014648D02*
X009349Y014648D01*
X009330Y014629D01*
X009148Y014999D02*
X009050Y014999D01*
X009089Y015058D02*
X008991Y015058D01*
X009031Y015116D02*
X008933Y015116D01*
X009330Y014239D02*
X009340Y014239D01*
X012193Y010436D02*
X012201Y010436D01*
X012201Y009851D02*
X011464Y009851D01*
X011464Y009793D02*
X012201Y009793D01*
X011920Y009499D02*
X011199Y009499D01*
X011074Y009624D01*
X011074Y009633D01*
X011464Y009676D02*
X011614Y009676D01*
X011615Y009734D02*
X011464Y009734D01*
X011464Y009910D02*
X011638Y009910D01*
X011614Y009325D02*
X011464Y009325D01*
X011435Y009266D02*
X011614Y009266D01*
X010223Y010088D02*
X009674Y010088D01*
X005960Y014883D02*
X006250Y015173D01*
X003471Y014063D02*
X003196Y014063D01*
X003138Y014005D02*
X003412Y014005D01*
X003354Y013946D02*
X003079Y013946D01*
X003021Y013888D02*
X003295Y013888D01*
X003237Y013829D02*
X002962Y013829D01*
X002903Y013771D02*
X003178Y013771D01*
X003171Y013763D02*
X003171Y013763D01*
X003120Y013712D02*
X002845Y013712D01*
X002786Y013654D02*
X003100Y013654D01*
X003100Y013595D02*
X002728Y013595D01*
X002524Y013303D02*
X002435Y013303D01*
X002466Y013244D02*
X002377Y013244D01*
X002318Y013186D02*
X002451Y013186D01*
X002451Y013127D02*
X002259Y013127D01*
X002201Y013069D02*
X002451Y013069D01*
X002498Y013010D02*
X002142Y013010D01*
X002084Y012952D02*
X002540Y012952D01*
X002540Y012893D02*
X002025Y012893D01*
X001967Y012835D02*
X002540Y012835D01*
X002540Y012776D02*
X001908Y012776D01*
X001850Y012718D02*
X002540Y012718D01*
X002540Y012659D02*
X001791Y012659D01*
X001732Y012601D02*
X002540Y012601D01*
X002540Y012542D02*
X001674Y012542D01*
X001615Y012484D02*
X002540Y012484D01*
X002540Y012425D02*
X001557Y012425D01*
X001498Y012367D02*
X002540Y012367D01*
X002540Y012308D02*
X001440Y012308D01*
X001381Y012250D02*
X002540Y012250D01*
X002540Y012191D02*
X001323Y012191D01*
X001264Y012133D02*
X002540Y012133D01*
X002540Y012074D02*
X001205Y012074D01*
X001147Y012016D02*
X002540Y012016D01*
X002540Y011957D02*
X001088Y011957D01*
X001080Y011899D02*
X002540Y011899D01*
X004157Y010963D02*
X004325Y010963D01*
X004357Y010904D02*
X004179Y010904D01*
X004179Y010846D02*
X004357Y010846D01*
X004298Y010787D02*
X004179Y010787D01*
X004187Y010729D02*
X004267Y010729D01*
X004267Y010670D02*
X004187Y010670D01*
X004187Y010612D02*
X004267Y010612D01*
X004267Y010553D02*
X004187Y010553D01*
X004187Y010495D02*
X004267Y010495D01*
X004267Y010436D02*
X004187Y010436D01*
X004187Y010378D02*
X004267Y010378D01*
X004267Y010319D02*
X004187Y010319D01*
X004187Y010261D02*
X004267Y010261D01*
X004267Y010202D02*
X004187Y010202D01*
X004187Y010144D02*
X004267Y010144D01*
X004267Y010085D02*
X004187Y010085D01*
X004187Y010027D02*
X004267Y010027D01*
X004267Y009968D02*
X004187Y009968D01*
X004187Y009910D02*
X004267Y009910D01*
X004267Y009851D02*
X004187Y009851D01*
X004168Y009793D02*
X004286Y009793D01*
X004687Y010729D02*
X004996Y010729D01*
D18*
X004480Y011103D03*
X003970Y010853D03*
X003491Y010856D03*
X003700Y011493D03*
X004318Y011998D03*
X005030Y011763D03*
X005538Y011525D03*
X005830Y011793D03*
X006444Y011486D03*
X006950Y011103D03*
X006580Y010853D03*
X005590Y009693D03*
X005066Y009124D03*
X004240Y008253D03*
X003680Y008263D03*
X003680Y007573D03*
X004240Y007573D03*
X002980Y009693D03*
X001640Y011762D03*
X002660Y013143D03*
X003480Y012363D03*
X004420Y013553D03*
X004870Y013443D03*
X005850Y014613D03*
X006250Y015173D03*
X006759Y015266D03*
X007428Y014833D03*
X006872Y014053D03*
X007080Y012353D03*
X006570Y012363D03*
X008030Y012093D03*
X008430Y012303D03*
X008940Y011953D03*
X009270Y011813D03*
X009440Y011553D03*
X009950Y011573D03*
X010452Y011289D03*
X009680Y010863D03*
X009180Y010863D03*
X008640Y011483D03*
X008170Y010863D03*
X009090Y009633D03*
X009080Y008393D03*
X009080Y007873D03*
X009860Y007533D03*
X010420Y008093D03*
X009860Y008393D03*
X010980Y008653D03*
X011719Y011840D03*
X011129Y012588D03*
X010900Y012303D03*
X010030Y013633D03*
X009430Y014133D03*
X009436Y014439D03*
X008980Y013633D03*
X008580Y013643D03*
X008648Y014793D03*
X008300Y015013D03*
X008136Y015777D03*
X004751Y015187D03*
D19*
X007434Y013927D02*
X007533Y013789D01*
X009680Y010863D02*
X009674Y010857D01*
X009674Y010284D02*
X009674Y010088D01*
X010220Y010086D02*
X010223Y010088D01*
X007075Y010088D02*
X007075Y010284D01*
X004477Y010284D02*
X004477Y010088D01*
X004477Y011100D02*
X004480Y011103D01*
M02*
