G75*
%MOIN*%
%OFA0B0*%
%FSLAX24Y24*%
%IPPOS*%
%LPD*%
%AMOC8*
5,1,8,0,0,1.08239X$1,22.5*
%
%ADD10C,0.0000*%
D10*
X005262Y004931D02*
X000971Y009222D01*
X000971Y011994D01*
X005262Y016281D01*
X008018Y016281D01*
X012310Y011994D01*
X012310Y009222D01*
X008018Y004931D01*
X005262Y004931D01*
X001376Y011261D02*
X001378Y011288D01*
X001384Y011315D01*
X001393Y011341D01*
X001406Y011365D01*
X001422Y011388D01*
X001441Y011407D01*
X001463Y011424D01*
X001487Y011438D01*
X001512Y011448D01*
X001539Y011455D01*
X001566Y011458D01*
X001594Y011457D01*
X001621Y011452D01*
X001647Y011444D01*
X001671Y011432D01*
X001694Y011416D01*
X001715Y011398D01*
X001732Y011377D01*
X001747Y011353D01*
X001758Y011328D01*
X001766Y011302D01*
X001770Y011275D01*
X001770Y011247D01*
X001766Y011220D01*
X001758Y011194D01*
X001747Y011169D01*
X001732Y011145D01*
X001715Y011124D01*
X001694Y011106D01*
X001672Y011090D01*
X001647Y011078D01*
X001621Y011070D01*
X001594Y011065D01*
X001566Y011064D01*
X001539Y011067D01*
X001512Y011074D01*
X001487Y011084D01*
X001463Y011098D01*
X001441Y011115D01*
X001422Y011134D01*
X001406Y011157D01*
X001393Y011181D01*
X001384Y011207D01*
X001378Y011234D01*
X001376Y011261D01*
X004346Y014231D02*
X004348Y014258D01*
X004354Y014285D01*
X004363Y014311D01*
X004376Y014335D01*
X004392Y014358D01*
X004411Y014377D01*
X004433Y014394D01*
X004457Y014408D01*
X004482Y014418D01*
X004509Y014425D01*
X004536Y014428D01*
X004564Y014427D01*
X004591Y014422D01*
X004617Y014414D01*
X004641Y014402D01*
X004664Y014386D01*
X004685Y014368D01*
X004702Y014347D01*
X004717Y014323D01*
X004728Y014298D01*
X004736Y014272D01*
X004740Y014245D01*
X004740Y014217D01*
X004736Y014190D01*
X004728Y014164D01*
X004717Y014139D01*
X004702Y014115D01*
X004685Y014094D01*
X004664Y014076D01*
X004642Y014060D01*
X004617Y014048D01*
X004591Y014040D01*
X004564Y014035D01*
X004536Y014034D01*
X004509Y014037D01*
X004482Y014044D01*
X004457Y014054D01*
X004433Y014068D01*
X004411Y014085D01*
X004392Y014104D01*
X004376Y014127D01*
X004363Y014151D01*
X004354Y014177D01*
X004348Y014204D01*
X004346Y014231D01*
X004343Y014242D02*
X004345Y014269D01*
X004351Y014296D01*
X004360Y014322D01*
X004373Y014346D01*
X004389Y014369D01*
X004408Y014388D01*
X004430Y014405D01*
X004454Y014419D01*
X004479Y014429D01*
X004506Y014436D01*
X004533Y014439D01*
X004561Y014438D01*
X004588Y014433D01*
X004614Y014425D01*
X004638Y014413D01*
X004661Y014397D01*
X004682Y014379D01*
X004699Y014358D01*
X004714Y014334D01*
X004725Y014309D01*
X004733Y014283D01*
X004737Y014256D01*
X004737Y014228D01*
X004733Y014201D01*
X004725Y014175D01*
X004714Y014150D01*
X004699Y014126D01*
X004682Y014105D01*
X004661Y014087D01*
X004639Y014071D01*
X004614Y014059D01*
X004588Y014051D01*
X004561Y014046D01*
X004533Y014045D01*
X004506Y014048D01*
X004479Y014055D01*
X004454Y014065D01*
X004430Y014079D01*
X004408Y014096D01*
X004389Y014115D01*
X004373Y014138D01*
X004360Y014162D01*
X004351Y014188D01*
X004345Y014215D01*
X004343Y014242D01*
X008541Y014231D02*
X008543Y014258D01*
X008549Y014285D01*
X008558Y014311D01*
X008571Y014335D01*
X008587Y014358D01*
X008606Y014377D01*
X008628Y014394D01*
X008652Y014408D01*
X008677Y014418D01*
X008704Y014425D01*
X008731Y014428D01*
X008759Y014427D01*
X008786Y014422D01*
X008812Y014414D01*
X008836Y014402D01*
X008859Y014386D01*
X008880Y014368D01*
X008897Y014347D01*
X008912Y014323D01*
X008923Y014298D01*
X008931Y014272D01*
X008935Y014245D01*
X008935Y014217D01*
X008931Y014190D01*
X008923Y014164D01*
X008912Y014139D01*
X008897Y014115D01*
X008880Y014094D01*
X008859Y014076D01*
X008837Y014060D01*
X008812Y014048D01*
X008786Y014040D01*
X008759Y014035D01*
X008731Y014034D01*
X008704Y014037D01*
X008677Y014044D01*
X008652Y014054D01*
X008628Y014068D01*
X008606Y014085D01*
X008587Y014104D01*
X008571Y014127D01*
X008558Y014151D01*
X008549Y014177D01*
X008543Y014204D01*
X008541Y014231D01*
X008543Y014242D02*
X008545Y014269D01*
X008551Y014296D01*
X008560Y014322D01*
X008573Y014346D01*
X008589Y014369D01*
X008608Y014388D01*
X008630Y014405D01*
X008654Y014419D01*
X008679Y014429D01*
X008706Y014436D01*
X008733Y014439D01*
X008761Y014438D01*
X008788Y014433D01*
X008814Y014425D01*
X008838Y014413D01*
X008861Y014397D01*
X008882Y014379D01*
X008899Y014358D01*
X008914Y014334D01*
X008925Y014309D01*
X008933Y014283D01*
X008937Y014256D01*
X008937Y014228D01*
X008933Y014201D01*
X008925Y014175D01*
X008914Y014150D01*
X008899Y014126D01*
X008882Y014105D01*
X008861Y014087D01*
X008839Y014071D01*
X008814Y014059D01*
X008788Y014051D01*
X008761Y014046D01*
X008733Y014045D01*
X008706Y014048D01*
X008679Y014055D01*
X008654Y014065D01*
X008630Y014079D01*
X008608Y014096D01*
X008589Y014115D01*
X008573Y014138D01*
X008560Y014162D01*
X008551Y014188D01*
X008545Y014215D01*
X008543Y014242D01*
X011511Y011261D02*
X011513Y011288D01*
X011519Y011315D01*
X011528Y011341D01*
X011541Y011365D01*
X011557Y011388D01*
X011576Y011407D01*
X011598Y011424D01*
X011622Y011438D01*
X011647Y011448D01*
X011674Y011455D01*
X011701Y011458D01*
X011729Y011457D01*
X011756Y011452D01*
X011782Y011444D01*
X011806Y011432D01*
X011829Y011416D01*
X011850Y011398D01*
X011867Y011377D01*
X011882Y011353D01*
X011893Y011328D01*
X011901Y011302D01*
X011905Y011275D01*
X011905Y011247D01*
X011901Y011220D01*
X011893Y011194D01*
X011882Y011169D01*
X011867Y011145D01*
X011850Y011124D01*
X011829Y011106D01*
X011807Y011090D01*
X011782Y011078D01*
X011756Y011070D01*
X011729Y011065D01*
X011701Y011064D01*
X011674Y011067D01*
X011647Y011074D01*
X011622Y011084D01*
X011598Y011098D01*
X011576Y011115D01*
X011557Y011134D01*
X011541Y011157D01*
X011528Y011181D01*
X011519Y011207D01*
X011513Y011234D01*
X011511Y011261D01*
M02*
