G75*
%MOIN*%
%OFA0B0*%
%FSLAX24Y24*%
%IPPOS*%
%LPD*%
%AMOC8*
5,1,8,0,0,1.08239X$1,22.5*
%
%ADD10R,0.0640X0.0640*%
%ADD11OC8,0.0640*%
%ADD12OC8,0.0700*%
%ADD13C,0.1300*%
%ADD14C,0.0743*%
%ADD15C,0.2040*%
%ADD16C,0.0434*%
D10*
X016578Y003650D03*
X020980Y006209D03*
X016566Y017823D03*
D11*
X017566Y017823D03*
X018566Y017823D03*
X019980Y006209D03*
X019578Y003650D03*
X018578Y003650D03*
X017578Y003650D03*
D12*
X017125Y001500D03*
X016125Y001500D03*
X018125Y001500D03*
X019125Y001500D03*
X020125Y001500D03*
X021125Y001500D03*
X022125Y001500D03*
X023125Y001500D03*
X025125Y001500D03*
X026125Y001500D03*
X027125Y001500D03*
X028125Y001500D03*
X029125Y001500D03*
X030125Y001500D03*
X030125Y020500D03*
X029125Y020500D03*
X028125Y020500D03*
X027125Y020500D03*
X026125Y020500D03*
X025125Y020500D03*
X024125Y020500D03*
X023125Y020500D03*
X021525Y020500D03*
X020525Y020500D03*
X019525Y020500D03*
X018525Y020500D03*
X017525Y020500D03*
X016525Y020500D03*
X015525Y020500D03*
X014525Y020500D03*
X013525Y020500D03*
X012525Y020500D03*
D13*
X011149Y020500D03*
X031149Y014476D03*
X031149Y003492D03*
X010637Y001484D03*
D14*
X007096Y004512D03*
X006096Y004961D03*
X007096Y005414D03*
X006096Y005863D03*
X007096Y006315D03*
X006096Y006764D03*
X007096Y007217D03*
X006096Y007666D03*
X007096Y008118D03*
X006096Y008567D03*
X008096Y008567D03*
X008096Y007666D03*
X008096Y006764D03*
X008096Y005863D03*
X008096Y004961D03*
D15*
X007096Y001740D03*
X007096Y011583D03*
D16*
X026779Y012572D03*
X026779Y012573D03*
X026779Y008372D03*
X026779Y008372D03*
X026779Y004172D03*
X026779Y016773D03*
M02*
