%
M48
M72
T01C0.0118
T02C0.0197
T03C0.0394
T04C0.0400
T05C0.0469
T06C0.1201
%
T01
X13787Y7094
X14338Y7311
X14653Y6799
X15125Y6484
X16425Y5343
X17566Y5421
X17409Y7390
X17409Y8295
X16425Y8295
X14850Y8335
X14653Y7837
X13787Y9831
X14338Y10106
X14850Y11091
X13196Y11484
X14338Y12848
X14850Y13846
X15362Y14949
X17094Y14043
X17527Y13248
X16425Y12862
X19220Y11760
X19653Y10264
X18511Y9240
X19653Y8965
X17527Y10185
X16425Y10421
X13196Y13335
X17370Y15028
X19889Y16366
X24665Y13490
X26445Y13490
X27960Y13886
X28236Y14280
X28511Y15067
X28511Y10854
X28236Y10067
X27960Y9673
X28511Y6681
X28236Y5894
X27960Y5500
X22015Y5618
X22015Y4476
X22015Y8413
X22015Y10539
X22015Y11287
X22015Y12272
T02
X20362Y10933
X16936Y9594
X16936Y12350
X16936Y6839
T03
X17125Y1500
X16125Y1500
X18125Y1500
X19125Y1500
X20125Y1500
X21125Y1500
X22125Y1500
X23125Y1500
X25125Y1500
X26125Y1500
X27125Y1500
X28125Y1500
X29125Y1500
X30125Y1500
X30125Y20500
X29125Y20500
X28125Y20500
X27125Y20500
X26125Y20500
X25125Y20500
X24125Y20500
X23125Y20500
X21525Y20500
X20525Y20500
X19525Y20500
X18525Y20500
X17525Y20500
X16525Y20500
X15525Y20500
X14525Y20500
X13525Y20500
X12525Y20500
T04
X16566Y17823
X17566Y17823
X18566Y17823
X19980Y6209
X20980Y6209
X19578Y3650
X18578Y3650
X17578Y3650
X16578Y3650
T05
X8096Y4961
X7096Y4512
X6096Y4961
X7096Y5414
X6096Y5863
X7096Y6315
X6096Y6764
X7096Y7217
X6096Y7666
X7096Y8118
X6096Y8567
X8096Y8567
X8096Y7666
X8096Y6764
X8096Y5863
T06
X7096Y1740
X7096Y11583
M30
