G75*
%MOIN*%
%OFA0B0*%
%FSLAX24Y24*%
%IPPOS*%
%LPD*%
%AMOC8*
5,1,8,0,0,1.08239X$1,22.5*
%
%ADD10C,0.0060*%
%ADD11C,0.0100*%
%ADD12C,0.0080*%
%ADD13C,0.0050*%
%ADD14C,0.0120*%
%ADD15C,0.0040*%
D10*
X005368Y000845D02*
X005313Y000901D01*
X005313Y001012D01*
X005368Y001068D01*
X005424Y001068D01*
X005480Y001012D01*
X005480Y000901D01*
X005424Y000845D01*
X005368Y000845D01*
X005480Y000901D02*
X005535Y000845D01*
X005591Y000845D01*
X005647Y000901D01*
X005647Y001012D01*
X005591Y001068D01*
X005535Y001068D01*
X005480Y001012D01*
X005480Y001207D02*
X005424Y001319D01*
X005424Y001374D01*
X005480Y001430D01*
X005591Y001430D01*
X005647Y001374D01*
X005647Y001263D01*
X005591Y001207D01*
X005480Y001207D02*
X005313Y001207D01*
X005313Y001430D01*
X005424Y001570D02*
X005647Y001681D01*
X005424Y001793D01*
X005480Y001933D02*
X005424Y001988D01*
X005424Y002099D01*
X005480Y002155D01*
X005535Y002155D01*
X005535Y001933D01*
X005480Y001933D02*
X005591Y001933D01*
X005647Y001988D01*
X005647Y002099D01*
X005591Y002295D02*
X005480Y002295D01*
X005424Y002351D01*
X005424Y002462D01*
X005480Y002518D01*
X005535Y002518D01*
X005535Y002295D01*
X005591Y002295D02*
X005647Y002351D01*
X005647Y002462D01*
X005591Y002658D02*
X005480Y002658D01*
X005424Y002713D01*
X005424Y002880D01*
X005702Y002880D01*
X005758Y002825D01*
X005758Y002769D01*
X005647Y002713D02*
X005647Y002880D01*
X005591Y003020D02*
X005535Y003076D01*
X005535Y003243D01*
X005480Y003243D02*
X005647Y003243D01*
X005647Y003076D01*
X005591Y003020D01*
X005424Y003076D02*
X005424Y003187D01*
X005480Y003243D01*
X005480Y003383D02*
X005424Y003438D01*
X005424Y003605D01*
X005535Y003550D02*
X005535Y003438D01*
X005480Y003383D01*
X005647Y003383D02*
X005647Y003550D01*
X005591Y003605D01*
X005535Y003550D01*
X005480Y003745D02*
X005424Y003801D01*
X005424Y003912D01*
X005480Y003968D01*
X005647Y003968D01*
X005647Y004108D02*
X005647Y004219D01*
X005647Y004163D02*
X005424Y004163D01*
X005424Y004108D01*
X005313Y004163D02*
X005257Y004163D01*
X005480Y004349D02*
X005424Y004405D01*
X005424Y004516D01*
X005480Y004572D01*
X005535Y004572D01*
X005535Y004349D01*
X005480Y004349D02*
X005591Y004349D01*
X005647Y004405D01*
X005647Y004516D01*
X005647Y004712D02*
X005647Y004823D01*
X005647Y004767D02*
X005313Y004767D01*
X005313Y004712D01*
X005480Y004953D02*
X005424Y005009D01*
X005424Y005176D01*
X005313Y005176D02*
X005647Y005176D01*
X005647Y005009D01*
X005591Y004953D01*
X005480Y004953D01*
X005702Y005316D02*
X005702Y005539D01*
X005647Y005790D02*
X005424Y005678D01*
X005424Y005901D02*
X005647Y005790D01*
X005647Y006041D02*
X005424Y006264D01*
X005368Y006264D01*
X005313Y006208D01*
X005313Y006097D01*
X005368Y006041D01*
X005647Y006041D02*
X005647Y006264D01*
X005647Y003745D02*
X005313Y003745D01*
X005647Y002713D02*
X005591Y002658D01*
X013692Y008595D02*
X013692Y008929D01*
X013859Y008929D01*
X013914Y008873D01*
X013914Y008762D01*
X013859Y008706D01*
X013692Y008706D01*
X013803Y008706D02*
X013914Y008595D01*
X014054Y008651D02*
X014110Y008595D01*
X014221Y008595D01*
X014277Y008651D01*
X014277Y008706D01*
X014221Y008762D01*
X014054Y008762D01*
X014054Y008651D01*
X014054Y008762D02*
X014165Y008873D01*
X014277Y008929D01*
X014761Y008850D02*
X014817Y008794D01*
X014928Y008794D01*
X014984Y008850D01*
X015124Y008794D02*
X015346Y009017D01*
X015346Y009072D01*
X015291Y009128D01*
X015179Y009128D01*
X015124Y009072D01*
X014984Y009072D02*
X014928Y009128D01*
X014817Y009128D01*
X014761Y009072D01*
X014761Y008850D01*
X015124Y008794D02*
X015346Y008794D01*
X015937Y008517D02*
X017946Y008517D01*
X018633Y008784D02*
X018633Y009118D01*
X018800Y009118D01*
X018855Y009062D01*
X018855Y008951D01*
X018800Y008895D01*
X018633Y008895D01*
X018744Y008895D02*
X018855Y008784D01*
X018995Y008784D02*
X019218Y009007D01*
X019218Y009062D01*
X019162Y009118D01*
X019051Y009118D01*
X018995Y009062D01*
X018995Y008784D02*
X019218Y008784D01*
X017946Y009413D02*
X015937Y009413D01*
X014277Y009644D02*
X014054Y009644D01*
X014221Y009811D01*
X014221Y009477D01*
X013914Y009477D02*
X013803Y009588D01*
X013859Y009588D02*
X013692Y009588D01*
X013692Y009477D02*
X013692Y009811D01*
X013859Y009811D01*
X013914Y009755D01*
X013914Y009644D01*
X013859Y009588D01*
X013914Y010359D02*
X013803Y010470D01*
X013859Y010470D02*
X013692Y010470D01*
X013692Y010359D02*
X013692Y010693D01*
X013859Y010693D01*
X013914Y010637D01*
X013914Y010526D01*
X013859Y010470D01*
X014054Y010414D02*
X014110Y010359D01*
X014221Y010359D01*
X014277Y010414D01*
X014277Y010526D01*
X014221Y010581D01*
X014165Y010581D01*
X014054Y010526D01*
X014054Y010693D01*
X014277Y010693D01*
X014817Y011510D02*
X014928Y011510D01*
X014984Y011566D01*
X015124Y011510D02*
X015346Y011510D01*
X015235Y011510D02*
X015235Y011844D01*
X015124Y011733D01*
X014984Y011789D02*
X014928Y011844D01*
X014817Y011844D01*
X014761Y011789D01*
X014761Y011566D01*
X014817Y011510D01*
X015937Y011272D02*
X017946Y011272D01*
X018593Y011579D02*
X018593Y011913D01*
X018760Y011913D01*
X018816Y011858D01*
X018816Y011746D01*
X018760Y011691D01*
X018593Y011691D01*
X018705Y011691D02*
X018816Y011579D01*
X018956Y011579D02*
X019178Y011579D01*
X019067Y011579D02*
X019067Y011913D01*
X018956Y011802D01*
X017946Y012169D02*
X015937Y012169D01*
X015937Y014028D02*
X017946Y014028D01*
X018841Y013238D02*
X018841Y012960D01*
X018897Y012904D01*
X019008Y012904D01*
X019064Y012960D01*
X019064Y013238D01*
X019204Y013127D02*
X019315Y013238D01*
X019315Y012904D01*
X019204Y012904D02*
X019426Y012904D01*
X019061Y015097D02*
X019061Y015153D01*
X019284Y015375D01*
X019284Y015431D01*
X019061Y015431D01*
X018921Y015375D02*
X018866Y015431D01*
X018699Y015431D01*
X018699Y015097D01*
X018699Y015208D02*
X018866Y015208D01*
X018921Y015264D01*
X018921Y015375D01*
X018810Y015208D02*
X018921Y015097D01*
X017158Y015097D02*
X016935Y015097D01*
X017047Y015097D02*
X017047Y015431D01*
X016935Y015320D01*
X016795Y015375D02*
X016795Y015153D01*
X016740Y015097D01*
X016628Y015097D01*
X016573Y015153D01*
X016573Y015375D01*
X016628Y015431D01*
X016740Y015431D01*
X016795Y015375D01*
X016684Y015208D02*
X016795Y015097D01*
X015662Y015153D02*
X015606Y015097D01*
X015495Y015097D01*
X015439Y015153D01*
X015439Y015208D01*
X015495Y015264D01*
X015606Y015264D01*
X015662Y015208D01*
X015662Y015153D01*
X015606Y015264D02*
X015662Y015320D01*
X015662Y015375D01*
X015606Y015431D01*
X015495Y015431D01*
X015439Y015375D01*
X015439Y015320D01*
X015495Y015264D01*
X015299Y015264D02*
X015244Y015208D01*
X015077Y015208D01*
X015188Y015208D02*
X015299Y015097D01*
X015299Y015264D02*
X015299Y015375D01*
X015244Y015431D01*
X015077Y015431D01*
X015077Y015097D01*
X016316Y017323D02*
X016816Y017323D01*
X017066Y017573D01*
X017316Y017323D01*
X017816Y017323D01*
X018066Y017573D01*
X018316Y017323D01*
X018816Y017323D01*
X019066Y017573D01*
X019066Y018073D01*
X018816Y018323D01*
X018316Y018323D01*
X018066Y018073D01*
X018066Y017573D01*
X018066Y018073D02*
X017816Y018323D01*
X017316Y018323D01*
X017066Y018073D01*
X017066Y017573D01*
X017066Y018073D02*
X016816Y018323D01*
X016316Y018323D01*
X016066Y018073D01*
X016066Y017573D01*
X016316Y017323D01*
X016337Y018483D02*
X016337Y018743D01*
X016467Y018743D01*
X016510Y018700D01*
X016510Y018613D01*
X016467Y018569D01*
X016337Y018569D01*
X016631Y018569D02*
X016675Y018613D01*
X016761Y018613D01*
X016805Y018569D01*
X016805Y018526D01*
X016761Y018483D01*
X016675Y018483D01*
X016631Y018526D01*
X016631Y018569D01*
X016675Y018613D02*
X016631Y018656D01*
X016631Y018700D01*
X016675Y018743D01*
X016761Y018743D01*
X016805Y018700D01*
X016805Y018656D01*
X016761Y018613D01*
X017321Y018569D02*
X017451Y018569D01*
X017494Y018613D01*
X017494Y018700D01*
X017451Y018743D01*
X017321Y018743D01*
X017321Y018483D01*
X017408Y018569D02*
X017494Y018483D01*
X017615Y018483D02*
X017789Y018743D01*
X017615Y018743D02*
X017789Y018483D01*
X018344Y018483D02*
X018344Y018743D01*
X018475Y018743D01*
X018518Y018700D01*
X018518Y018613D01*
X018475Y018569D01*
X018344Y018569D01*
X018639Y018483D02*
X018813Y018483D01*
X018726Y018483D02*
X018726Y018743D01*
X018639Y018656D01*
X019289Y018029D02*
X019289Y017751D01*
X019345Y017695D01*
X019456Y017695D01*
X019512Y017751D01*
X019512Y018029D01*
X019652Y017918D02*
X019763Y018029D01*
X019874Y017918D01*
X019874Y017695D01*
X020014Y017695D02*
X020014Y018029D01*
X020181Y018029D01*
X020237Y017974D01*
X020237Y017862D01*
X020181Y017807D01*
X020014Y017807D01*
X020126Y017807D02*
X020237Y017695D01*
X020488Y017695D02*
X020488Y018029D01*
X020377Y018029D02*
X020599Y018029D01*
X020739Y017974D02*
X020739Y017918D01*
X020795Y017862D01*
X020906Y017862D01*
X020962Y017807D01*
X020962Y017751D01*
X020906Y017695D01*
X020795Y017695D01*
X020739Y017751D01*
X020739Y017974D02*
X020795Y018029D01*
X020906Y018029D01*
X020962Y017974D01*
X021102Y018029D02*
X021102Y017695D01*
X021325Y017695D01*
X021464Y017695D02*
X021687Y017695D01*
X021464Y017695D02*
X021464Y018029D01*
X021325Y018029D02*
X021102Y018029D01*
X021102Y017862D02*
X021213Y017862D01*
X019874Y017862D02*
X019652Y017862D01*
X019652Y017918D02*
X019652Y017695D01*
X019699Y019636D02*
X019643Y019692D01*
X019866Y019915D01*
X019866Y019692D01*
X019810Y019636D01*
X019699Y019636D01*
X019643Y019692D02*
X019643Y019915D01*
X019699Y019970D01*
X019810Y019970D01*
X019866Y019915D01*
X019503Y019636D02*
X019280Y019636D01*
X019392Y019636D02*
X019392Y019970D01*
X019280Y019859D01*
X018866Y019636D02*
X018643Y019636D01*
X018754Y019636D02*
X018754Y019970D01*
X018643Y019859D01*
X018503Y019636D02*
X018280Y019636D01*
X018392Y019636D02*
X018392Y019970D01*
X018280Y019859D01*
X017866Y019859D02*
X017866Y019915D01*
X017810Y019970D01*
X017699Y019970D01*
X017643Y019915D01*
X017866Y019859D02*
X017643Y019636D01*
X017866Y019636D01*
X017503Y019636D02*
X017280Y019636D01*
X017392Y019636D02*
X017392Y019970D01*
X017280Y019859D01*
X016866Y019859D02*
X016810Y019803D01*
X016866Y019748D01*
X016866Y019692D01*
X016810Y019636D01*
X016699Y019636D01*
X016643Y019692D01*
X016503Y019636D02*
X016280Y019636D01*
X016392Y019636D02*
X016392Y019970D01*
X016280Y019859D01*
X016643Y019915D02*
X016699Y019970D01*
X016810Y019970D01*
X016866Y019915D01*
X016866Y019859D01*
X016810Y019803D02*
X016754Y019803D01*
X015216Y019964D02*
X014993Y019964D01*
X014993Y019630D01*
X014853Y019630D02*
X014630Y019630D01*
X014630Y019964D01*
X014853Y019964D01*
X014742Y019797D02*
X014630Y019797D01*
X014491Y019797D02*
X014435Y019741D01*
X014268Y019741D01*
X014268Y019630D02*
X014268Y019964D01*
X014435Y019964D01*
X014491Y019908D01*
X014491Y019797D01*
X014379Y019741D02*
X014491Y019630D01*
X014128Y019630D02*
X014128Y019853D01*
X014017Y019964D01*
X013905Y019853D01*
X013905Y019630D01*
X013905Y019797D02*
X014128Y019797D01*
X014993Y019797D02*
X015104Y019797D01*
X015111Y021030D02*
X015222Y021030D01*
X015278Y021086D01*
X015278Y021197D01*
X015167Y021197D01*
X015278Y021308D02*
X015222Y021364D01*
X015111Y021364D01*
X015055Y021308D01*
X015055Y021086D01*
X015111Y021030D01*
X015418Y021030D02*
X015418Y021364D01*
X015641Y021030D01*
X015641Y021364D01*
X015780Y021364D02*
X015947Y021364D01*
X016003Y021308D01*
X016003Y021086D01*
X015947Y021030D01*
X015780Y021030D01*
X015780Y021364D01*
X013953Y021253D02*
X013953Y021030D01*
X013953Y021197D02*
X013730Y021197D01*
X013730Y021253D02*
X013730Y021030D01*
X013591Y021086D02*
X013591Y021308D01*
X013535Y021364D01*
X013368Y021364D01*
X013368Y021030D01*
X013535Y021030D01*
X013591Y021086D01*
X013730Y021253D02*
X013842Y021364D01*
X013953Y021253D01*
X013228Y021308D02*
X013172Y021364D01*
X013061Y021364D01*
X013005Y021308D01*
X013005Y021253D01*
X013061Y021197D01*
X013172Y021197D01*
X013228Y021141D01*
X013228Y021086D01*
X013172Y021030D01*
X013061Y021030D01*
X013005Y021086D01*
X012830Y019964D02*
X012830Y019630D01*
X013053Y019630D01*
X012691Y019686D02*
X012635Y019630D01*
X012524Y019630D01*
X012468Y019686D01*
X012468Y019908D01*
X012524Y019964D01*
X012635Y019964D01*
X012691Y019908D01*
X012328Y019908D02*
X012272Y019964D01*
X012161Y019964D01*
X012105Y019908D01*
X012105Y019853D01*
X012161Y019797D01*
X012272Y019797D01*
X012328Y019741D01*
X012328Y019686D01*
X012272Y019630D01*
X012161Y019630D01*
X012105Y019686D01*
X017605Y021030D02*
X017772Y021030D01*
X017828Y021086D01*
X017828Y021308D01*
X017772Y021364D01*
X017605Y021364D01*
X017605Y021030D01*
X017968Y021030D02*
X018079Y021030D01*
X018024Y021030D02*
X018024Y021364D01*
X018079Y021364D02*
X017968Y021364D01*
X018210Y021308D02*
X018210Y021086D01*
X018265Y021030D01*
X018377Y021030D01*
X018432Y021086D01*
X018432Y021197D01*
X018321Y021197D01*
X018432Y021308D02*
X018377Y021364D01*
X018265Y021364D01*
X018210Y021308D01*
X018572Y021364D02*
X018683Y021364D01*
X018628Y021364D02*
X018628Y021030D01*
X018683Y021030D02*
X018572Y021030D01*
X018925Y021030D02*
X018925Y021364D01*
X018814Y021364D02*
X019036Y021364D01*
X019176Y021253D02*
X019288Y021364D01*
X019399Y021253D01*
X019399Y021030D01*
X019539Y021030D02*
X019761Y021030D01*
X019539Y021030D02*
X019539Y021364D01*
X019399Y021197D02*
X019176Y021197D01*
X019176Y021253D02*
X019176Y021030D01*
X020264Y021030D02*
X020375Y021030D01*
X020320Y021030D02*
X020320Y021364D01*
X020375Y021364D02*
X020264Y021364D01*
X020506Y021308D02*
X020506Y021086D01*
X020561Y021030D01*
X020673Y021030D01*
X020728Y021086D01*
X020728Y021308D01*
X020673Y021364D01*
X020561Y021364D01*
X020506Y021308D01*
X020499Y019970D02*
X020443Y019915D01*
X020443Y019859D01*
X020499Y019803D01*
X020666Y019803D01*
X020666Y019692D02*
X020666Y019915D01*
X020610Y019970D01*
X020499Y019970D01*
X020443Y019692D02*
X020499Y019636D01*
X020610Y019636D01*
X020666Y019692D01*
X021443Y019692D02*
X021443Y019748D01*
X021499Y019803D01*
X021610Y019803D01*
X021666Y019748D01*
X021666Y019692D01*
X021610Y019636D01*
X021499Y019636D01*
X021443Y019692D01*
X021499Y019803D02*
X021443Y019859D01*
X021443Y019915D01*
X021499Y019970D01*
X021610Y019970D01*
X021666Y019915D01*
X021666Y019859D01*
X021610Y019803D01*
X023043Y019692D02*
X023043Y019636D01*
X023043Y019692D02*
X023266Y019915D01*
X023266Y019970D01*
X023043Y019970D01*
X024043Y019803D02*
X024043Y019692D01*
X024099Y019636D01*
X024210Y019636D01*
X024266Y019692D01*
X024266Y019748D01*
X024210Y019803D01*
X024043Y019803D01*
X024154Y019915D01*
X024266Y019970D01*
X025043Y019970D02*
X025043Y019803D01*
X025154Y019859D01*
X025210Y019859D01*
X025266Y019803D01*
X025266Y019692D01*
X025210Y019636D01*
X025099Y019636D01*
X025043Y019692D01*
X025043Y019970D02*
X025266Y019970D01*
X026043Y019803D02*
X026266Y019803D01*
X026210Y019636D02*
X026210Y019970D01*
X026043Y019803D01*
X027043Y019692D02*
X027099Y019636D01*
X027210Y019636D01*
X027266Y019692D01*
X027266Y019748D01*
X027210Y019803D01*
X027154Y019803D01*
X027210Y019803D02*
X027266Y019859D01*
X027266Y019915D01*
X027210Y019970D01*
X027099Y019970D01*
X027043Y019915D01*
X028043Y019915D02*
X028099Y019970D01*
X028210Y019970D01*
X028266Y019915D01*
X028266Y019859D01*
X028043Y019636D01*
X028266Y019636D01*
X029043Y019636D02*
X029266Y019636D01*
X029154Y019636D02*
X029154Y019970D01*
X029043Y019859D01*
X030043Y019915D02*
X030043Y019692D01*
X030266Y019915D01*
X030266Y019692D01*
X030210Y019636D01*
X030099Y019636D01*
X030043Y019692D01*
X030043Y019915D02*
X030099Y019970D01*
X030210Y019970D01*
X030266Y019915D01*
X028328Y021086D02*
X028328Y021308D01*
X028273Y021364D01*
X028161Y021364D01*
X028106Y021308D01*
X028106Y021086D01*
X028161Y021030D01*
X028273Y021030D01*
X028328Y021086D01*
X027975Y021030D02*
X027864Y021030D01*
X027920Y021030D02*
X027920Y021364D01*
X027975Y021364D02*
X027864Y021364D01*
X027361Y021030D02*
X027139Y021030D01*
X027139Y021364D01*
X026999Y021253D02*
X026999Y021030D01*
X026999Y021197D02*
X026776Y021197D01*
X026776Y021253D02*
X026776Y021030D01*
X026525Y021030D02*
X026525Y021364D01*
X026414Y021364D02*
X026636Y021364D01*
X026776Y021253D02*
X026888Y021364D01*
X026999Y021253D01*
X026283Y021364D02*
X026172Y021364D01*
X026228Y021364D02*
X026228Y021030D01*
X026283Y021030D02*
X026172Y021030D01*
X026032Y021086D02*
X025977Y021030D01*
X025865Y021030D01*
X025810Y021086D01*
X025810Y021308D01*
X025865Y021364D01*
X025977Y021364D01*
X026032Y021308D01*
X026032Y021197D02*
X025921Y021197D01*
X026032Y021197D02*
X026032Y021086D01*
X025679Y021030D02*
X025568Y021030D01*
X025624Y021030D02*
X025624Y021364D01*
X025679Y021364D02*
X025568Y021364D01*
X025428Y021308D02*
X025428Y021086D01*
X025372Y021030D01*
X025205Y021030D01*
X025205Y021364D01*
X025372Y021364D01*
X025428Y021308D01*
X027992Y016048D02*
X027992Y015825D01*
X028326Y015825D01*
X028326Y016048D01*
X028159Y015936D02*
X028159Y015825D01*
X028270Y015685D02*
X027992Y015685D01*
X027992Y015463D02*
X028270Y015463D01*
X028326Y015518D01*
X028326Y015630D01*
X028270Y015685D01*
X028326Y015323D02*
X028326Y015100D01*
X027992Y015100D01*
X028048Y014960D02*
X028103Y014960D01*
X028159Y014905D01*
X028159Y014738D01*
X028159Y014905D02*
X028215Y014960D01*
X028270Y014960D01*
X028326Y014905D01*
X028326Y014738D01*
X027992Y014738D01*
X027992Y014905D01*
X028048Y014960D01*
X028382Y014598D02*
X028382Y014375D01*
X028270Y014235D02*
X028159Y014235D01*
X028159Y014124D01*
X028048Y014235D02*
X027992Y014180D01*
X027992Y014068D01*
X028048Y014013D01*
X028270Y014013D01*
X028326Y014068D01*
X028326Y014180D01*
X028270Y014235D01*
X028326Y013873D02*
X028215Y013761D01*
X028215Y013817D02*
X028215Y013650D01*
X028326Y013650D02*
X027992Y013650D01*
X027992Y013817D01*
X028048Y013873D01*
X028159Y013873D01*
X028215Y013817D01*
X028159Y013510D02*
X028048Y013510D01*
X027992Y013454D01*
X027992Y013287D01*
X028326Y013287D01*
X028215Y013287D02*
X028215Y013454D01*
X028159Y013510D01*
X028287Y012091D02*
X027953Y012091D01*
X027953Y011869D02*
X028287Y012091D01*
X028287Y011869D02*
X027953Y011869D01*
X027953Y011729D02*
X027953Y011506D01*
X028287Y011506D01*
X028287Y011729D01*
X028120Y011618D02*
X028120Y011506D01*
X028287Y011366D02*
X028287Y011144D01*
X027953Y011144D01*
X027953Y011366D01*
X028120Y011255D02*
X028120Y011144D01*
X028120Y011004D02*
X028175Y010948D01*
X028175Y010781D01*
X028175Y010892D02*
X028287Y011004D01*
X028120Y011004D02*
X028008Y011004D01*
X027953Y010948D01*
X027953Y010781D01*
X028287Y010781D01*
X028231Y010641D02*
X028120Y010641D01*
X028120Y010530D01*
X028231Y010641D02*
X028287Y010586D01*
X028287Y010474D01*
X028231Y010419D01*
X028008Y010419D01*
X027953Y010474D01*
X027953Y010586D01*
X028008Y010641D01*
X028342Y010279D02*
X028342Y010056D01*
X028231Y009916D02*
X028120Y009916D01*
X028120Y009805D01*
X028231Y009916D02*
X028287Y009861D01*
X028287Y009749D01*
X028231Y009694D01*
X028008Y009694D01*
X027953Y009749D01*
X027953Y009861D01*
X028008Y009916D01*
X028008Y009554D02*
X028120Y009554D01*
X028175Y009498D01*
X028175Y009331D01*
X028175Y009442D02*
X028287Y009554D01*
X028287Y009331D02*
X027953Y009331D01*
X027953Y009498D01*
X028008Y009554D01*
X028008Y009191D02*
X028120Y009191D01*
X028175Y009136D01*
X028175Y008969D01*
X028287Y008969D02*
X027953Y008969D01*
X027953Y009136D01*
X028008Y009191D01*
X027969Y007520D02*
X027913Y007464D01*
X027913Y007297D01*
X028247Y007297D01*
X028247Y007464D01*
X028192Y007520D01*
X027969Y007520D01*
X027913Y007157D02*
X027913Y006935D01*
X028247Y006935D01*
X028247Y007157D01*
X028080Y007046D02*
X028080Y006935D01*
X028080Y006795D02*
X028136Y006739D01*
X028136Y006572D01*
X028247Y006572D02*
X027913Y006572D01*
X027913Y006739D01*
X027969Y006795D01*
X028080Y006795D01*
X028136Y006684D02*
X028247Y006795D01*
X028303Y006432D02*
X028303Y006210D01*
X028192Y006070D02*
X028080Y006070D01*
X028080Y005958D01*
X027969Y005847D02*
X027913Y005903D01*
X027913Y006014D01*
X027969Y006070D01*
X028192Y006070D02*
X028247Y006014D01*
X028247Y005903D01*
X028192Y005847D01*
X027969Y005847D01*
X027969Y005707D02*
X028080Y005707D01*
X028136Y005652D01*
X028136Y005485D01*
X028136Y005596D02*
X028247Y005707D01*
X028247Y005485D02*
X027913Y005485D01*
X027913Y005652D01*
X027969Y005707D01*
X027969Y005345D02*
X028080Y005345D01*
X028136Y005289D01*
X028136Y005122D01*
X028247Y005122D02*
X027913Y005122D01*
X027913Y005289D01*
X027969Y005345D01*
X024003Y006806D02*
X023947Y006750D01*
X023836Y006750D01*
X023780Y006806D01*
X024003Y007028D01*
X024003Y006806D01*
X024003Y007028D02*
X023947Y007084D01*
X023836Y007084D01*
X023780Y007028D01*
X023780Y006806D01*
X023641Y006750D02*
X023418Y006750D01*
X023529Y006750D02*
X023529Y007084D01*
X023418Y006973D01*
X023278Y007028D02*
X023278Y006917D01*
X023222Y006861D01*
X023055Y006861D01*
X023055Y006750D02*
X023055Y007084D01*
X023222Y007084D01*
X023278Y007028D01*
X023167Y006861D02*
X023278Y006750D01*
X023342Y006443D02*
X023342Y006109D01*
X023342Y006276D02*
X023120Y006276D01*
X022980Y006221D02*
X022980Y006165D01*
X022924Y006109D01*
X022813Y006109D01*
X022757Y006165D01*
X022813Y006276D02*
X022924Y006276D01*
X022980Y006221D01*
X022980Y006388D02*
X022924Y006443D01*
X022813Y006443D01*
X022757Y006388D01*
X022757Y006332D01*
X022813Y006276D01*
X022617Y006276D02*
X022395Y006276D01*
X022395Y006332D02*
X022395Y006109D01*
X022255Y006109D02*
X022032Y006109D01*
X022032Y006443D01*
X021892Y006443D02*
X021670Y006443D01*
X021670Y006109D01*
X021670Y006276D02*
X021781Y006276D01*
X021480Y006459D02*
X021480Y005959D01*
X021230Y005709D01*
X020730Y005709D01*
X020480Y005959D01*
X020230Y005709D01*
X019730Y005709D01*
X019480Y005959D01*
X019480Y006459D01*
X019730Y006709D01*
X020230Y006709D01*
X020480Y006459D01*
X020730Y006709D01*
X021230Y006709D01*
X021480Y006459D01*
X022395Y006332D02*
X022506Y006443D01*
X022617Y006332D01*
X022617Y006109D01*
X023120Y006109D02*
X023120Y006443D01*
X020480Y006459D02*
X020480Y005959D01*
X019218Y006123D02*
X019162Y006067D01*
X019051Y006067D01*
X018995Y006123D01*
X018855Y006067D02*
X018744Y006179D01*
X018800Y006179D02*
X018633Y006179D01*
X018633Y006067D02*
X018633Y006401D01*
X018800Y006401D01*
X018855Y006346D01*
X018855Y006234D01*
X018800Y006179D01*
X018995Y006346D02*
X019051Y006401D01*
X019162Y006401D01*
X019218Y006346D01*
X019218Y006290D01*
X019162Y006234D01*
X019218Y006179D01*
X019218Y006123D01*
X019162Y006234D02*
X019106Y006234D01*
X017946Y006657D02*
X015937Y006657D01*
X015425Y006316D02*
X015425Y006261D01*
X015369Y006205D01*
X015425Y006149D01*
X015425Y006094D01*
X015369Y006038D01*
X015258Y006038D01*
X015202Y006094D01*
X015063Y006094D02*
X015007Y006038D01*
X014896Y006038D01*
X014840Y006094D01*
X014840Y006316D01*
X014896Y006372D01*
X015007Y006372D01*
X015063Y006316D01*
X015202Y006316D02*
X015258Y006372D01*
X015369Y006372D01*
X015425Y006316D01*
X015369Y006205D02*
X015314Y006205D01*
X017242Y005089D02*
X017242Y004829D01*
X017242Y004916D02*
X017372Y004916D01*
X017416Y004959D01*
X017416Y005046D01*
X017372Y005089D01*
X017242Y005089D01*
X017329Y004916D02*
X017416Y004829D01*
X017537Y004829D02*
X017710Y005089D01*
X017537Y005089D02*
X017710Y004829D01*
X017710Y004609D02*
X017710Y004436D01*
X017623Y004349D01*
X017537Y004436D01*
X017537Y004609D01*
X017416Y004349D02*
X017242Y004349D01*
X017242Y004609D01*
X016922Y004566D02*
X016922Y004479D01*
X016879Y004436D01*
X016749Y004436D01*
X016836Y004436D02*
X016922Y004349D01*
X016749Y004349D02*
X016749Y004609D01*
X016879Y004609D01*
X016922Y004566D01*
X016628Y004566D02*
X016628Y004392D01*
X016584Y004349D01*
X016498Y004349D01*
X016454Y004392D01*
X016454Y004566D01*
X016498Y004609D01*
X016584Y004609D01*
X016628Y004566D01*
X016345Y004609D02*
X016258Y004609D01*
X016301Y004609D02*
X016301Y004349D01*
X016258Y004349D02*
X016345Y004349D01*
X016328Y004150D02*
X016078Y003900D01*
X016078Y003400D01*
X016328Y003150D01*
X016828Y003150D01*
X017078Y003400D01*
X017328Y003150D01*
X017828Y003150D01*
X018078Y003400D01*
X018078Y003900D01*
X017828Y004150D01*
X017328Y004150D01*
X017078Y003900D01*
X017078Y003400D01*
X017078Y003900D02*
X016828Y004150D01*
X016328Y004150D01*
X017831Y004349D02*
X018005Y004349D01*
X017831Y004349D02*
X017831Y004609D01*
X018226Y004609D02*
X018226Y004436D01*
X018313Y004349D01*
X018400Y004436D01*
X018400Y004609D01*
X018521Y004566D02*
X018521Y004392D01*
X018564Y004349D01*
X018651Y004349D01*
X018694Y004392D01*
X018816Y004392D02*
X018816Y004566D01*
X018859Y004609D01*
X018946Y004609D01*
X018989Y004566D01*
X018989Y004392D02*
X018946Y004349D01*
X018859Y004349D01*
X018816Y004392D01*
X018694Y004566D02*
X018651Y004609D01*
X018564Y004609D01*
X018521Y004566D01*
X018328Y004150D02*
X018828Y004150D01*
X019078Y003900D01*
X019328Y004150D01*
X019828Y004150D01*
X020078Y003900D01*
X020078Y003400D01*
X019828Y003150D01*
X019328Y003150D01*
X019078Y003400D01*
X018828Y003150D01*
X018328Y003150D01*
X018078Y003400D01*
X018078Y003900D02*
X018328Y004150D01*
X019078Y003900D02*
X019078Y003400D01*
X020279Y003533D02*
X020390Y003533D01*
X020335Y003533D02*
X020335Y003867D01*
X020390Y003867D02*
X020279Y003867D01*
X020521Y003867D02*
X020521Y003533D01*
X020743Y003533D02*
X020521Y003867D01*
X020743Y003867D02*
X020743Y003533D01*
X020883Y003533D02*
X020883Y003867D01*
X021050Y003867D01*
X021106Y003812D01*
X021106Y003700D01*
X021050Y003645D01*
X020883Y003645D01*
X021246Y003589D02*
X021246Y003867D01*
X021468Y003867D02*
X021468Y003589D01*
X021413Y003533D01*
X021301Y003533D01*
X021246Y003589D01*
X021608Y003867D02*
X021831Y003867D01*
X021720Y003867D02*
X021720Y003533D01*
X021971Y003533D02*
X022193Y003867D01*
X022333Y003867D02*
X022333Y003533D01*
X022556Y003533D01*
X022696Y003645D02*
X022696Y003867D01*
X022696Y003645D02*
X022807Y003533D01*
X022918Y003645D01*
X022918Y003867D01*
X023058Y003812D02*
X023058Y003756D01*
X023114Y003700D01*
X023225Y003700D01*
X023281Y003645D01*
X023281Y003589D01*
X023225Y003533D01*
X023114Y003533D01*
X023058Y003589D01*
X023058Y003812D02*
X023114Y003867D01*
X023225Y003867D01*
X023281Y003812D01*
X023421Y003867D02*
X023421Y003533D01*
X023643Y003533D01*
X023783Y003533D02*
X024006Y003533D01*
X023783Y003533D02*
X023783Y003867D01*
X023643Y003867D02*
X023421Y003867D01*
X023421Y003700D02*
X023532Y003700D01*
X023614Y002364D02*
X023614Y002030D01*
X023392Y002364D01*
X023392Y002030D01*
X023261Y002030D02*
X023150Y002030D01*
X023206Y002030D02*
X023206Y002364D01*
X023261Y002364D02*
X023150Y002364D01*
X023010Y002364D02*
X023010Y002141D01*
X022899Y002030D01*
X022787Y002141D01*
X022787Y002364D01*
X022157Y002308D02*
X022157Y002086D01*
X022101Y002030D01*
X021934Y002030D01*
X021934Y002364D01*
X022101Y002364D01*
X022157Y002308D01*
X021795Y002364D02*
X021795Y002030D01*
X021572Y002364D01*
X021572Y002030D01*
X021432Y002086D02*
X021432Y002197D01*
X021321Y002197D01*
X021432Y002308D02*
X021376Y002364D01*
X021265Y002364D01*
X021209Y002308D01*
X021209Y002086D01*
X021265Y002030D01*
X021376Y002030D01*
X021432Y002086D01*
X020523Y002141D02*
X020523Y002364D01*
X020523Y002141D02*
X020411Y002030D01*
X020300Y002141D01*
X020300Y002364D01*
X020160Y002364D02*
X019937Y002364D01*
X019937Y002197D01*
X020049Y002253D01*
X020104Y002253D01*
X020160Y002197D01*
X020160Y002086D01*
X020104Y002030D01*
X019993Y002030D01*
X019937Y002086D01*
X019423Y002141D02*
X019423Y002364D01*
X019423Y002141D02*
X019311Y002030D01*
X019200Y002141D01*
X019200Y002364D01*
X019060Y002308D02*
X019060Y002253D01*
X019004Y002197D01*
X019060Y002141D01*
X019060Y002086D01*
X019004Y002030D01*
X018893Y002030D01*
X018837Y002086D01*
X018949Y002197D02*
X019004Y002197D01*
X019060Y002308D02*
X019004Y002364D01*
X018893Y002364D01*
X018837Y002308D01*
X017578Y002308D02*
X017578Y002197D01*
X017523Y002141D01*
X017356Y002141D01*
X017467Y002141D02*
X017578Y002030D01*
X017356Y002030D02*
X017356Y002364D01*
X017523Y002364D01*
X017578Y002308D01*
X017216Y002308D02*
X017216Y002086D01*
X017160Y002030D01*
X017049Y002030D01*
X016993Y002086D01*
X016993Y002308D01*
X017049Y002364D01*
X017160Y002364D01*
X017216Y002308D01*
X016863Y002364D02*
X016751Y002364D01*
X016807Y002364D02*
X016807Y002030D01*
X016751Y002030D02*
X016863Y002030D01*
X017651Y000964D02*
X017818Y000964D01*
X017874Y000908D01*
X017874Y000797D01*
X017818Y000741D01*
X017651Y000741D01*
X017651Y000630D02*
X017651Y000964D01*
X017763Y000741D02*
X017874Y000630D01*
X018014Y000686D02*
X018070Y000630D01*
X018181Y000630D01*
X018237Y000686D01*
X018237Y000741D01*
X018181Y000797D01*
X018070Y000797D01*
X018014Y000853D01*
X018014Y000908D01*
X018070Y000964D01*
X018181Y000964D01*
X018237Y000908D01*
X018376Y000964D02*
X018599Y000964D01*
X018488Y000964D02*
X018488Y000630D01*
X019254Y004349D02*
X019341Y004349D01*
X019384Y004392D01*
X019384Y004479D01*
X019297Y004479D01*
X019211Y004392D02*
X019254Y004349D01*
X019211Y004392D02*
X019211Y004566D01*
X019254Y004609D01*
X019341Y004609D01*
X019384Y004566D01*
X019505Y004609D02*
X019679Y004349D01*
X019679Y004609D01*
X019800Y004609D02*
X019800Y004349D01*
X019930Y004349D01*
X019973Y004392D01*
X019973Y004566D01*
X019930Y004609D01*
X019800Y004609D01*
X019505Y004609D02*
X019505Y004349D01*
X019371Y007432D02*
X019259Y007432D01*
X019204Y007487D01*
X019064Y007487D02*
X019064Y007766D01*
X019204Y007710D02*
X019259Y007766D01*
X019371Y007766D01*
X019426Y007710D01*
X019426Y007654D01*
X019371Y007599D01*
X019426Y007543D01*
X019426Y007487D01*
X019371Y007432D01*
X019371Y007599D02*
X019315Y007599D01*
X019064Y007487D02*
X019008Y007432D01*
X018897Y007432D01*
X018841Y007487D01*
X018841Y007766D01*
X018897Y010148D02*
X019008Y010148D01*
X019064Y010204D01*
X019064Y010482D01*
X019204Y010426D02*
X019259Y010482D01*
X019371Y010482D01*
X019426Y010426D01*
X019426Y010371D01*
X019204Y010148D01*
X019426Y010148D01*
X018897Y010148D02*
X018841Y010204D01*
X018841Y010482D01*
X022912Y010056D02*
X022912Y009834D01*
X022968Y009778D01*
X023079Y009778D01*
X023135Y009834D01*
X023274Y009945D02*
X023497Y009945D01*
X023441Y009778D02*
X023441Y010112D01*
X023274Y009945D01*
X023135Y010056D02*
X023079Y010112D01*
X022968Y010112D01*
X022912Y010056D01*
X023580Y011823D02*
X023692Y011823D01*
X023747Y011879D01*
X023747Y012157D01*
X023887Y011990D02*
X024110Y011990D01*
X024054Y011823D02*
X024054Y012157D01*
X023887Y011990D01*
X023580Y011823D02*
X023525Y011879D01*
X023525Y012157D01*
X011648Y012006D02*
X011425Y012006D01*
X011536Y012006D02*
X011536Y011672D01*
X011285Y011727D02*
X011285Y012006D01*
X011062Y012006D02*
X011062Y011727D01*
X011118Y011672D01*
X011229Y011672D01*
X011285Y011727D01*
X010923Y011727D02*
X010867Y011672D01*
X010756Y011672D01*
X010700Y011727D01*
X010700Y011950D01*
X010756Y012006D01*
X010867Y012006D01*
X010923Y011950D01*
X010923Y011727D01*
X010198Y011672D02*
X010198Y011894D01*
X010086Y012006D01*
X009975Y011894D01*
X009975Y011672D01*
X009835Y011727D02*
X009779Y011672D01*
X009668Y011672D01*
X009612Y011727D01*
X009612Y011950D01*
X009668Y012006D01*
X009779Y012006D01*
X009835Y011950D01*
X009835Y011839D02*
X009724Y011839D01*
X009835Y011839D02*
X009835Y011727D01*
X009975Y011839D02*
X010198Y011839D01*
X009473Y011783D02*
X009473Y012006D01*
X009473Y011783D02*
X009361Y011672D01*
X009250Y011783D01*
X009250Y012006D01*
X005770Y012058D02*
X005436Y012058D01*
X005770Y012280D01*
X005436Y012280D01*
X005436Y011918D02*
X005770Y011918D01*
X005436Y011695D01*
X005770Y011695D01*
X005715Y011555D02*
X005492Y011555D01*
X005436Y011500D01*
X005436Y011388D01*
X005492Y011333D01*
X005715Y011333D01*
X005770Y011388D01*
X005770Y011500D01*
X005715Y011555D01*
X005715Y011193D02*
X005770Y011137D01*
X005770Y011026D01*
X005715Y010970D01*
X005492Y010970D01*
X005436Y011026D01*
X005436Y011137D01*
X005492Y011193D01*
X005548Y010830D02*
X005436Y010719D01*
X005548Y010608D01*
X005770Y010608D01*
X005715Y010468D02*
X005603Y010468D01*
X005603Y010357D01*
X005492Y010468D02*
X005436Y010412D01*
X005436Y010301D01*
X005492Y010245D01*
X005715Y010245D01*
X005770Y010301D01*
X005770Y010412D01*
X005715Y010468D01*
X005603Y010608D02*
X005603Y010830D01*
X005548Y010830D02*
X005770Y010830D01*
X005659Y010105D02*
X005436Y010105D01*
X005436Y009883D02*
X005659Y009883D01*
X005770Y009994D01*
X005659Y010105D01*
X025005Y002308D02*
X025005Y002086D01*
X025228Y002308D01*
X025228Y002086D01*
X025172Y002030D01*
X025061Y002030D01*
X025005Y002086D01*
X025005Y002308D02*
X025061Y002364D01*
X025172Y002364D01*
X025228Y002308D01*
X026005Y002253D02*
X026117Y002364D01*
X026117Y002030D01*
X026228Y002030D02*
X026005Y002030D01*
X027005Y002030D02*
X027228Y002253D01*
X027228Y002308D01*
X027172Y002364D01*
X027061Y002364D01*
X027005Y002308D01*
X027005Y002030D02*
X027228Y002030D01*
X028005Y002086D02*
X028061Y002030D01*
X028172Y002030D01*
X028228Y002086D01*
X028228Y002141D01*
X028172Y002197D01*
X028117Y002197D01*
X028172Y002197D02*
X028228Y002253D01*
X028228Y002308D01*
X028172Y002364D01*
X028061Y002364D01*
X028005Y002308D01*
X029005Y002197D02*
X029228Y002197D01*
X029172Y002364D02*
X029005Y002197D01*
X029172Y002030D02*
X029172Y002364D01*
X030005Y002364D02*
X030005Y002197D01*
X030117Y002253D01*
X030172Y002253D01*
X030228Y002197D01*
X030228Y002086D01*
X030172Y002030D01*
X030061Y002030D01*
X030005Y002086D01*
X030005Y002364D02*
X030228Y002364D01*
X029461Y001046D02*
X029461Y000712D01*
X029239Y001046D01*
X029239Y000712D01*
X029108Y000712D02*
X028997Y000712D01*
X029053Y000712D02*
X029053Y001046D01*
X029108Y001046D02*
X028997Y001046D01*
X028495Y000990D02*
X028439Y001046D01*
X028328Y001046D01*
X028272Y000990D01*
X028272Y000768D01*
X028328Y000712D01*
X028439Y000712D01*
X028495Y000768D01*
X028495Y000879D01*
X028383Y000879D01*
X028132Y000768D02*
X028132Y000990D01*
X028076Y001046D01*
X027965Y001046D01*
X027909Y000990D01*
X027909Y000768D01*
X027965Y000712D01*
X028076Y000712D01*
X028132Y000768D01*
X027770Y000712D02*
X027547Y000712D01*
X027547Y001046D01*
X027407Y000935D02*
X027407Y000712D01*
X027407Y000879D02*
X027184Y000879D01*
X027184Y000935D02*
X027296Y001046D01*
X027407Y000935D01*
X027184Y000935D02*
X027184Y000712D01*
X027045Y000712D02*
X027045Y001046D01*
X026822Y001046D02*
X026822Y000712D01*
X026682Y000712D02*
X026682Y000935D01*
X026571Y001046D01*
X026459Y000935D01*
X026459Y000712D01*
X026459Y000879D02*
X026682Y000879D01*
X026822Y001046D02*
X027045Y000712D01*
D11*
X010910Y015186D02*
X010842Y015117D01*
X010704Y015117D01*
X010636Y015186D01*
X010910Y015460D01*
X010910Y015186D01*
X010910Y015460D02*
X010842Y015529D01*
X010704Y015529D01*
X010636Y015460D01*
X010636Y015186D01*
X010469Y015186D02*
X010469Y015117D01*
X010400Y015117D01*
X010400Y015186D01*
X010469Y015186D01*
X010203Y015323D02*
X009929Y015323D01*
X010135Y015529D01*
X010135Y015117D01*
X009261Y015117D02*
X009261Y015392D01*
X009124Y015529D01*
X008986Y015392D01*
X008986Y015117D01*
X008986Y015323D02*
X009261Y015323D01*
X008790Y015254D02*
X008790Y015186D01*
X008721Y015117D01*
X008584Y015117D01*
X008515Y015186D01*
X008584Y015323D02*
X008721Y015323D01*
X008790Y015254D01*
X008790Y015460D02*
X008721Y015529D01*
X008584Y015529D01*
X008515Y015460D01*
X008515Y015392D01*
X008584Y015323D01*
X008318Y015323D02*
X008044Y015323D01*
X007847Y015460D02*
X007847Y015529D01*
X007847Y015460D02*
X007710Y015323D01*
X007710Y015117D01*
X007710Y015323D02*
X007572Y015460D01*
X007572Y015529D01*
X007376Y015460D02*
X007376Y015392D01*
X007307Y015323D01*
X007101Y015323D01*
X007101Y015117D02*
X007307Y015117D01*
X007376Y015186D01*
X007376Y015254D01*
X007307Y015323D01*
X007376Y015460D02*
X007307Y015529D01*
X007101Y015529D01*
X007101Y015117D01*
X006433Y015186D02*
X006365Y015117D01*
X006227Y015117D01*
X006159Y015186D01*
X006159Y015460D01*
X006227Y015529D01*
X006365Y015529D01*
X006433Y015460D01*
X005962Y015460D02*
X005893Y015529D01*
X005756Y015529D01*
X005687Y015460D01*
X005687Y015186D01*
X005756Y015117D01*
X005893Y015117D01*
X005962Y015186D01*
X005893Y015885D02*
X005756Y015885D01*
X005687Y015953D01*
X005687Y016228D01*
X005756Y016297D01*
X005893Y016297D01*
X005962Y016228D01*
X005962Y015953D01*
X005893Y015885D01*
X006159Y015953D02*
X006227Y015885D01*
X006365Y015885D01*
X006433Y015953D01*
X006433Y016022D01*
X006365Y016091D01*
X006227Y016091D01*
X006159Y016159D01*
X006159Y016228D01*
X006227Y016297D01*
X006365Y016297D01*
X006433Y016228D01*
X006630Y016297D02*
X006630Y015885D01*
X006630Y016091D02*
X006905Y016091D01*
X006905Y016297D02*
X006905Y015885D01*
X007101Y015885D02*
X007238Y016022D01*
X007376Y015885D01*
X007376Y016297D01*
X007101Y016297D02*
X007101Y015885D01*
X007258Y017420D02*
X007533Y017695D01*
X007533Y017764D01*
X007464Y017832D01*
X007327Y017832D01*
X007258Y017764D01*
X007258Y017420D02*
X007533Y017420D01*
X007729Y017489D02*
X008004Y017764D01*
X008004Y017489D01*
X007935Y017420D01*
X007798Y017420D01*
X007729Y017489D01*
X007729Y017764D01*
X007798Y017832D01*
X007935Y017832D01*
X008004Y017764D01*
X008201Y017695D02*
X008338Y017832D01*
X008338Y017420D01*
X008201Y017420D02*
X008475Y017420D01*
X008672Y017489D02*
X008741Y017420D01*
X008878Y017420D01*
X008947Y017489D01*
X008947Y017626D01*
X008878Y017695D01*
X008809Y017695D01*
X008672Y017626D01*
X008672Y017832D01*
X008947Y017832D01*
X008966Y018188D02*
X008898Y018256D01*
X008898Y018531D01*
X008829Y018463D02*
X008966Y018463D01*
X009212Y018463D02*
X009349Y018463D01*
X009418Y018394D01*
X009418Y018188D01*
X009212Y018188D01*
X009143Y018256D01*
X009212Y018325D01*
X009418Y018325D01*
X009614Y018325D02*
X009752Y018188D01*
X009889Y018325D01*
X009889Y018600D01*
X009614Y018600D02*
X009614Y018325D01*
X010086Y018325D02*
X010361Y018325D01*
X010361Y018394D01*
X010292Y018463D01*
X010154Y018463D01*
X010086Y018394D01*
X010086Y018256D01*
X010154Y018188D01*
X010292Y018188D01*
X010557Y018256D02*
X010557Y018394D01*
X010626Y018463D01*
X010763Y018463D01*
X010832Y018394D01*
X010832Y018325D01*
X010557Y018325D01*
X010557Y018256D02*
X010626Y018188D01*
X010763Y018188D01*
X011028Y018256D02*
X011097Y018188D01*
X011303Y018188D01*
X011303Y018119D02*
X011303Y018463D01*
X011097Y018463D01*
X011028Y018394D01*
X011028Y018256D01*
X011166Y018050D02*
X011234Y018050D01*
X011303Y018119D01*
X011500Y018256D02*
X011568Y018325D01*
X011774Y018325D01*
X011774Y018394D02*
X011774Y018188D01*
X011568Y018188D01*
X011500Y018256D01*
X011568Y018463D02*
X011706Y018463D01*
X011774Y018394D01*
X011735Y017832D02*
X012010Y017832D01*
X011873Y017832D02*
X011873Y017420D01*
X012206Y017489D02*
X012206Y017695D01*
X012206Y017489D02*
X012275Y017420D01*
X012481Y017420D01*
X012481Y017695D01*
X012678Y017832D02*
X012746Y017832D01*
X012746Y017420D01*
X012678Y017420D02*
X012815Y017420D01*
X012992Y017420D02*
X013129Y017420D01*
X013061Y017420D02*
X013061Y017695D01*
X012992Y017695D01*
X013061Y017832D02*
X013061Y017901D01*
X013306Y017832D02*
X013375Y017832D01*
X013375Y017420D01*
X013443Y017420D02*
X013306Y017420D01*
X013620Y017489D02*
X013689Y017557D01*
X013895Y017557D01*
X013895Y017626D02*
X013895Y017420D01*
X013689Y017420D01*
X013620Y017489D01*
X013689Y017695D02*
X013826Y017695D01*
X013895Y017626D01*
X014092Y017626D02*
X014160Y017695D01*
X014298Y017695D01*
X014366Y017626D01*
X014366Y017420D01*
X014631Y017489D02*
X014631Y017764D01*
X014563Y017695D02*
X014700Y017695D01*
X014877Y017695D02*
X014946Y017695D01*
X014946Y017420D01*
X015014Y017420D02*
X014877Y017420D01*
X014700Y017420D02*
X014631Y017489D01*
X014946Y017832D02*
X014946Y017901D01*
X014759Y018188D02*
X014553Y018188D01*
X014484Y018256D01*
X014484Y018394D01*
X014553Y018463D01*
X014759Y018463D01*
X014759Y018600D02*
X014759Y018188D01*
X014307Y018188D02*
X014170Y018188D01*
X014239Y018188D02*
X014239Y018600D01*
X014170Y018600D01*
X013974Y018394D02*
X013905Y018463D01*
X013767Y018463D01*
X013699Y018394D01*
X013699Y018256D01*
X013767Y018188D01*
X013905Y018188D01*
X013974Y018325D02*
X013699Y018325D01*
X013522Y018188D02*
X013385Y018188D01*
X013453Y018188D02*
X013453Y018463D01*
X013385Y018463D01*
X013453Y018600D02*
X013453Y018669D01*
X013188Y018394D02*
X013119Y018463D01*
X012982Y018463D01*
X012913Y018394D01*
X012913Y018600D02*
X012913Y018188D01*
X012717Y018256D02*
X012648Y018188D01*
X012511Y018188D01*
X012442Y018256D01*
X012511Y018394D02*
X012648Y018394D01*
X012717Y018325D01*
X012717Y018256D01*
X012511Y018394D02*
X012442Y018463D01*
X012442Y018531D01*
X012511Y018600D01*
X012648Y018600D01*
X012717Y018531D01*
X013188Y018394D02*
X013188Y018188D01*
X013974Y018325D02*
X013974Y018394D01*
X014092Y017832D02*
X014092Y017420D01*
X011087Y017420D02*
X010950Y017420D01*
X011018Y017420D02*
X011018Y017695D01*
X010950Y017695D01*
X011018Y017832D02*
X011018Y017901D01*
X010763Y017695D02*
X010694Y017695D01*
X010557Y017557D01*
X010557Y017420D02*
X010557Y017695D01*
X010361Y017626D02*
X010361Y017420D01*
X010154Y017420D01*
X010086Y017489D01*
X010154Y017557D01*
X010361Y017557D01*
X010361Y017626D02*
X010292Y017695D01*
X010154Y017695D01*
X009889Y017832D02*
X009752Y017832D01*
X009821Y017832D02*
X009821Y017489D01*
X009752Y017420D01*
X009683Y017420D01*
X009614Y017489D01*
X008633Y018188D02*
X008633Y018394D01*
X008564Y018463D01*
X008358Y018463D01*
X008358Y018188D01*
X008161Y018325D02*
X007886Y018325D01*
X007886Y018256D02*
X007886Y018394D01*
X007955Y018463D01*
X008093Y018463D01*
X008161Y018394D01*
X008161Y018325D01*
X008093Y018188D02*
X007955Y018188D01*
X007886Y018256D01*
X007690Y018394D02*
X007690Y018531D01*
X007621Y018600D01*
X007415Y018600D01*
X007415Y018188D01*
X007415Y018325D02*
X007621Y018325D01*
X007690Y018394D01*
X007219Y018394D02*
X007219Y018188D01*
X007013Y018188D01*
X006944Y018256D01*
X007013Y018325D01*
X007219Y018325D01*
X007219Y018394D02*
X007150Y018463D01*
X007013Y018463D01*
X006767Y018463D02*
X006630Y018463D01*
X006698Y018531D02*
X006698Y018256D01*
X006767Y018188D01*
X006433Y018188D02*
X006227Y018188D01*
X006159Y018256D01*
X006159Y018394D01*
X006227Y018463D01*
X006433Y018463D01*
X005962Y018531D02*
X005962Y018256D01*
X005893Y018188D01*
X005756Y018188D01*
X005687Y018256D01*
X005687Y018531D01*
X005756Y018600D01*
X005893Y018600D01*
X005962Y018531D01*
X006070Y017832D02*
X006001Y017764D01*
X006001Y017489D01*
X006070Y017420D01*
X006208Y017420D01*
X006276Y017489D01*
X006473Y017420D02*
X006610Y017557D01*
X006610Y017695D01*
X006473Y017832D01*
X006276Y017764D02*
X006208Y017832D01*
X006070Y017832D01*
X005825Y017832D02*
X005687Y017695D01*
X005687Y017557D01*
X005825Y017420D01*
D12*
X004159Y000599D02*
X008895Y000599D01*
X008895Y012725D01*
X004159Y012725D01*
X017569Y012388D02*
X017571Y012403D01*
X017577Y012416D01*
X017586Y012428D01*
X017597Y012437D01*
X017611Y012443D01*
X017626Y012445D01*
X017641Y012443D01*
X017654Y012437D01*
X017666Y012428D01*
X017675Y012417D01*
X017681Y012403D01*
X017683Y012388D01*
X017681Y012373D01*
X017675Y012360D01*
X017666Y012348D01*
X017655Y012339D01*
X017641Y012333D01*
X017626Y012331D01*
X017611Y012333D01*
X017598Y012339D01*
X017586Y012348D01*
X017577Y012359D01*
X017571Y012373D01*
X017569Y012388D01*
X020871Y012483D02*
X020871Y011383D01*
X021731Y010583D02*
X022381Y010583D01*
X023242Y011383D02*
X023242Y012483D01*
X022381Y013244D02*
X021731Y013244D01*
X017569Y009633D02*
X017571Y009648D01*
X017577Y009661D01*
X017586Y009673D01*
X017597Y009682D01*
X017611Y009688D01*
X017626Y009690D01*
X017641Y009688D01*
X017654Y009682D01*
X017666Y009673D01*
X017675Y009662D01*
X017681Y009648D01*
X017683Y009633D01*
X017681Y009618D01*
X017675Y009605D01*
X017666Y009593D01*
X017655Y009584D01*
X017641Y009578D01*
X017626Y009576D01*
X017611Y009578D01*
X017598Y009584D01*
X017586Y009593D01*
X017577Y009604D01*
X017571Y009618D01*
X017569Y009633D01*
X017569Y006877D02*
X017571Y006892D01*
X017577Y006905D01*
X017586Y006917D01*
X017597Y006926D01*
X017611Y006932D01*
X017626Y006934D01*
X017641Y006932D01*
X017654Y006926D01*
X017666Y006917D01*
X017675Y006906D01*
X017681Y006892D01*
X017683Y006877D01*
X017681Y006862D01*
X017675Y006849D01*
X017666Y006837D01*
X017655Y006828D01*
X017641Y006822D01*
X017626Y006820D01*
X017611Y006822D01*
X017598Y006828D01*
X017586Y006837D01*
X017577Y006848D01*
X017571Y006862D01*
X017569Y006877D01*
D13*
X017055Y006469D02*
X018393Y006469D01*
X018393Y006457D02*
X018393Y005961D01*
X018393Y005949D02*
X017055Y005949D01*
X017055Y005961D02*
X017055Y006457D01*
X017055Y008705D02*
X018393Y008705D01*
X018393Y008717D02*
X018393Y009213D01*
X018393Y009224D02*
X017055Y009224D01*
X017055Y009213D02*
X017055Y008717D01*
X013531Y008567D02*
X013531Y009063D01*
X013531Y009075D02*
X012192Y009075D01*
X012192Y009063D02*
X012192Y008567D01*
X012192Y008555D02*
X013531Y008555D01*
X013531Y009437D02*
X012192Y009437D01*
X012192Y009449D02*
X012192Y009945D01*
X012192Y009957D02*
X013531Y009957D01*
X013531Y009945D02*
X013531Y009449D01*
X013531Y010319D02*
X012192Y010319D01*
X012192Y010331D02*
X012192Y010827D01*
X012192Y010839D02*
X013531Y010839D01*
X013531Y010827D02*
X013531Y010331D01*
X017055Y011461D02*
X018393Y011461D01*
X018393Y011472D02*
X018393Y011969D01*
X018393Y011980D02*
X017055Y011980D01*
X017055Y011969D02*
X017055Y011472D01*
X022924Y011485D02*
X022964Y011485D01*
X022925Y011485D02*
X022927Y011497D01*
X022932Y011508D01*
X022941Y011517D01*
X022952Y011522D01*
X022964Y011524D01*
X022976Y011522D01*
X022987Y011517D01*
X022996Y011508D01*
X023001Y011497D01*
X023003Y011485D01*
X023001Y011473D01*
X022996Y011462D01*
X022987Y011453D01*
X022976Y011448D01*
X022964Y011446D01*
X022952Y011448D01*
X022941Y011453D01*
X022932Y011462D01*
X022927Y011473D01*
X022925Y011485D01*
X022876Y011485D02*
X022878Y011503D01*
X022884Y011521D01*
X022893Y011537D01*
X022905Y011550D01*
X022920Y011561D01*
X022937Y011569D01*
X022955Y011573D01*
X022973Y011573D01*
X022991Y011569D01*
X023008Y011561D01*
X023023Y011550D01*
X023035Y011537D01*
X023044Y011521D01*
X023050Y011503D01*
X023052Y011485D01*
X023050Y011467D01*
X023044Y011449D01*
X023035Y011433D01*
X023023Y011420D01*
X023008Y011409D01*
X022991Y011401D01*
X022973Y011397D01*
X022955Y011397D01*
X022937Y011401D01*
X022920Y011409D01*
X022905Y011420D01*
X022893Y011433D01*
X022884Y011449D01*
X022878Y011467D01*
X022876Y011485D01*
X022846Y011485D02*
X022848Y011506D01*
X022854Y011526D01*
X022863Y011546D01*
X022875Y011563D01*
X022890Y011577D01*
X022908Y011589D01*
X022928Y011597D01*
X022948Y011602D01*
X022969Y011603D01*
X022990Y011600D01*
X023010Y011594D01*
X023029Y011583D01*
X023046Y011570D01*
X023059Y011554D01*
X023070Y011536D01*
X023078Y011516D01*
X023082Y011496D01*
X023082Y011474D01*
X023078Y011454D01*
X023070Y011434D01*
X023059Y011416D01*
X023046Y011400D01*
X023029Y011387D01*
X023010Y011376D01*
X022990Y011370D01*
X022969Y011367D01*
X022948Y011368D01*
X022928Y011373D01*
X022908Y011381D01*
X022890Y011393D01*
X022875Y011407D01*
X022863Y011424D01*
X022854Y011444D01*
X022848Y011464D01*
X022846Y011485D01*
X019165Y015579D02*
X019165Y016917D01*
X019153Y016917D02*
X018657Y016917D01*
X018645Y016917D02*
X018645Y015579D01*
X018657Y015579D02*
X019153Y015579D01*
X017196Y016138D02*
X017196Y016358D01*
X017016Y016808D02*
X016676Y016808D01*
X016676Y016518D01*
X016676Y015978D02*
X016676Y015688D01*
X017016Y015688D01*
X015621Y015579D02*
X015621Y016917D01*
X015610Y016917D02*
X015114Y016917D01*
X015102Y016917D02*
X015102Y015579D01*
X015114Y015579D02*
X015610Y015579D01*
X021466Y007150D02*
X022805Y007150D01*
X022805Y007138D02*
X022805Y006642D01*
X022805Y006630D02*
X021466Y006630D01*
X021466Y006642D02*
X021466Y007138D01*
D14*
X022055Y009890D02*
X022055Y009914D01*
X027089Y008909D02*
X027091Y008923D01*
X027097Y008937D01*
X027105Y008949D01*
X027117Y008957D01*
X027131Y008963D01*
X027145Y008965D01*
X027159Y008963D01*
X027173Y008957D01*
X027185Y008949D01*
X027193Y008937D01*
X027199Y008923D01*
X027201Y008909D01*
X027199Y008895D01*
X027193Y008881D01*
X027185Y008869D01*
X027173Y008861D01*
X027159Y008855D01*
X027145Y008853D01*
X027131Y008855D01*
X027117Y008861D01*
X027105Y008869D01*
X027097Y008881D01*
X027091Y008895D01*
X027089Y008909D01*
X027089Y013110D02*
X027091Y013124D01*
X027097Y013138D01*
X027105Y013150D01*
X027117Y013158D01*
X027131Y013164D01*
X027145Y013166D01*
X027159Y013164D01*
X027173Y013158D01*
X027185Y013150D01*
X027193Y013138D01*
X027199Y013124D01*
X027201Y013110D01*
X027199Y013096D01*
X027193Y013082D01*
X027185Y013070D01*
X027173Y013062D01*
X027159Y013056D01*
X027145Y013054D01*
X027131Y013056D01*
X027117Y013062D01*
X027105Y013070D01*
X027097Y013082D01*
X027091Y013096D01*
X027089Y013110D01*
X016149Y011732D02*
X016149Y011708D01*
X016149Y008977D02*
X016149Y008953D01*
X016149Y006221D02*
X016149Y006197D01*
X027089Y004709D02*
X027091Y004723D01*
X027097Y004737D01*
X027105Y004749D01*
X027117Y004757D01*
X027131Y004763D01*
X027145Y004765D01*
X027159Y004763D01*
X027173Y004757D01*
X027185Y004749D01*
X027193Y004737D01*
X027199Y004723D01*
X027201Y004709D01*
X027199Y004695D01*
X027193Y004681D01*
X027185Y004669D01*
X027173Y004661D01*
X027159Y004655D01*
X027145Y004653D01*
X027131Y004655D01*
X027117Y004661D01*
X027105Y004669D01*
X027097Y004681D01*
X027091Y004695D01*
X027089Y004709D01*
D15*
X022527Y009626D02*
X021582Y009626D01*
X021582Y010177D02*
X022527Y010177D01*
X016621Y009240D02*
X015677Y009240D01*
X015677Y008689D02*
X016621Y008689D01*
X016621Y006484D02*
X015677Y006484D01*
X015677Y005933D02*
X016621Y005933D01*
X016621Y011445D02*
X015677Y011445D01*
X015677Y011996D02*
X016621Y011996D01*
M02*
