G75*
%MOIN*%
%OFA0B0*%
%FSLAX24Y24*%
%IPPOS*%
%LPD*%
%AMOC8*
5,1,8,0,0,1.08239X$1,22.5*
%
%ADD10R,0.0910X0.0280*%
%ADD11R,0.0434X0.0473*%
%ADD12R,0.0473X0.0434*%
%ADD13R,0.0640X0.0640*%
%ADD14OC8,0.0640*%
%ADD15R,0.0827X0.0749*%
%ADD16OC8,0.0700*%
%ADD17C,0.1300*%
%ADD18C,0.0743*%
%ADD19C,0.2040*%
%ADD20R,0.0591X0.0434*%
%ADD21R,0.0709X0.0394*%
%ADD22C,0.0434*%
D10*
X015616Y006837D03*
X015616Y007337D03*
X015616Y007837D03*
X015616Y008337D03*
X015616Y009593D03*
X015616Y010093D03*
X015616Y010593D03*
X015616Y011093D03*
X015616Y012348D03*
X015616Y012848D03*
X015616Y013348D03*
X015616Y013848D03*
X018266Y013848D03*
X018266Y013348D03*
X018266Y012848D03*
X018266Y012348D03*
X018266Y011093D03*
X018266Y010593D03*
X018266Y010093D03*
X018266Y009593D03*
X018266Y008337D03*
X018266Y007837D03*
X018266Y007337D03*
X018266Y006837D03*
D11*
X018059Y006209D03*
X017389Y006209D03*
X017389Y008965D03*
X018059Y008965D03*
X021801Y006890D03*
X022470Y006890D03*
X018059Y011720D03*
X017389Y011720D03*
X013196Y010579D03*
X012527Y010579D03*
X012527Y009697D03*
X013196Y009697D03*
X013196Y008815D03*
X012527Y008815D03*
D12*
X015814Y008965D03*
X016484Y008965D03*
X016484Y011720D03*
X015814Y011720D03*
X015362Y015913D03*
X015362Y016583D03*
X018905Y016583D03*
X018905Y015913D03*
X021720Y009902D03*
X022389Y009902D03*
X016484Y006209D03*
X015814Y006209D03*
D13*
X016578Y003650D03*
X020980Y006209D03*
X016566Y017823D03*
D14*
X017566Y017823D03*
X018566Y017823D03*
X019980Y006209D03*
X019578Y003650D03*
X018578Y003650D03*
X017578Y003650D03*
D15*
X021228Y010917D03*
X022881Y010917D03*
X022881Y012917D03*
X021228Y012917D03*
D16*
X021525Y020500D03*
X020525Y020500D03*
X019525Y020500D03*
X018525Y020500D03*
X017525Y020500D03*
X016525Y020500D03*
X015525Y020500D03*
X014525Y020500D03*
X013525Y020500D03*
X012525Y020500D03*
X023125Y020500D03*
X024125Y020500D03*
X025125Y020500D03*
X026125Y020500D03*
X027125Y020500D03*
X028125Y020500D03*
X029125Y020500D03*
X030125Y020500D03*
X030125Y001500D03*
X029125Y001500D03*
X028125Y001500D03*
X027125Y001500D03*
X026125Y001500D03*
X025125Y001500D03*
X023125Y001500D03*
X022125Y001500D03*
X021125Y001500D03*
X020125Y001500D03*
X019125Y001500D03*
X018125Y001500D03*
X017125Y001500D03*
X016125Y001500D03*
D17*
X010637Y001484D03*
X031149Y003492D03*
X031149Y014476D03*
X011149Y020500D03*
D18*
X008096Y008567D03*
X008096Y007666D03*
X008096Y006764D03*
X008096Y005863D03*
X007096Y005414D03*
X006096Y005863D03*
X007096Y006315D03*
X006096Y006764D03*
X007096Y007217D03*
X006096Y007666D03*
X007096Y008118D03*
X006096Y008567D03*
X006096Y004961D03*
X007096Y004512D03*
X008096Y004961D03*
D19*
X007096Y001740D03*
X007096Y011583D03*
D20*
X016503Y016248D03*
X017370Y015874D03*
X017370Y016622D03*
D21*
X026385Y015461D03*
X027173Y015854D03*
X027173Y015067D03*
X027173Y014280D03*
X027173Y013492D03*
X026385Y013886D03*
X027173Y011654D03*
X027173Y010866D03*
X026385Y011260D03*
X027173Y010079D03*
X026385Y009685D03*
X027173Y009291D03*
X027173Y007453D03*
X026385Y007059D03*
X027173Y006665D03*
X027173Y005878D03*
X026385Y005484D03*
X027173Y005091D03*
D22*
X026779Y004172D03*
X026779Y008372D03*
X026779Y008372D03*
X026779Y012572D03*
X026779Y012573D03*
X026779Y016773D03*
M02*
