G75*
%MOIN*%
%OFA0B0*%
%FSLAX24Y24*%
%IPPOS*%
%LPD*%
%AMOC8*
5,1,8,0,0,1.08239X$1,22.5*
%
%ADD10R,0.0870X0.0240*%
%ADD11R,0.0394X0.0433*%
%ADD12R,0.0433X0.0394*%
%ADD13R,0.0787X0.0709*%
%ADD14R,0.0551X0.0394*%
D10*
X015616Y006837D03*
X015616Y007337D03*
X015616Y007837D03*
X015616Y008337D03*
X015616Y009593D03*
X015616Y010093D03*
X015616Y010593D03*
X015616Y011093D03*
X015616Y012348D03*
X015616Y012848D03*
X015616Y013348D03*
X015616Y013848D03*
X018266Y013848D03*
X018266Y013348D03*
X018266Y012848D03*
X018266Y012348D03*
X018266Y011093D03*
X018266Y010593D03*
X018266Y010093D03*
X018266Y009593D03*
X018266Y008337D03*
X018266Y007837D03*
X018266Y007337D03*
X018266Y006837D03*
D11*
X012527Y008815D03*
X013196Y008815D03*
X013196Y009697D03*
X012527Y009697D03*
X012527Y010579D03*
X013196Y010579D03*
X017389Y011720D03*
X018059Y011720D03*
X018059Y008965D03*
X017389Y008965D03*
X017389Y006209D03*
X018059Y006209D03*
X021801Y006890D03*
X022470Y006890D03*
D12*
X022389Y009902D03*
X021720Y009902D03*
X016484Y008965D03*
X015814Y008965D03*
X015814Y011720D03*
X016484Y011720D03*
X015362Y015913D03*
X015362Y016583D03*
X018905Y016583D03*
X018905Y015913D03*
X016484Y006209D03*
X015814Y006209D03*
D13*
X021228Y010917D03*
X022881Y010917D03*
X022881Y012917D03*
X021228Y012917D03*
D14*
X017370Y015874D03*
X016503Y016248D03*
X017370Y016622D03*
M02*
